<svg xmlns="http://www.w3.org/2000/svg" xmlns:xlink="http://www.w3.org/1999/xlink" id="Layer_1" x="0px" y="0px" viewBox="0 0 538.1 103.4" style="enable-background:new 0 0 538.1 103.4;" xml:space="preserve"> <style type="text/css"> .st0{fill-rule:evenodd;clip-rule:evenodd;fill:#FFFFFF;} .st1{fill:#FFFFFF;} .st2{opacity:0.5;} </style> <g id="Layer_2_00000166651052586842299670000013031471932896216751_"> <g id="Layer_1-2"> <path class="st0" d="M358.7,26.2h-12l-18,41.4h11l3.3-8.1h17.8l3,8.1h11L358.7,26.2z M346,52.4l6.4-15.8l5.8,15.8H346z"></path> <path class="st0" d="M410.2,53.4c-0.5-1.2-1.3-2.4-2.2-3.4c-0.7-0.8-1.7-1.5-2.8-1.8c2.1-0.9,4-2.3,5.4-4.2 c1.2-1.7,1.8-3.7,1.8-5.8c0-4.1-1.3-7.1-4-9.1c-2.7-2-6.8-2.9-12.4-2.9h-15.3v41.4h10.4V50.6h1.2c1.6-0.1,3.2,0.2,4.6,1 c1.3,1,2.3,2.4,2.9,3.9l5.3,11.9h11.7L410.2,53.4z M400.4,41.9c-1.2,0.9-2.8,1.3-4.3,1.2h-5v-9.6h5c1.5-0.1,3,0.3,4.2,1.2 c1,0.9,1.5,2.2,1.5,3.6C401.9,39.6,401.4,41,400.4,41.9z"></path> <path class="st0" d="M141.9,37.6c-1.4-2.8-3.5-5.3-6-7.1c-2-1.5-4.3-2.7-6.7-3.3c-3.4-0.8-6.9-1.1-10.3-1h-15.5v41.4h15.5 c3.2,0.1,6.4-0.2,9.6-0.7c2.1-0.5,4-1.3,5.9-2.4c3-1.9,5.5-4.5,7.2-7.6c1.7-3.1,2.5-6.5,2.5-10C144,43.6,143.3,40.5,141.9,37.6z M130,55.7c-2.2,2.3-5.4,3.6-8.6,3.5h-7.7V34.5h7.7c3.2-0.1,6.3,1.2,8.6,3.5c2.2,2.4,3.4,5.6,3.3,8.9 C133.4,50.1,132.2,53.3,130,55.7z"></path> <path class="st0" d="M175.5,26.2h-12l-18,41.4h11l3.3-8.1h17.8l3,8.1h11L175.5,26.2z M162.8,52.4l6.4-15.8l5.8,15.8H162.8z"></path> <path class="st0" d="M256.4,26.2h-12l-18,41.4h11l3.3-8.1h17.8l3,8.1h11L256.4,26.2z M243.7,52.4l6.4-15.8l5.8,15.8H243.7z"></path> <polygon class="st0" points="203.9,67.5 203.9,33.8 190.2,33.8 190.2,26.2 228.5,26.2 228.5,33.8 214.8,33.8 214.8,67.5 "></polygon> <polygon class="st0" points="278.7,67.5 278.7,26.2 287.9,26.2 301.1,42.8 314.5,26.2 323.6,26.2 323.6,67.5 313.4,67.5 313.4,41.9 301.1,57 289,41.9 289,67.5 "></polygon> <polygon class="st0" points="422.6,67.5 422.6,26.2 432.9,26.2 432.9,44.6 447,26.2 458.6,26.2 443.9,45.3 462.2,67.5 448.8,67.5 432.9,48.1 432.9,67.5 "></polygon> <polygon class="st0" points="466.5,67.5 466.5,26.2 494.2,26.2 494.2,33.8 476.9,33.8 476.9,42.2 493.5,42.2 493.5,49.9 476.9,49.9 476.9,59.8 494.7,59.8 494.7,67.5 "></polygon> <polygon class="st0" points="513.5,67.5 513.5,33.8 499.8,33.8 499.8,26.2 538.1,26.2 538.1,33.8 524.4,33.8 524.4,67.5 "></polygon> <rect x="82.1" y="0" class="st1" width="1.2" height="103.4"></rect> <g class="st2"> <polygon class="st0" points="0,66.3 41.4,88.3 67.2,10.7 "></polygon> </g> <polygon class="st0" points="0,66.3 41.4,88.3 46.5,5.5 "></polygon> </g> </g> </svg>