<svg xmlns="http://www.w3.org/2000/svg" viewBox="0 0 108.74 108.74"><g id="fc70114d-ca0e-4845-87c6-594b8c637671" data-name="Layer 2"><g id="bbee1475-c288-439a-bbda-7b64d83f36d4" data-name="Layer 1"><circle cx="54.37" cy="54.37" r="53.87" style="fill:#252c40;stroke:#00bcfa;stroke-miterlimit:10"></circle><circle cx="54.37" cy="54.37" r="35.55" style="fill:#151b2c;stroke:#00bcfa;stroke-miterlimit:10"></circle><path d="M72.39,62.21a22.92,22.92,0,0,1-4.54,4.84c-.06.1-.24.06-.3,0-.74-.47-1.55-.85-2.26-1.32a24.4,24.4,0,0,0,2.59-3.53H67a20.73,20.73,0,0,1-2.49,3.18A32.39,32.39,0,0,0,60.62,64l-.14-.11a16.61,16.61,0,0,0,.71-1.73h-.8l-.81,1.58a38.66,38.66,0,0,0-5.46-.71c-.1-.26,0-.64-.1-.87h-.77c-.06.35.09.61-.09.91a34.47,34.47,0,0,0-5.35.64L47,62.18a2.47,2.47,0,0,0-.83,0l.74,1.72-.09.09a37.85,37.85,0,0,0-3.92,1.37l-.12-.06a23.24,23.24,0,0,1-2.29-2.89c-.15-.5-.74-.2-1.07-.26a25.5,25.5,0,0,0,2.62,3.59c-.81.47-1.61,1-2.44,1.38a21.61,21.61,0,0,1-4.7-4.94,3.36,3.36,0,0,0-.95,0,23.26,23.26,0,0,0,8.95,8,0,0,0,0,1,0,0s.09.06,0,.09a24.44,24.44,0,0,0,7.49,2.31A23.42,23.42,0,0,0,73.34,62.21,5,5,0,0,0,72.39,62.21ZM60,64.84l.09-.06A16.73,16.73,0,0,1,63.72,66a19.35,19.35,0,0,1-3.3,2.81c-.69.4-1.37.85-2.09,1.19l-1.27-.55.09-.2A35.55,35.55,0,0,0,60,64.84ZM54.14,64a23.8,23.8,0,0,1,5,.58l0,.09a30.37,30.37,0,0,1-3,4.53A8.4,8.4,0,0,1,54.65,69l-.51-.06C54.08,67.2,54.05,65.68,54.14,64Zm-5.73.53A25.13,25.13,0,0,1,53.22,64l0,4.94c-.62.14-1.31.14-1.9.29a25.64,25.64,0,0,1-3.09-4.59Zm-4.79,1.57a20.05,20.05,0,0,1,3.63-1.28l.12,0a45.23,45.23,0,0,0,3,4.64c-.42.24-.92.38-1.34.61a20,20,0,0,1-5.41-3.91Zm3.84,5a21.34,21.34,0,0,1-7-3.27V67.7a16.42,16.42,0,0,1,2.2-1.23,30.83,30.83,0,0,0,5.35,4.12A2.44,2.44,0,0,1,47.46,71.06Zm11,.38a22.66,22.66,0,0,1-9.8-.06c-.06-.15.14-.18.23-.26a9.27,9.27,0,0,1,9.78.14C58.78,71.44,58.54,71.38,58.48,71.44Zm2.86-.82-1.4.44a3,3,0,0,1-.65-.47l.06-.09a26.63,26.63,0,0,0,5.26-4.06A11.64,11.64,0,0,1,66.9,67.7,20.13,20.13,0,0,1,61.34,70.62Z" style="fill:#667d93"></path><path d="M34.86,37.53a25.71,25.71,0,0,1,2.4-2.89,16.09,16.09,0,0,1,2.32-2c.77.49,1.64.91,2.38,1.37a26.38,26.38,0,0,0-2.56,3.51,1.78,1.78,0,0,0,.89,0,23.18,23.18,0,0,1,2.5-3.13c1.28.47,2.53,1,3.84,1.32l.11.11L46,37.56a2.76,2.76,0,0,0,.86,0c.27-.5.48-1.05.77-1.55a29.65,29.65,0,0,0,5.39.64c.23.21,0,.64.14.91H54c.08-.29,0-.62.08-.88A28.36,28.36,0,0,0,59.26,36l.14,0,.81,1.52A1.88,1.88,0,0,0,61,37.5l-.75-1.69.07-.06a35,35,0,0,0,4-1.4,27.72,27.72,0,0,1,2.56,3.21,2.79,2.79,0,0,0,.89-.06,12.34,12.34,0,0,0-1.28-1.84,12.61,12.61,0,0,0-1.31-1.58v-.15l2.08-1.19.3-.12a21.49,21.49,0,0,1,4.69,4.88c.36,0,.66.12,1,0A23.54,23.54,0,0,0,55.54,27.13l0,.06-.06-.06a13.64,13.64,0,0,0-2.64,0,6.89,6.89,0,0,0-1.1,0A23.31,23.31,0,0,0,33.9,37.56,3.44,3.44,0,0,0,34.86,37.53ZM47.19,35l-.12,0a24.56,24.56,0,0,1-3.54-1.2l.06-.18a23.67,23.67,0,0,1,5.26-3.82c.45.18.89.32,1.34.53l-.09.23A37.28,37.28,0,0,0,47.19,35Zm5.91.79a11.47,11.47,0,0,1-2.41-.09,17,17,0,0,1-2.61-.47,25.93,25.93,0,0,1,3.09-4.58l1.9.26C53.16,32.39,53.1,34.14,53.1,35.75Zm.92,0c-.05-1.55,0-3.28,0-4.88l1.85-.26a24.68,24.68,0,0,1,3.06,4.55A21.28,21.28,0,0,1,54,35.78Zm9.49-2.05A19.15,19.15,0,0,1,59.88,35a50.13,50.13,0,0,0-3.06-4.59c.41-.23.92-.4,1.37-.64a21.46,21.46,0,0,1,5.38,3.91Zm-3.81-5a21.08,21.08,0,0,1,7,3.27l-.06.11-2,1.14h-.15a26.54,26.54,0,0,0-5.29-4C59.2,29,59.49,28.88,59.7,28.74Zm-1.19-.3v.06a9.05,9.05,0,0,1-9.51.32c-.15-.11-.44-.17-.47-.38A22.41,22.41,0,0,1,58.51,28.44ZM40.38,32.07A21.49,21.49,0,0,1,46.54,29c.09-.09.14-.17.26-.17v.06c.24.05.42-.21.63,0s.38.27.53.41a30.3,30.3,0,0,0-5.32,4.12,10,10,0,0,1-2.26-1.23Z" style="fill:#667d93"></path><path d="M14,41,7.38,38.52l.49-1.34,6.64,2.44Z" style="fill:#667d93"></path><path d="M15.61,37l-5.29-2.56L9.4,36.37l-1.07-.52,2.44-5.06,1.08.52-.91,1.89,5.29,2.56Z" style="fill:#667d93"></path><path d="M16.86,29.94l.74-1.19a1.66,1.66,0,0,0,1.12.22A1.88,1.88,0,0,0,20,27.35a.86.86,0,0,0-.32-.69.66.66,0,0,0-.43-.15,1.26,1.26,0,0,0-.56.22c-.15.1-.46.34-.94.72a3.8,3.8,0,0,1-1.53.85,1.83,1.83,0,0,1-2.14-1.2,1.91,1.91,0,0,1,0-1.14,3.71,3.71,0,0,1,.66-1.25,3,3,0,0,1,1.68-1.24,2.06,2.06,0,0,1,1.67.39L17.24,25a1.19,1.19,0,0,0-.86-.16,1.45,1.45,0,0,0-.75.57,1.58,1.58,0,0,0-.38.93.49.49,0,0,0,.21.44.51.51,0,0,0,.46.1,3.5,3.5,0,0,0,1.18-.76,7,7,0,0,1,1.34-.91,1.92,1.92,0,0,1,1-.18,2.06,2.06,0,0,1,1.06.46,2.11,2.11,0,0,1,.7,1,2,2,0,0,1,0,1.24,3.87,3.87,0,0,1-.73,1.38,3,3,0,0,1-1.74,1.25A2.72,2.72,0,0,1,16.86,29.94Z" style="fill:#667d93"></path><path d="M23.86,22.81,25,22a2.19,2.19,0,0,1,.2,1.38,2.33,2.33,0,0,1-.72,1.26,2.27,2.27,0,0,1-2,.77,2.9,2.9,0,0,1-1.61-.9,2.82,2.82,0,0,1-.92-1.89A2.19,2.19,0,0,1,20.6,21a2.26,2.26,0,0,1,1.82-.73,3.37,3.37,0,0,1,2.07,1.2l-2.42,2.38a1.33,1.33,0,0,0,.89.44,1,1,0,0,0,.79-.31.77.77,0,0,0,.26-.5A1.07,1.07,0,0,0,23.86,22.81Zm-.91-1a1.32,1.32,0,0,0-.85-.42.89.89,0,0,0-.71.28,1,1,0,0,0-.3.74,1.3,1.3,0,0,0,.42.83Z" style="fill:#667d93"></path><path d="M27.75,21.61l-1.06.84-3.2-4,1-.79.45.57a2,2,0,0,1,0-.89,1.08,1.08,0,0,1,.36-.49,1.59,1.59,0,0,1,.85-.36l.41,1.19a1.12,1.12,0,0,0-.63.22.77.77,0,0,0-.28.42,1.07,1.07,0,0,0,.11.64,8.12,8.12,0,0,0,1,1.41Z" style="fill:#667d93"></path><path d="M30.82,19.38l-4.5-3.21,1.2-.76,2.22,1.68.71.59-.12-.45c0-.15-.08-.29-.11-.44l-.59-2.73,1.18-.75,1,5.41Z" style="fill:#667d93"></path><path d="M31.57,12.18,31,11.06l1.2-.62.57,1.12Zm2.63,5.18-2.32-4.57,1.21-.61,2.32,4.56Z" style="fill:#667d93"></path><path d="M39.29,11.15l-1.15.73a1,1,0,0,0-.51-.45.93.93,0,0,0-.65.05,1,1,0,0,0-.61.62,1.81,1.81,0,0,0,.15,1.2,2.14,2.14,0,0,0,.77,1.08,1,1,0,0,0,.91,0,1,1,0,0,0,.5-.44,1.31,1.31,0,0,0,0-.83l1.32-.29a2.4,2.4,0,0,1-.22,1.58,2.49,2.49,0,0,1-1.29,1,2.36,2.36,0,0,1-1.93,0,2.71,2.71,0,0,1-1.35-1.57,2.73,2.73,0,0,1-.12-2.08,2.42,2.42,0,0,1,1.42-1.34,2.5,2.5,0,0,1,1.53-.18A2.2,2.2,0,0,1,39.29,11.15Z" style="fill:#667d93"></path><path d="M43.89,11.92l1.36-.13a2.22,2.22,0,0,1-.5,1.3,2.4,2.4,0,0,1-1.26.74,2.28,2.28,0,0,1-2.14-.34,2.85,2.85,0,0,1-.94-1.57,2.8,2.8,0,0,1,.13-2.1A2.18,2.18,0,0,1,42,8.69,2.25,2.25,0,0,1,43.92,9,3.35,3.35,0,0,1,45.12,11l-3.28.87a1.34,1.34,0,0,0,.56.82,1,1,0,0,0,.84.13.87.87,0,0,0,.47-.31A1.11,1.11,0,0,0,43.89,11.92Zm-.28-1.35a1.29,1.29,0,0,0-.53-.78.93.93,0,0,0-.76-.12,1,1,0,0,0-.62.5,1.25,1.25,0,0,0-.05.92Z" style="fill:#667d93"></path><path d="M49.14,12.48l-.3-7.06L51,5.33l1.48,4.76,1.07-4.87,2.14-.09L56,12.2l-1.32.05L54.4,6.69l-1.16,5.62-1.38.06-1.63-5.5.23,5.56Z" style="fill:#667d93"></path><path d="M58.54,8.92l-1.2-.36a1.93,1.93,0,0,1,.83-1,2.59,2.59,0,0,1,1.54-.18A3.24,3.24,0,0,1,61,7.73a1.37,1.37,0,0,1,.55.61,2.81,2.81,0,0,1,.05,1.23l-.2,1.57a5.34,5.34,0,0,0,0,1,3.08,3.08,0,0,0,.16.71l-1.33-.16c0-.09,0-.23-.08-.41a.8.8,0,0,1,0-.16,2.47,2.47,0,0,1-.8.42,2.06,2.06,0,0,1-.86.07A1.75,1.75,0,0,1,57.26,12a1.42,1.42,0,0,1-.33-1.13,1.46,1.46,0,0,1,.29-.74,1.39,1.39,0,0,1,.64-.45A4.26,4.26,0,0,1,59,9.52a6.38,6.38,0,0,0,1.34-.18l0-.13a.7.7,0,0,0-.13-.58,1.2,1.2,0,0,0-.7-.24.8.8,0,0,0-1,.53Zm1.67,1.3c-.17,0-.46.07-.84.11a2.79,2.79,0,0,0-.76.15.61.61,0,0,0-.32.45.64.64,0,0,0,.16.51.78.78,0,0,0,.51.27,1.16,1.16,0,0,0,.72-.16.88.88,0,0,0,.38-.41,2.4,2.4,0,0,0,.12-.65Z" style="fill:#667d93"></path><path d="M66.9,14.12l-1.32-.33.63-2.53a4,4,0,0,0,.17-1.07.8.8,0,0,0-.18-.43.88.88,0,0,0-.43-.25,1.11,1.11,0,0,0-.65,0,1,1,0,0,0-.5.4,4.2,4.2,0,0,0-.38,1.12l-.56,2.25L62.36,13l1.23-5,1.23.3-.19.73a2.05,2.05,0,0,1,1.85-.44,1.91,1.91,0,0,1,.76.36,1.47,1.47,0,0,1,.45.53,1.59,1.59,0,0,1,.12.62,4.47,4.47,0,0,1-.15.9Z" style="fill:#667d93"></path><path d="M70.26,11.55,69.2,10.9a1.93,1.93,0,0,1,1.06-.77,2.57,2.57,0,0,1,1.54.22A3.35,3.35,0,0,1,73,11a1.33,1.33,0,0,1,.38.73,2.9,2.9,0,0,1-.27,1.2l-.59,1.47a4.39,4.39,0,0,0-.3,1,2.85,2.85,0,0,0,0,.73l-1.25-.49a4.06,4.06,0,0,1,0-.42A1.31,1.31,0,0,0,71,15a2.36,2.36,0,0,1-.87.21,2.5,2.5,0,0,1-.85-.15,1.79,1.79,0,0,1-1-.86,1.4,1.4,0,0,1,0-1.17,1.52,1.52,0,0,1,.48-.65,1.33,1.33,0,0,1,.73-.27,5,5,0,0,1,1.12.09,7.05,7.05,0,0,0,1.35.17l0-.12a.69.69,0,0,0,0-.59,1.18,1.18,0,0,0-.62-.42.8.8,0,0,0-1.07.27Zm1.29,1.69c-.18,0-.46-.05-.84-.11a2.55,2.55,0,0,0-.77-.05.56.56,0,0,0-.42.35.62.62,0,0,0,0,.53.74.74,0,0,0,.42.39,1.16,1.16,0,0,0,.74,0,.84.84,0,0,0,.47-.3,2.85,2.85,0,0,0,.29-.59Z" style="fill:#667d93"></path><path d="M72.66,16.71l1.27.91a.5.5,0,0,0,0,.41,1,1,0,0,0,.47.42,1.58,1.58,0,0,0,.77.25.67.67,0,0,0,.4-.17A2.16,2.16,0,0,0,75.9,18l.36-.65a1.87,1.87,0,0,1-1.75,0,1.89,1.89,0,0,1-1-1.56,2.92,2.92,0,0,1,.41-1.73,2.84,2.84,0,0,1,1.49-1.43,2,2,0,0,1,1.68.15,1.87,1.87,0,0,1,1,1.48l.35-.63,1.11.61-2.21,4a4.55,4.55,0,0,1-.78,1.12,1.71,1.71,0,0,1-.71.42,1.88,1.88,0,0,1-.82,0,3.67,3.67,0,0,1-1.07-.42,2.94,2.94,0,0,1-1.41-1.28,1.38,1.38,0,0,1,.07-1.25Zm2.51-2.05a1.83,1.83,0,0,0-.3,1.2,1,1,0,0,0,.5.71,1.06,1.06,0,0,0,.92.06,1.73,1.73,0,0,0,.86-.84,1.9,1.9,0,0,0,.28-1.2,1,1,0,0,0-.55-.73A1,1,0,0,0,76,13.8,1.73,1.73,0,0,0,75.17,14.66Z" style="fill:#667d93"></path><path d="M81.35,19.8l1,1A2.18,2.18,0,0,1,81,21.2a2.4,2.4,0,0,1-1.36-.51,2.29,2.29,0,0,1-1.08-1.87,2.91,2.91,0,0,1,.63-1.73,2.87,2.87,0,0,1,1.71-1.22,2.23,2.23,0,0,1,1.79.42,2.28,2.28,0,0,1,1,1.67,3.33,3.33,0,0,1-.86,2.24l-2.74-2a1.43,1.43,0,0,0-.29,1,1.07,1.07,0,0,0,.44.73.84.84,0,0,0,.53.17A1,1,0,0,0,81.35,19.8Zm.87-1.06a1.32,1.32,0,0,0,.28-.91.92.92,0,0,0-.39-.66,1,1,0,0,0-.78-.17,1.28,1.28,0,0,0-.75.54Z" style="fill:#667d93"></path><path d="M85.84,18.77l.87.89-.5.49a2,2,0,0,1,1.7.57,1.76,1.76,0,0,1,.46.75,1.64,1.64,0,0,1,0,.85,2.36,2.36,0,0,1,.94.09,1.73,1.73,0,0,1,.73.45,1.78,1.78,0,0,1,.51.85,1.41,1.41,0,0,1-.07.88,3,3,0,0,1-.66.85l-2.33,2.29-1-1,2.08-2.06a2.15,2.15,0,0,0,.61-.78.65.65,0,0,0-.2-.62.95.95,0,0,0-1.12-.16,3.42,3.42,0,0,0-.83.66l-1.75,1.73-1-1,2-2a3.87,3.87,0,0,0,.63-.73.6.6,0,0,0,.08-.38.67.67,0,0,0-.22-.37.94.94,0,0,0-.51-.29.91.91,0,0,0-.6.09,3.84,3.84,0,0,0-.83.66l-1.78,1.75-.95-1Z" style="fill:#667d93"></path><path d="M91.11,30.15l.6,1.24a2.3,2.3,0,0,1-1.4,0,2.47,2.47,0,0,1-1.13-.93,2.28,2.28,0,0,1-.43-2.11,3,3,0,0,1,1.15-1.44,2.81,2.81,0,0,1,2-.6,2.21,2.21,0,0,1,1.56.95,2.27,2.27,0,0,1,.42,1.91A3.33,3.33,0,0,1,92.38,31l-2-2.77a1.34,1.34,0,0,0-.58.81,1,1,0,0,0,.18.83.78.78,0,0,0,.45.34A1.05,1.05,0,0,0,91.11,30.15Zm1.17-.72a1.3,1.3,0,0,0,.55-.77A1,1,0,0,0,92,27.5a1.24,1.24,0,0,0-.88.27Z" style="fill:#667d93"></path><path d="M93.21,37.15l-.61-1.21,2.33-1.18a3.8,3.8,0,0,0,.91-.57.7.7,0,0,0,.21-.42.83.83,0,0,0-.09-.48,1.12,1.12,0,0,0-.46-.48,1.06,1.06,0,0,0-.63-.11,5.1,5.1,0,0,0-1.09.44L91.71,34.2,91.09,33l4.57-2.32.57,1.12-.67.34a2.07,2.07,0,0,1,1.54,1.11,2.2,2.2,0,0,1,.23.8,1.47,1.47,0,0,1-.12.69,1.55,1.55,0,0,1-.38.5,4.56,4.56,0,0,1-.78.48Z" style="fill:#667d93"></path><path d="M99.32,38.53l-1,.4L98,38.07l-1.92.77a5.58,5.58,0,0,0-.66.3.29.29,0,0,0-.12.18.35.35,0,0,0,0,.24,1.66,1.66,0,0,0,.32.45l-.93.5a2.52,2.52,0,0,1-.59-.92,1.54,1.54,0,0,1-.13-.65.89.89,0,0,1,.13-.52,1.31,1.31,0,0,1,.42-.38,8,8,0,0,1,.87-.39l2.07-.84-.23-.57,1-.41.23.58,1-.38,1.24,1L99,37.67Z" style="fill:#667d93"></path><path d="M77.16,60a5.32,5.32,0,0,0,1.19-.4l.2-.09a8.79,8.79,0,0,0,3.55-2.67c2-3,2.45-7.87,1-11.85a7.63,7.63,0,0,0-2.93-3.49,14.11,14.11,0,0,0-7.43-2A13.76,13.76,0,0,0,66.12,41a7.94,7.94,0,0,0-4,5.48c-.48,2.22-1.23,7.72,2.22,11.07,3.15,2.76,8,3.68,12.75,2.37Zm-.23-6.14A3.22,3.22,0,0,1,75,56.17a5.17,5.17,0,0,1-2,.4,5.76,5.76,0,0,1-2.77-.7l-.07,0a4.43,4.43,0,0,1-1.56-3.45V52.3l0-.43a18.8,18.8,0,0,1,.4-6.28l0-.05c.73-1.88,2.9-2,3.61-2.1h.06a4.49,4.49,0,0,1,3.82,1.49l0,0a4.75,4.75,0,0,1,.62,2.35c0,.17,0,.34,0,.5v.09c0,.51,0,1,0,1.59a23.47,23.47,0,0,1-.2,4.29Z" style="fill:#fff"></path><path d="M24.86,39.71c0,1.25,0,2.6,0,3.86h.36c.7,0,1.42,0,2.15.08l.67.06V55.15L28,56.27l-3.15.06c0,1.26,0,2.49,0,3.73H37.49V56.32h-.63a14.59,14.59,0,0,1-2-.08l-.65-.08,0-11.94.42-.59,2.83,0c0-1.2,0-2.62,0-3.88l-11.37,0Z" style="fill:#fff"></path><path d="M45.88,59.16l.51.28c2.77,1.14,6.92,1.74,10.28,0a5.72,5.72,0,0,0,2.94-5.86,6.9,6.9,0,0,0-5-5.14l-7.9-2.29L46,45.78a1.61,1.61,0,0,1-.6-1.55l0-.13.07-.11c.74-1.26,2.16-1.16,3.2-1.09l.53,0h.09c2.89.4,4.91,1.42,6.15,3.11h.63c.93,0,1.89,0,2.83,0,0-1.58,0-3.06,0-4.61,0-.46,0-.93,0-1.41-1.13,0-2.24,0-3.19,0a2.06,2.06,0,0,1-.15.86l-.31.75L53.07,40.5c-3.08-1.29-7.8-1.64-10.92.59a5.59,5.59,0,0,0-1.88,5.85c.38,2.07,2.51,3.55,4.21,4.19,1.5.53,3.09,1,4.63,1.45,1.33.39,2.72.8,4.07,1.25l.06,0a1.53,1.53,0,0,1,1,1.5,1.49,1.49,0,0,1-.9,1.15l-.16.06A9.28,9.28,0,0,1,44,54.29l0,0a4.53,4.53,0,0,1-.39-.58l-.09-.14-3.22,0c-.06,2.5-.06,4.69,0,6.52l3.38,0,.08-1.91,1,.46C45.14,58.76,45.51,59,45.88,59.16Z" style="fill:#fff"></path><path d="M42.21,75.7v1.75H35.6a4.64,4.64,0,0,1,.65-1.88,12.23,12.23,0,0,1,2.12-2.36,13,13,0,0,0,1.56-1.61,2.09,2.09,0,0,0,.39-1.16,1.3,1.3,0,0,0-.34-1,1.26,1.26,0,0,0-.93-.34,1.24,1.24,0,0,0-.94.36,1.76,1.76,0,0,0-.4,1.18l-1.88-.19a3.06,3.06,0,0,1,1.05-2.23,3.55,3.55,0,0,1,2.21-.68,3.16,3.16,0,0,1,2.29.79,2.54,2.54,0,0,1,.83,2A3.35,3.35,0,0,1,42,71.57a5.09,5.09,0,0,1-.76,1.26A13.14,13.14,0,0,1,40,74.09a14.87,14.87,0,0,0-1.13,1.08,3.4,3.4,0,0,0-.39.53Z" style="fill:#fff"></path><path d="M46.68,67.57a2.67,2.67,0,0,1,2.23,1,6.52,6.52,0,0,1,1,4,6.54,6.54,0,0,1-1,4,2.71,2.71,0,0,1-2.23,1,2.82,2.82,0,0,1-2.32-1.11,6.55,6.55,0,0,1-.88-3.93,6.5,6.5,0,0,1,1-4A2.68,2.68,0,0,1,46.68,67.57Zm0,1.56a1,1,0,0,0-.61.22,1.5,1.5,0,0,0-.42.78,10.89,10.89,0,0,0-.19,2.47A10.64,10.64,0,0,0,45.63,75a1.7,1.7,0,0,0,.44.86,1,1,0,0,0,.61.21.92.92,0,0,0,.61-.22,1.36,1.36,0,0,0,.41-.78,10.54,10.54,0,0,0,.2-2.45,10.35,10.35,0,0,0-.18-2.38,1.75,1.75,0,0,0-.43-.87A1,1,0,0,0,46.68,69.13Z" style="fill:#fff"></path><path d="M54.32,67.57a2.71,2.71,0,0,1,2.24,1,6.52,6.52,0,0,1,1,4,6.54,6.54,0,0,1-1,4,2.69,2.69,0,0,1-2.23,1A2.79,2.79,0,0,1,52,76.51a6.48,6.48,0,0,1-.88-3.93,6.51,6.51,0,0,1,1-4A2.71,2.71,0,0,1,54.32,67.57Zm0,1.56a1,1,0,0,0-.61.22,1.5,1.5,0,0,0-.42.78,11.52,11.52,0,0,0-.19,2.47A11.3,11.3,0,0,0,53.27,75a1.79,1.79,0,0,0,.44.86,1,1,0,0,0,.61.21.92.92,0,0,0,.61-.22,1.43,1.43,0,0,0,.42-.78,10.68,10.68,0,0,0,.19-2.45,11.17,11.17,0,0,0-.17-2.38,1.75,1.75,0,0,0-.44-.87A1,1,0,0,0,54.32,69.13Z" style="fill:#fff"></path><path d="M62,67.57a2.69,2.69,0,0,1,2.24,1,6.52,6.52,0,0,1,1,4,6.47,6.47,0,0,1-1,4,2.68,2.68,0,0,1-2.23,1,2.81,2.81,0,0,1-2.31-1.11,6.48,6.48,0,0,1-.88-3.93,6.44,6.44,0,0,1,1-4A2.67,2.67,0,0,1,62,67.57Zm0,1.56a1,1,0,0,0-.61.22,1.5,1.5,0,0,0-.41.78,10.74,10.74,0,0,0-.2,2.47A10.47,10.47,0,0,0,60.92,75a1.63,1.63,0,0,0,.44.86,1,1,0,0,0,1.22,0,1.49,1.49,0,0,0,.41-.78,10.54,10.54,0,0,0,.2-2.45A10.35,10.35,0,0,0,63,70.22a1.67,1.67,0,0,0-.44-.87A1,1,0,0,0,62,69.13Z" style="fill:#fff"></path><path d="M69.61,67.57a2.67,2.67,0,0,1,2.23,1,6.52,6.52,0,0,1,1,4,6.54,6.54,0,0,1-1,4,2.71,2.71,0,0,1-2.23,1,2.82,2.82,0,0,1-2.32-1.11,6.55,6.55,0,0,1-.88-3.93,6.5,6.5,0,0,1,1-4A2.69,2.69,0,0,1,69.61,67.57Zm0,1.56a1,1,0,0,0-.61.22,1.5,1.5,0,0,0-.42.78,10.89,10.89,0,0,0-.19,2.47A11.3,11.3,0,0,0,68.56,75a1.7,1.7,0,0,0,.44.86,1,1,0,0,0,.61.21.92.92,0,0,0,.61-.22,1.36,1.36,0,0,0,.41-.78,10.54,10.54,0,0,0,.2-2.45,11.17,11.17,0,0,0-.17-2.38,1.83,1.83,0,0,0-.44-.87A1,1,0,0,0,69.61,69.13Z" style="fill:#fff"></path><path d="M25.41,87.21l.6,1.45a3.41,3.41,0,0,1-2.16.32,3.61,3.61,0,0,1-2.58-3.75,4,4,0,0,1,1.55-2.58,4.2,4.2,0,0,1,2.9-1.15,3.38,3.38,0,0,1,2.47,1.31A3.15,3.15,0,0,1,29,85.08a3.05,3.05,0,0,1-.57,1.5l-1.26-.93a1.59,1.59,0,0,0-.06-2.06,1.73,1.73,0,0,0-1.35-.66,2.94,2.94,0,0,0-1.85.87,3.2,3.2,0,0,0-1.25,1.72,1.71,1.71,0,0,0,.4,1.43,1.54,1.54,0,0,0,1,.56A2.26,2.26,0,0,0,25.41,87.21Z" style="fill:#667d93"></path><path d="M32.56,94.53l1.07,1a2.49,2.49,0,0,1-1.42.51,2.57,2.57,0,0,1-1.49-.51,2.44,2.44,0,0,1-1.24-2,3.18,3.18,0,0,1,.61-1.89,3.07,3.07,0,0,1,1.81-1.38,2.38,2.38,0,0,1,1.94.38A2.45,2.45,0,0,1,35,92.45a3.61,3.61,0,0,1-.83,2.45l-3-2.05a1.44,1.44,0,0,0-.27,1,1.1,1.1,0,0,0,.49.78.94.94,0,0,0,.59.17A1.25,1.25,0,0,0,32.56,94.53Zm.9-1.18a1.42,1.42,0,0,0,.27-1,1,1,0,0,0-.45-.7,1,1,0,0,0-.85-.15,1.33,1.33,0,0,0-.78.61Z" style="fill:#667d93"></path><path d="M39.88,100.11,38.5,99.6l1.92-5.19,1.28.47-.28.74a2.38,2.38,0,0,1,.85-.47,1.12,1.12,0,0,1,.65,0,1.87,1.87,0,0,1,.81.6l-.87,1a1.27,1.27,0,0,0-.56-.47.8.8,0,0,0-.55,0,1.19,1.19,0,0,0-.52.46,8.12,8.12,0,0,0-.76,1.7Z" style="fill:#667d93"></path><path d="M50.07,96.93l-.18,1.15-1-.16-.36,2.2a5,5,0,0,0-.09.78.35.35,0,0,0,.1.21.41.41,0,0,0,.23.11,1.72,1.72,0,0,0,.6,0l-.05,1.14a2.89,2.89,0,0,1-1.18,0,1.78,1.78,0,0,1-.68-.25,1.07,1.07,0,0,1-.41-.41,1.43,1.43,0,0,1-.11-.6,5.53,5.53,0,0,1,.12-1l.38-2.38-.67-.11L47,96.43l.66.11.18-1.09,1.58-.61-.31,1.93Z" style="fill:#667d93"></path><path d="M53.82,96.4V95.05h1.46v1.35Zm0,6.28,0-5.53h1.46l0,5.53Z" style="fill:#667d93"></path><path d="M58.84,96.91l.8-.14-.06-.41a2.71,2.71,0,0,1,0-1,1.19,1.19,0,0,1,.44-.64,2,2,0,0,1,1-.38,4,4,0,0,1,1.24,0l0,1a2.48,2.48,0,0,0-.67,0,.61.61,0,0,0-.43.22.92.92,0,0,0,0,.58l.07.39,1.08-.18.19,1.13-1.08.18L62,102l-1.44.25-.73-4.32L59,98Z" style="fill:#667d93"></path><path d="M65.33,94.69l-.44-1.28,1.39-.48.44,1.28Zm2,5.94L65.58,95.4,67,94.92l1.79,5.23Z" style="fill:#667d93"></path><path d="M76.48,94.35l1.36-.56a2.3,2.3,0,0,1-.11,1.5,2.56,2.56,0,0,1-1.07,1.16,2.49,2.49,0,0,1-2.31.32,3.2,3.2,0,0,1-1.47-1.33,3,3,0,0,1-.52-2.21,2.37,2.37,0,0,1,1.13-1.62,2.48,2.48,0,0,1,2.09-.33A3.59,3.59,0,0,1,77.47,93L74.36,95a1.45,1.45,0,0,0,.83.68,1.13,1.13,0,0,0,.91-.14.9.9,0,0,0,.39-.46A1.19,1.19,0,0,0,76.48,94.35Zm-.71-1.3A1.37,1.37,0,0,0,75,92.4a1.06,1.06,0,0,0-1.31.83,1.4,1.4,0,0,0,.24,1Z" style="fill:#667d93"></path><path d="M87.05,87.26l-.92,1-.6-.55a2.26,2.26,0,0,1,0,1.07,2.07,2.07,0,0,1-2.14,1.52,3.16,3.16,0,0,1-2-1,3.09,3.09,0,0,1-1.12-1.94,2.14,2.14,0,0,1,.6-1.72A2.07,2.07,0,0,1,82.47,85l-2-1.86,1-1.08Zm-4.77.9a2.41,2.41,0,0,0,1.11.69,1.11,1.11,0,0,0,1.36-1.26,2.06,2.06,0,0,0-.7-1.13,2.18,2.18,0,0,0-1.24-.68,1.11,1.11,0,0,0-.91.36,1.12,1.12,0,0,0-.29.93A1.9,1.9,0,0,0,82.28,88.16Z" style="fill:#667d93"></path></g></g></svg>