<svg xmlns="http://www.w3.org/2000/svg" viewBox="0 0 108.74 108.74"><g id="b9d4545f-6e4e-482a-908c-5d7f2e6a3748" data-name="Layer 2"><g id="b70108be-3f5d-4a5d-9df4-749fd72d48c4" data-name="Layer 1"><circle cx="54.37" cy="54.37" r="53.87" style="fill:#252c40;stroke:#00bcfa;stroke-miterlimit:10"></circle><circle cx="54.37" cy="54.37" r="35.55" style="fill:#151b2c;stroke:#00bcfa;stroke-miterlimit:10"></circle><path d="M72.39,62.21a22.92,22.92,0,0,1-4.54,4.84c-.06.1-.24.06-.3,0-.74-.47-1.55-.85-2.26-1.32a24.4,24.4,0,0,0,2.59-3.53H67a20.73,20.73,0,0,1-2.49,3.18A32.39,32.39,0,0,0,60.62,64l-.14-.11a16.61,16.61,0,0,0,.71-1.73h-.8l-.81,1.58a38.66,38.66,0,0,0-5.46-.71c-.1-.26,0-.64-.1-.87h-.77c-.06.35.09.61-.09.91a34.47,34.47,0,0,0-5.35.64L47,62.18a2.47,2.47,0,0,0-.83,0l.74,1.72-.09.09a37.85,37.85,0,0,0-3.92,1.37l-.12-.06a23.24,23.24,0,0,1-2.29-2.89c-.15-.5-.74-.2-1.07-.26a25.5,25.5,0,0,0,2.62,3.59c-.81.47-1.61,1-2.44,1.38a21.61,21.61,0,0,1-4.7-4.94,3.36,3.36,0,0,0-.95,0,23.26,23.26,0,0,0,8.95,8,0,0,0,0,1,0,0s.09.06,0,.09a24.44,24.44,0,0,0,7.49,2.31A23.42,23.42,0,0,0,73.34,62.21,5,5,0,0,0,72.39,62.21ZM60,64.84l.09-.06A16.73,16.73,0,0,1,63.72,66a19.35,19.35,0,0,1-3.3,2.81c-.69.4-1.37.85-2.09,1.19l-1.27-.55.09-.2A35.55,35.55,0,0,0,60,64.84ZM54.14,64a23.8,23.8,0,0,1,5,.58l0,.09a30.37,30.37,0,0,1-3,4.53A8.4,8.4,0,0,1,54.65,69l-.51-.06C54.08,67.2,54.05,65.68,54.14,64Zm-5.73.53A25.13,25.13,0,0,1,53.22,64l0,4.94c-.62.14-1.31.14-1.9.29a25.64,25.64,0,0,1-3.09-4.59Zm-4.79,1.57a20.05,20.05,0,0,1,3.63-1.28l.12,0a45.23,45.23,0,0,0,3,4.64c-.42.24-.92.38-1.34.61a20,20,0,0,1-5.41-3.91Zm3.84,5a21.34,21.34,0,0,1-7-3.27V67.7a16.42,16.42,0,0,1,2.2-1.23,30.83,30.83,0,0,0,5.35,4.12A2.44,2.44,0,0,1,47.46,71.06Zm11,.38a22.66,22.66,0,0,1-9.8-.06c-.06-.15.14-.18.23-.26a9.27,9.27,0,0,1,9.78.14C58.78,71.44,58.54,71.38,58.48,71.44Zm2.86-.82-1.4.44a3,3,0,0,1-.65-.47l.06-.09a26.63,26.63,0,0,0,5.26-4.06A11.64,11.64,0,0,1,66.9,67.7,20.13,20.13,0,0,1,61.34,70.62Z" style="fill:#667d93"></path><path d="M34.86,37.53a25.71,25.71,0,0,1,2.4-2.89,16.09,16.09,0,0,1,2.32-2c.77.49,1.64.91,2.38,1.37a26.38,26.38,0,0,0-2.56,3.51,1.78,1.78,0,0,0,.89,0,23.18,23.18,0,0,1,2.5-3.13c1.28.47,2.53,1,3.84,1.32l.11.11L46,37.56a2.76,2.76,0,0,0,.86,0c.27-.5.48-1.05.77-1.55a29.65,29.65,0,0,0,5.39.64c.23.21,0,.64.14.91H54c.08-.29,0-.62.08-.88A28.36,28.36,0,0,0,59.26,36l.14,0,.81,1.52A1.88,1.88,0,0,0,61,37.5l-.75-1.69.07-.06a35,35,0,0,0,4-1.4,27.72,27.72,0,0,1,2.56,3.21,2.79,2.79,0,0,0,.89-.06,12.34,12.34,0,0,0-1.28-1.84,12.61,12.61,0,0,0-1.31-1.58v-.15l2.08-1.19.3-.12a21.49,21.49,0,0,1,4.69,4.88c.36,0,.66.12,1,0A23.54,23.54,0,0,0,55.54,27.13l0,.06-.06-.06a13.64,13.64,0,0,0-2.64,0,6.89,6.89,0,0,0-1.1,0A23.31,23.31,0,0,0,33.9,37.56,3.44,3.44,0,0,0,34.86,37.53ZM47.19,35l-.12,0a24.56,24.56,0,0,1-3.54-1.2l.06-.18a23.67,23.67,0,0,1,5.26-3.82c.45.18.89.32,1.34.53l-.09.23A37.28,37.28,0,0,0,47.19,35Zm5.91.79a11.47,11.47,0,0,1-2.41-.09,17,17,0,0,1-2.61-.47,25.93,25.93,0,0,1,3.09-4.58l1.9.26C53.16,32.39,53.1,34.14,53.1,35.75Zm.92,0c-.05-1.55,0-3.28,0-4.88l1.85-.26a24.68,24.68,0,0,1,3.06,4.55A21.28,21.28,0,0,1,54,35.78Zm9.49-2.05A19.15,19.15,0,0,1,59.88,35a50.13,50.13,0,0,0-3.06-4.59c.41-.23.92-.4,1.37-.64a21.46,21.46,0,0,1,5.38,3.91Zm-3.81-5a21.08,21.08,0,0,1,7,3.27l-.06.11-2,1.14h-.15a26.54,26.54,0,0,0-5.29-4C59.2,29,59.49,28.88,59.7,28.74Zm-1.19-.3v.06a9.05,9.05,0,0,1-9.51.32c-.15-.11-.44-.17-.47-.38A22.41,22.41,0,0,1,58.51,28.44ZM40.38,32.07A21.49,21.49,0,0,1,46.54,29c.09-.09.14-.17.26-.17v.06c.24.05.42-.21.63,0s.38.27.53.41a30.3,30.3,0,0,0-5.32,4.12,10,10,0,0,1-2.26-1.23Z" style="fill:#667d93"></path><path d="M18.68,29.81a5.24,5.24,0,0,0,1.11-.66l.58,1a3.78,3.78,0,0,1-.56.4l-1,.47a3.73,3.73,0,0,1-.55,1.47,3.35,3.35,0,0,1-2.16,1.66,3.67,3.67,0,0,1-2.78-.64,3.7,3.7,0,0,1-1.8-2.2A3.33,3.33,0,0,1,12,28.64,3.3,3.3,0,0,1,14.12,27a3.77,3.77,0,0,1,2.78.64,4.67,4.67,0,0,1,1.23,1.07A3.6,3.6,0,0,1,18.68,29.81Zm-1.29.55a2.25,2.25,0,0,0-.45-.77,3.55,3.55,0,0,0-.82-.67,2.64,2.64,0,0,0-1.84-.5,1.95,1.95,0,0,0-1.49,2.4,2.69,2.69,0,0,0,1.27,1.43,2.75,2.75,0,0,0,1.86.51,1.73,1.73,0,0,0,1.24-.84,1.65,1.65,0,0,0,.23-.55,4.19,4.19,0,0,0-.85.52l-.48-.77A4.7,4.7,0,0,1,17.39,30.36Z" style="fill:#667d93"></path><path d="M22.69,26.33l-.58-.5a2,2,0,0,1,0,1,1.93,1.93,0,0,1-.44.88,2,2,0,0,1-.78.56,1.37,1.37,0,0,1-.87,0,2.84,2.84,0,0,1-1-.6l-2.45-2.12.88-1,1.78,1.53a6.63,6.63,0,0,0,1.06.81.76.76,0,0,0,.47.05.89.89,0,0,0,.43-.29,1.08,1.08,0,0,0,.26-.6.9.9,0,0,0-.11-.59,5.94,5.94,0,0,0-1-1l-1.64-1.41.89-1,3.88,3.35Z" style="fill:#667d93"></path><path d="M22.74,21.21l-1.06.65a1.85,1.85,0,0,1-.2-1.29,2.57,2.57,0,0,1,.88-1.27,3.32,3.32,0,0,1,1.15-.74,1.38,1.38,0,0,1,.83,0,2.78,2.78,0,0,1,.94.78l1,1.19a4.93,4.93,0,0,0,.71.7,2.74,2.74,0,0,0,.64.35l-1,.9-.37-.21-.14-.09A2.42,2.42,0,0,1,26,23a2.32,2.32,0,0,1-.52.69,1.75,1.75,0,0,1-1.22.51,1.42,1.42,0,0,1-1.06-.51A1.46,1.46,0,0,1,22.8,23a1.32,1.32,0,0,1,.09-.78,4.42,4.42,0,0,1,.59-.95,7.25,7.25,0,0,0,.76-1.13l-.09-.1a.67.67,0,0,0-.52-.28,1.15,1.15,0,0,0-.65.36,1,1,0,0,0-.33.48A1.11,1.11,0,0,0,22.74,21.21Zm2.09-.39a7.42,7.42,0,0,1-.48.71,2.29,2.29,0,0,0-.39.66.57.57,0,0,0,.12.54.66.66,0,0,0,.48.22.74.74,0,0,0,.54-.2,1.18,1.18,0,0,0,.37-.65.86.86,0,0,0-.06-.55A3.21,3.21,0,0,0,25,21Z" style="fill:#667d93"></path><path d="M28.42,21.08l-4.2-5.69,1.09-.81,4.2,5.69Z" style="fill:#667d93"></path><path d="M27.4,14.66l-.68-1.05,1.14-.74.68,1.06Zm3.16,4.89-2.78-4.3,1.14-.74,2.78,4.3Z" style="fill:#667d93"></path><path d="M32.39,12.51l.52.94-.81.45,1,1.81a7,7,0,0,0,.37.63.34.34,0,0,0,.19.09.32.32,0,0,0,.23-.06,1.76,1.76,0,0,0,.42-.37l.61.86a2.8,2.8,0,0,1-.84.7,1.78,1.78,0,0,1-.64.21,1,1,0,0,1-.53-.07,1.27,1.27,0,0,1-.42-.37,6,6,0,0,1-.5-.81l-1.08-2-.55.3-.52-.94.54-.3-.49-.89.8-1.35L31.58,13Z" style="fill:#667d93"></path><path d="M32.93,12.18l1.32-.58,2.57,2.85-.35-3.81,1.29-.56.3,5.24.06.95a3.45,3.45,0,0,1,0,.77,1.44,1.44,0,0,1-.19.5,1.6,1.6,0,0,1-.38.41,2.87,2.87,0,0,1-.6.35,3.33,3.33,0,0,1-.74.23l-.53-.92a3.23,3.23,0,0,0,.55-.18.82.82,0,0,0,.53-.53,1.82,1.82,0,0,0,0-.78Z" style="fill:#667d93"></path><path d="M42.89,13.73,41.54,6.79l2.1-.41,2.17,4.49.33-5,2.1-.41,1.35,6.94-1.3.25L47.23,7.22,46.91,13l-1.35.26L43.13,8l1.06,5.47Z" style="fill:#667d93"></path><path d="M51.66,8.81l-1.24-.18a1.89,1.89,0,0,1,.67-1.12,2.6,2.6,0,0,1,1.5-.41,3.14,3.14,0,0,1,1.35.16,1.39,1.39,0,0,1,.65.52A2.8,2.8,0,0,1,54.81,9l0,1.58a5.93,5.93,0,0,0,.1,1,2.67,2.67,0,0,0,.27.68l-1.34,0c0-.09-.08-.22-.14-.4l-.06-.15a2.39,2.39,0,0,1-.72.53,2.16,2.16,0,0,1-.84.2,1.75,1.75,0,0,1-1.26-.38,1.54,1.54,0,0,1-.31-1.85,1.29,1.29,0,0,1,.56-.55,4.65,4.65,0,0,1,1.06-.35A7.44,7.44,0,0,0,53.48,9V8.82a.68.68,0,0,0-.21-.54,1.13,1.13,0,0,0-.73-.15A1,1,0,0,0,52,8.3,1,1,0,0,0,51.66,8.81Zm1.85,1a6.39,6.39,0,0,1-.82.24,2.56,2.56,0,0,0-.73.26.56.56,0,0,0-.24.49.64.64,0,0,0,.22.48.72.72,0,0,0,.55.19,1.15,1.15,0,0,0,.69-.27.85.85,0,0,0,.31-.46,2.75,2.75,0,0,0,0-.66Z" style="fill:#667d93"></path><path d="M60.69,12.71l-1.34-.12L59.59,10a3.68,3.68,0,0,0,0-1.07.74.74,0,0,0-.24-.41.83.83,0,0,0-.46-.18,1.08,1.08,0,0,0-.64.14.94.94,0,0,0-.43.47,4.6,4.6,0,0,0-.22,1.16l-.22,2.31-1.34-.13.48-5.1,1.25.12L57.71,8a2,2,0,0,1,1.76-.7,1.87,1.87,0,0,1,.8.23,1.34,1.34,0,0,1,.52.47,1.68,1.68,0,0,1,.22.59,4.83,4.83,0,0,1,0,.91Z" style="fill:#667d93"></path><path d="M63.62,9.67l-1.15-.49a1.91,1.91,0,0,1,.94-.91,2.66,2.66,0,0,1,1.55,0,3.45,3.45,0,0,1,1.27.51,1.37,1.37,0,0,1,.49.67,2.8,2.8,0,0,1-.09,1.23l-.37,1.53a6.06,6.06,0,0,0-.16,1,3.22,3.22,0,0,0,.09.72l-1.31-.29c0-.1,0-.24,0-.42s0-.14,0-.17a2.37,2.37,0,0,1-.84.33,2.27,2.27,0,0,1-.86,0,1.78,1.78,0,0,1-1.12-.7,1.42,1.42,0,0,1-.2-1.16,1.47,1.47,0,0,1,.37-.71,1.38,1.38,0,0,1,.68-.37A4.13,4.13,0,0,1,64,10.32a7.17,7.17,0,0,0,1.35,0l0-.13a.68.68,0,0,0-.06-.58,1.15,1.15,0,0,0-.67-.33,1,1,0,0,0-.59,0A1,1,0,0,0,63.62,9.67Zm1.53,1.48c-.18,0-.47,0-.85,0a2.57,2.57,0,0,0-.77.07.56.56,0,0,0-.37.41.65.65,0,0,0,.1.52.76.76,0,0,0,.48.33,1.24,1.24,0,0,0,.73-.08.9.9,0,0,0,.42-.37,2.42,2.42,0,0,0,.2-.63Z" style="fill:#667d93"></path><path d="M66.78,14.43l1.38.71a.58.58,0,0,0,0,.41,1,1,0,0,0,.52.35,1.57,1.57,0,0,0,.8.12.68.68,0,0,0,.38-.22,2.16,2.16,0,0,0,.27-.57l.26-.7a1.85,1.85,0,0,1-1.73.25,1.91,1.91,0,0,1-1.23-1.38,2.93,2.93,0,0,1,.15-1.78A2.86,2.86,0,0,1,68.88,10a2,2,0,0,1,1.69-.1,1.88,1.88,0,0,1,1.18,1.32l.25-.67,1.19.43L71.6,15.29A5,5,0,0,1,71,16.51a1.66,1.66,0,0,1-.64.51,1.89,1.89,0,0,1-.82.13,3.69,3.69,0,0,1-1.12-.26,3,3,0,0,1-1.58-1.06,1.45,1.45,0,0,1-.12-1.25ZM69,12a1.84,1.84,0,0,0-.12,1.23,1,1,0,0,0,.6.62,1.09,1.09,0,0,0,.93-.07,1.7,1.7,0,0,0,.72-1,1.85,1.85,0,0,0,.1-1.22,1,1,0,0,0-.65-.65,1,1,0,0,0-.88.08A1.72,1.72,0,0,0,69,12Z" style="fill:#667d93"></path><path d="M75.82,16.19l1.1.83a2.21,2.21,0,0,1-1.26.62,2.37,2.37,0,0,1-1.42-.31,2.28,2.28,0,0,1-1.35-1.69,3,3,0,0,1,.37-1.8,2.8,2.8,0,0,1,1.52-1.45,2.16,2.16,0,0,1,1.82.14A2.26,2.26,0,0,1,77.85,14a3.39,3.39,0,0,1-.51,2.35l-3-1.58a1.37,1.37,0,0,0-.15,1,1,1,0,0,0,.54.66.85.85,0,0,0,.55.1A1,1,0,0,0,75.82,16.19ZM76.53,15a1.38,1.38,0,0,0,.15-.94.91.91,0,0,0-.49-.59.94.94,0,0,0-.8-.06,1.26,1.26,0,0,0-.66.65Z" style="fill:#667d93"></path><path d="M80.1,14.5l1,.75-.42.56a2,2,0,0,1,1.76.31,1.78,1.78,0,0,1,.57.67,1.6,1.6,0,0,1,.1.85,2.4,2.4,0,0,1,1-.05,1.8,1.8,0,0,1,.79.34,1.84,1.84,0,0,1,.63.75,1.35,1.35,0,0,1,.06.89,3,3,0,0,1-.52.93l-2,2.62L82,22.31,83.72,20a2.11,2.11,0,0,0,.48-.87.63.63,0,0,0-.29-.58.83.83,0,0,0-.53-.18,1,1,0,0,0-.59.18,3.78,3.78,0,0,0-.73.78l-1.47,2-1.09-.81,1.69-2.25a4.31,4.31,0,0,0,.52-.81.58.58,0,0,0,0-.39.72.72,0,0,0-.26-.34,1.06,1.06,0,0,0-.56-.2.92.92,0,0,0-.58.18,3.7,3.7,0,0,0-.72.77l-1.49,2L77,18.6Z" style="fill:#667d93"></path><path d="M87,25l.77,1.13a2.19,2.19,0,0,1-1.38.19,2.33,2.33,0,0,1-1.25-.75,2.26,2.26,0,0,1-.74-2,3,3,0,0,1,.92-1.59,2.9,2.9,0,0,1,1.9-.9,2.22,2.22,0,0,1,1.69.72,2.29,2.29,0,0,1,.7,1.82,3.34,3.34,0,0,1-1.23,2.06l-2.35-2.45a1.32,1.32,0,0,0-.45.89,1,1,0,0,0,.3.79.81.81,0,0,0,.49.27A1.14,1.14,0,0,0,87,25Zm1-.89a1.29,1.29,0,0,0,.44-.84,1,1,0,0,0-1-1,1.29,1.29,0,0,0-.83.4Z" style="fill:#667d93"></path><path d="M90.17,31.58l-.81-1.1,2.11-1.54a3.81,3.81,0,0,0,.81-.71.69.69,0,0,0,.14-.45.77.77,0,0,0-.17-.46,1.11,1.11,0,0,0-.53-.4,1,1,0,0,0-.64,0,4.35,4.35,0,0,0-1,.61L88.2,28.91l-.8-1.1,4.13-3,.74,1-.6.45a2.05,2.05,0,0,1,1.7.85,2,2,0,0,1,.35.75,1.38,1.38,0,0,1,0,.7,1.56,1.56,0,0,1-.3.55,3.76,3.76,0,0,1-.69.6Z" style="fill:#667d93"></path><path d="M96.39,32.08l-.94.55-.47-.8-1.78,1a4.73,4.73,0,0,0-.61.39.26.26,0,0,0-.09.19.32.32,0,0,0,.06.23,1.66,1.66,0,0,0,.38.41l-.85.63a2.74,2.74,0,0,1-.71-.82,1.83,1.83,0,0,1-.23-.64.91.91,0,0,1,.06-.53,1.14,1.14,0,0,1,.36-.43,7,7,0,0,1,.8-.52l1.93-1.13L94,30.12l.94-.55.31.54.88-.52,1.37.78-1.56.91Z" style="fill:#667d93"></path><path d="M77.16,60a5.32,5.32,0,0,0,1.19-.4l.2-.09a8.79,8.79,0,0,0,3.55-2.67c2-3,2.45-7.87,1-11.85a7.63,7.63,0,0,0-2.93-3.49,14.11,14.11,0,0,0-7.43-2A13.76,13.76,0,0,0,66.12,41a7.94,7.94,0,0,0-4,5.48c-.48,2.22-1.23,7.72,2.22,11.07,3.15,2.76,8,3.68,12.75,2.37Zm-.23-6.14A3.22,3.22,0,0,1,75,56.17a5.17,5.17,0,0,1-2,.4,5.76,5.76,0,0,1-2.77-.7l-.07,0a4.43,4.43,0,0,1-1.56-3.45V52.3l0-.43a18.8,18.8,0,0,1,.4-6.28l0-.05c.73-1.88,2.9-2,3.61-2.1h.06a4.49,4.49,0,0,1,3.82,1.49l0,0a4.75,4.75,0,0,1,.62,2.35c0,.17,0,.34,0,.5v.09c0,.51,0,1,0,1.59a23.47,23.47,0,0,1-.2,4.29Z" style="fill:#fff"></path><path d="M24.86,39.71c0,1.25,0,2.6,0,3.86h.36c.7,0,1.42,0,2.15.08l.67.06V55.15L28,56.27l-3.15.06c0,1.26,0,2.49,0,3.73H37.49V56.32h-.63a14.59,14.59,0,0,1-2-.08l-.65-.08,0-11.94.42-.59,2.83,0c0-1.2,0-2.62,0-3.88l-11.37,0Z" style="fill:#fff"></path><path d="M45.88,59.16l.51.28c2.77,1.14,6.92,1.74,10.28,0a5.72,5.72,0,0,0,2.94-5.86,6.9,6.9,0,0,0-5-5.14l-7.9-2.29L46,45.78a1.61,1.61,0,0,1-.6-1.55l0-.13.07-.11c.74-1.26,2.16-1.16,3.2-1.09l.53,0h.09c2.89.4,4.91,1.42,6.15,3.11h.63c.93,0,1.89,0,2.83,0,0-1.58,0-3.06,0-4.61,0-.46,0-.93,0-1.41-1.13,0-2.24,0-3.19,0a2.06,2.06,0,0,1-.15.86l-.31.75L53.07,40.5c-3.08-1.29-7.8-1.64-10.92.59a5.59,5.59,0,0,0-1.88,5.85c.38,2.07,2.51,3.55,4.21,4.19,1.5.53,3.09,1,4.63,1.45,1.33.39,2.72.8,4.07,1.25l.06,0a1.53,1.53,0,0,1,1,1.5,1.49,1.49,0,0,1-.9,1.15l-.16.06A9.28,9.28,0,0,1,44,54.29l0,0a4.53,4.53,0,0,1-.39-.58l-.09-.14-3.22,0c-.06,2.5-.06,4.69,0,6.52l3.38,0,.08-1.91,1,.46C45.14,58.76,45.51,59,45.88,59.16Z" style="fill:#fff"></path><path d="M39.71,75.17l1.82-.2a1.36,1.36,0,0,0,.35.83,1,1,0,0,0,.75.27,1.2,1.2,0,0,0,1-.54,4.55,4.55,0,0,0,.52-2.23,2.24,2.24,0,0,1-1.77.83,2.65,2.65,0,0,1-2-.9,3.27,3.27,0,0,1-.84-2.33,3.32,3.32,0,0,1,.89-2.41,3,3,0,0,1,2.26-.92,3.06,3.06,0,0,1,2.46,1.16,6,6,0,0,1,1,3.81,6,6,0,0,1-1,3.89,3.25,3.25,0,0,1-2.6,1.19A2.77,2.77,0,0,1,40.62,77,3,3,0,0,1,39.71,75.17ZM44,71.05a2.12,2.12,0,0,0-.42-1.41,1.24,1.24,0,0,0-1-.51,1.08,1.08,0,0,0-.87.42,2.08,2.08,0,0,0-.35,1.35,2.17,2.17,0,0,0,.38,1.4,1.16,1.16,0,0,0,.94.44,1.14,1.14,0,0,0,.91-.43A1.84,1.84,0,0,0,44,71.05Z" style="fill:#fff"></path><path d="M50.5,67.57a2.67,2.67,0,0,1,2.23,1,6.52,6.52,0,0,1,1,4,6.54,6.54,0,0,1-1,4,2.71,2.71,0,0,1-2.23,1,2.82,2.82,0,0,1-2.32-1.11,6.56,6.56,0,0,1-.87-3.93,6.51,6.51,0,0,1,1-4A2.69,2.69,0,0,1,50.5,67.57Zm0,1.56a1,1,0,0,0-.61.22,1.5,1.5,0,0,0-.42.78,10.89,10.89,0,0,0-.19,2.47A11.3,11.3,0,0,0,49.45,75a1.79,1.79,0,0,0,.44.86,1,1,0,0,0,.61.21.92.92,0,0,0,.61-.22,1.43,1.43,0,0,0,.42-.78,10.68,10.68,0,0,0,.19-2.45,11.17,11.17,0,0,0-.17-2.38,1.83,1.83,0,0,0-.44-.87A1,1,0,0,0,50.5,69.13Z" style="fill:#fff"></path><path d="M58.14,67.57a2.69,2.69,0,0,1,2.24,1,6.52,6.52,0,0,1,1,4,6.54,6.54,0,0,1-1,4,2.68,2.68,0,0,1-2.23,1,2.8,2.8,0,0,1-2.31-1.11A6.48,6.48,0,0,1,55,72.58a6.44,6.44,0,0,1,1-4A2.67,2.67,0,0,1,58.14,67.57Zm0,1.56a1,1,0,0,0-.61.22,1.43,1.43,0,0,0-.41.78,10.74,10.74,0,0,0-.2,2.47A10.47,10.47,0,0,0,57.1,75a1.63,1.63,0,0,0,.44.86,1,1,0,0,0,1.21,0,1.43,1.43,0,0,0,.42-.78,10.68,10.68,0,0,0,.19-2.45,10.52,10.52,0,0,0-.17-2.38,1.75,1.75,0,0,0-.44-.87A1,1,0,0,0,58.14,69.13Z" style="fill:#fff"></path><path d="M67.42,77.45H65.54V70.34a6.43,6.43,0,0,1-2.44,1.43V70.06a5.53,5.53,0,0,0,1.61-.92,3.47,3.47,0,0,0,1.18-1.57h1.53Z" style="fill:#fff"></path><path d="M25.41,87.21l.6,1.45a3.35,3.35,0,0,1-2.16.32,3.61,3.61,0,0,1-2.58-3.75,4,4,0,0,1,1.55-2.58,4.2,4.2,0,0,1,2.9-1.15,3.38,3.38,0,0,1,2.47,1.31A3.15,3.15,0,0,1,29,85.08a3.12,3.12,0,0,1-.57,1.51l-1.27-.94a1.58,1.58,0,0,0,.36-1,1.63,1.63,0,0,0-.41-1,1.71,1.71,0,0,0-1.35-.67,2.94,2.94,0,0,0-1.85.87,3.2,3.2,0,0,0-1.25,1.72,1.7,1.7,0,0,0,.4,1.44,1.53,1.53,0,0,0,1,.55A2.26,2.26,0,0,0,25.41,87.21Z" style="fill:#667d93"></path><path d="M32.56,94.53l1.07,1a2.49,2.49,0,0,1-1.42.51,2.57,2.57,0,0,1-1.49-.51,2.48,2.48,0,0,1-1.25-2,3.27,3.27,0,0,1,.62-1.89,3.08,3.08,0,0,1,1.8-1.38,2.4,2.4,0,0,1,2,.38A2.45,2.45,0,0,1,35,92.45a3.61,3.61,0,0,1-.83,2.45l-3-2.05a1.44,1.44,0,0,0-.27,1,1.1,1.1,0,0,0,.49.78.93.93,0,0,0,.58.17A1.24,1.24,0,0,0,32.56,94.53Zm.9-1.18a1.53,1.53,0,0,0,.27-1,1,1,0,0,0-.45-.7,1,1,0,0,0-.85-.15,1.37,1.37,0,0,0-.79.61Z" style="fill:#667d93"></path><path d="M39.88,100.11,38.5,99.6l1.92-5.19,1.28.47-.28.74a2.38,2.38,0,0,1,.85-.47,1.12,1.12,0,0,1,.65,0,1.87,1.87,0,0,1,.81.6l-.87,1a1.27,1.27,0,0,0-.56-.47.8.8,0,0,0-.55,0,1.14,1.14,0,0,0-.52.46,8.7,8.7,0,0,0-.76,1.7Z" style="fill:#667d93"></path><path d="M50.07,96.93l-.19,1.15-1-.16-.36,2.2a4.91,4.91,0,0,0-.09.79.3.3,0,0,0,.1.2.41.41,0,0,0,.23.11,1.73,1.73,0,0,0,.6,0l-.05,1.14a2.9,2.9,0,0,1-1.18,0,1.78,1.78,0,0,1-.68-.25,1.07,1.07,0,0,1-.41-.41,1.31,1.31,0,0,1-.11-.6,6.2,6.2,0,0,1,.11-1l.39-2.38-.67-.11L47,96.43l.66.11.18-1.09,1.58-.61-.31,1.93Z" style="fill:#667d93"></path><path d="M53.82,96.4V95.05h1.46v1.35Zm0,6.28,0-5.53h1.46l0,5.53Z" style="fill:#667d93"></path><path d="M58.84,96.91l.8-.14-.07-.41a2.87,2.87,0,0,1,0-1,1.13,1.13,0,0,1,.44-.64,2,2,0,0,1,1-.38,4,4,0,0,1,1.24,0l0,1a3,3,0,0,0-.67,0,.62.62,0,0,0-.43.23.86.86,0,0,0,0,.58l.07.39,1.07-.18.2,1.13-1.08.18L62,102l-1.45.25-.73-4.32L59,98Z" style="fill:#667d93"></path><path d="M65.33,94.69l-.44-1.28,1.39-.48.44,1.28Zm2,5.94L65.58,95.4,67,94.92l1.79,5.23Z" style="fill:#667d93"></path><path d="M76.48,94.35l1.37-.56a2.37,2.37,0,0,1-.12,1.5,2.56,2.56,0,0,1-1.07,1.16,2.49,2.49,0,0,1-2.31.32,3.2,3.2,0,0,1-1.47-1.33,3,3,0,0,1-.52-2.21,2.33,2.33,0,0,1,1.13-1.62,2.48,2.48,0,0,1,2.09-.33A3.59,3.59,0,0,1,77.47,93L74.36,95a1.52,1.52,0,0,0,.83.68,1.13,1.13,0,0,0,.91-.14.86.86,0,0,0,.39-.46A1.19,1.19,0,0,0,76.48,94.35ZM75.77,93A1.39,1.39,0,0,0,75,92.4a1,1,0,0,0-1.31.83,1.35,1.35,0,0,0,.24,1Z" style="fill:#667d93"></path><path d="M87.05,87.26l-.92,1-.6-.55a2.26,2.26,0,0,1,0,1.07,2.14,2.14,0,0,1-.46.84,2.12,2.12,0,0,1-1.68.68,3.16,3.16,0,0,1-2-1,3.09,3.09,0,0,1-1.12-1.94,2.14,2.14,0,0,1,.6-1.72A2.07,2.07,0,0,1,82.47,85l-2-1.86,1-1.08Zm-4.77.9a2.46,2.46,0,0,0,1.11.69,1.11,1.11,0,0,0,1.36-1.26,2,2,0,0,0-.7-1.13,2.18,2.18,0,0,0-1.24-.68,1.09,1.09,0,0,0-.91.36,1.12,1.12,0,0,0-.29.93A1.9,1.9,0,0,0,82.28,88.16Z" style="fill:#667d93"></path></g></g></svg>