<svg xmlns="http://www.w3.org/2000/svg" id="Layer_2" data-name="Layer 2" viewBox="0 0 253.19 253.19"><defs><style> .cls-1 { fill: #fff; } .cls-2 { fill: #667d93; } .cls-3 { fill: #151b2c; } .cls-3, .cls-4 { stroke: #00bcfa; stroke-miterlimit: 10; stroke-width: 2.33px; } .cls-4 { fill: #252c40; } </style></defs><g id="Layer_1-2" data-name="Layer 1"><g id="a5c1d2ba-ac68-4123-ada3-6fdf49ea3924"><g id="bc6f9371-296b-4beb-8470-8c515d021843"><circle class="cls-4" cx="126.59" cy="126.59" r="125.43"></circle><circle class="cls-3" cx="126.59" cy="126.59" r="82.77"></circle><path class="cls-2" d="M168.55,144.85c-2.96,4.25-6.52,8.05-10.57,11.27-.14,.23-.56,.14-.7,0-1.72-1.09-3.61-1.98-5.26-3.07,2.25-2.55,4.27-5.3,6.03-8.22h-2.05c-1.69,2.65-3.63,5.13-5.8,7.4-2.95-1.26-5.97-2.34-9.06-3.21l-.33-.26c.63-1.31,1.18-2.66,1.65-4.03h-1.86l-1.89,3.68c-4.19-.85-8.44-1.4-12.71-1.65-.23-.61,0-1.49-.23-2.03h-1.79c-.14,.81,.21,1.42-.21,2.12-4.18,.17-8.35,.67-12.46,1.49l-1.89-3.56c-.64-.11-1.29-.11-1.93,0l1.72,4-.21,.21c-3.1,.9-6.15,1.96-9.13,3.19l-.28-.14c-1.95-2.1-3.74-4.35-5.33-6.73-.35-1.16-1.72-.47-2.49-.61,1.79,2.96,3.83,5.76,6.1,8.36-1.89,1.09-3.75,2.33-5.68,3.21-4.23-3.23-7.93-7.11-10.94-11.5-.73-.1-1.48-.1-2.21,0,5.2,7.93,12.38,14.35,20.84,18.63h0s.21,.14,0,.21c5.49,2.72,11.37,4.54,17.44,5.38,20.99,3.03,41.84-6.39,53.44-24.15-.74-.07-1.48-.07-2.21,0Zm-28.85,6.12l.21-.14c2.92,.62,5.75,1.57,8.45,2.84-2.31,2.46-4.89,4.66-7.68,6.54-1.61,.93-3.19,1.98-4.87,2.77l-2.96-1.28,.21-.47c2.46-3.25,4.68-6.69,6.64-10.27Zm-13.64-1.96c3.92,.04,7.82,.49,11.64,1.35v.21c-2.01,3.72-4.35,7.25-6.99,10.55-1.17-.05-2.33-.21-3.47-.47l-1.19-.14c-.14-4.05-.21-7.59,0-11.5Zm-13.34,1.23c3.68-.77,7.44-1.18,11.2-1.23v11.5c-1.44,.33-3.05,.33-4.42,.68-2.78-3.29-5.19-6.88-7.19-10.69l.42-.26Zm-11.15,3.66c2.72-1.26,5.55-2.26,8.45-2.98h.28c2.11,3.74,4.44,7.35,6.99,10.8-.98,.56-2.14,.88-3.12,1.42-4.68-2.31-8.94-5.39-12.6-9.1v-.14Zm8.94,11.64c-5.85-1.53-11.37-4.11-16.3-7.61v-.3c1.63-1.08,3.34-2.04,5.12-2.86,3.79,3.64,7.97,6.86,12.46,9.59-.37,.43-.8,.8-1.28,1.09v.09Zm25.61,.88c-7.53,1.62-15.31,1.57-22.82-.14-.14-.35,.33-.42,.54-.61,7.03-4.23,15.86-4.1,22.77,.33,.26,.33-.3,.19-.44,.33l-.05,.09Zm6.66-1.91l-3.26,1.02c-.55-.3-1.06-.66-1.51-1.09l.14-.21c4.46-2.63,8.58-5.8,12.25-9.45,1.89,.74,3.7,1.69,5.38,2.84-3.93,2.93-8.3,5.22-12.95,6.8l-.05,.09Z"></path><path class="cls-2" d="M81.17,87.38c1.7-2.38,3.56-4.63,5.59-6.73,1.65-1.72,3.46-3.28,5.4-4.66,1.79,1.14,3.82,2.12,5.54,3.19-2.21,2.56-4.2,5.29-5.96,8.17,.68,.18,1.39,.18,2.07,0,1.73-2.59,3.67-5.03,5.82-7.29,2.98,1.09,5.89,2.33,8.94,3.07l.26,.26-1.72,4.05c.66,.1,1.34,.1,2,0,.63-1.16,1.12-2.44,1.79-3.61,4.13,.88,8.33,1.38,12.55,1.49,.54,.49,0,1.49,.33,2.12h1.96c.19-.68,0-1.44,.19-2.05,4.06-.16,8.1-.69,12.06-1.58h.33l1.89,3.54c.61,.11,1.24,.1,1.84-.05l-1.75-3.93,.16-.14c3.17-.9,6.28-1.99,9.31-3.26,2.17,2.34,4.16,4.84,5.96,7.47,.69,.06,1.39,.02,2.07-.14-.86-1.52-1.86-2.95-2.98-4.28-.92-1.31-1.94-2.54-3.05-3.68v-.35l4.84-2.77,.7-.28c4.22,3.19,7.9,7.02,10.92,11.36,.84,0,1.54,.28,2.33,0-9.33-13.93-24.52-22.83-41.24-24.15v.14l-.14-.14c-2.04-.2-4.1-.2-6.15,0-.85-.07-1.71-.07-2.56,0-16.87,1.18-32.23,10.16-41.54,24.29,.74,.08,1.5,.06,2.24-.07Zm28.71-5.89h-.28c-2.81-.72-5.57-1.65-8.24-2.79l.14-.42c3.65-3.51,7.78-6.51,12.25-8.89,1.05,.42,2.07,.75,3.12,1.23l-.21,.54c-2.5,3.28-4.77,6.74-6.78,10.34Zm13.76,1.84c-1.87,.13-3.75,.06-5.61-.21-2.05-.21-4.08-.57-6.08-1.09,2.01-3.8,4.42-7.38,7.19-10.66l4.42,.61c.21,3.45,.07,7.52,.07,11.27v.09Zm2.14,0c-.12-3.61,0-7.64,0-11.36l4.31-.61c2.76,3.26,5.15,6.81,7.12,10.59-3.76,.9-7.61,1.35-11.48,1.35l.05,.02Zm22.1-4.77c-2.71,1.26-5.54,2.24-8.45,2.93-2.18-3.69-4.56-7.26-7.12-10.69,.95-.54,2.14-.93,3.19-1.49,4.62,2.37,8.85,5.44,12.53,9.1l-.14,.14Zm-8.87-11.64c5.86,1.51,11.38,4.09,16.3,7.61l-.14,.26-4.66,2.65h-.35c-3.7-3.61-7.84-6.74-12.32-9.31,0-.61,.68-.88,1.16-1.21Zm-2.77-.7v.14c-6.64,4.42-15.22,4.71-22.14,.75-.35-.26-1.02-.4-1.09-.88,7.65-1.75,15.59-1.75,23.24,0Zm-42.21,8.45c4.37-3.14,9.21-5.55,14.34-7.15,.21-.21,.33-.4,.61-.4v.14c.56,.12,.98-.49,1.47,0s.88,.63,1.23,.95c-4.47,2.73-8.63,5.95-12.39,9.59-1.87-.72-3.64-1.69-5.26-2.86v-.28Z"></path><path class="cls-1" d="M179.66,139.7c.96-.2,1.89-.51,2.77-.93l.47-.21c3.24-1.33,6.09-3.47,8.27-6.22,4.66-6.99,5.7-18.32,2.33-27.59-1.39-3.34-3.77-6.18-6.82-8.13-5.22-3.12-11.21-4.74-17.3-4.66-5.35-.14-10.65,1.06-15.41,3.49-4.86,2.65-8.27,7.33-9.31,12.76-1.12,5.17-2.86,17.98,5.17,25.78,7.33,6.43,18.63,8.57,29.69,5.52l.16,.19Zm-.54-14.3c-.52,2.43-2.2,4.44-4.49,5.38-1.48,.62-3.06,.93-4.66,.93-2.25,0-4.47-.55-6.45-1.63h-.16c-2.35-2-3.68-4.95-3.63-8.03v-1.28c-.51-4.89-.2-9.84,.93-14.62v-.12c1.7-4.38,6.75-4.66,8.41-4.89h.14c3.35-.34,6.66,.95,8.89,3.47h0c.95,1.67,1.45,3.55,1.44,5.47v5.08c.15,3.34,0,6.68-.47,9.99l.05,.26Z"></path><path class="cls-1" d="M57.88,92.46v8.99h.84c1.63,0,3.31,0,5.01,.19l1.56,.14v26.64l-.09,2.61-7.33,.14v8.68h29.43v-8.71h-1.47c-1.55,.04-3.11-.02-4.66-.19l-1.51-.19v-27.8l.98-1.37h6.59v-9.03h-26.47l-2.86-.09Z"></path><path class="cls-1" d="M106.83,137.75l1.19,.65c6.45,2.65,16.11,4.05,23.94,0,4.92-2.66,7.66-8.11,6.85-13.64-1.34-5.85-5.83-10.47-11.64-11.97l-18.39-5.33-1.65-.86c-1.1-.85-1.64-2.24-1.4-3.61v-.3l.16-.26c1.72-2.93,5.03-2.7,7.45-2.54h1.44c6.73,.93,11.43,3.31,14.32,7.24h8.06v-14.02h-7.43c.03,.68-.09,1.37-.35,2l-.72,1.75-5.08-2.56c-7.17-3-18.16-3.82-25.43,1.37-4.05,3.26-5.77,8.61-4.38,13.62,.88,4.82,5.84,8.27,9.8,9.76,3.49,1.23,7.19,2.33,10.78,3.38,3.1,.91,6.33,1.86,9.48,2.91h.14c1.45,.53,2.39,1.95,2.33,3.49-.18,1.2-.98,2.21-2.1,2.68l-.37,.14c-7.55,2.28-15.74,.28-21.37-5.24h0c-.34-.43-.64-.88-.91-1.35l-.21-.33h-7.5c-.14,5.82-.14,10.92,0,15.18h7.87l.19-4.45,2.33,1.07c.88,.28,1.75,.84,2.61,1.21Z"></path><path class="cls-2" d="M59.16,203.06l1.4,3.38c-1.55,.8-3.32,1.07-5.03,.75-3.8-1.15-6.3-4.77-6.01-8.73,.38-2.4,1.67-4.55,3.61-6.01,1.82-1.73,4.24-2.69,6.75-2.68,2.27,.14,4.36,1.25,5.75,3.05,1.3,1.44,1.98,3.34,1.89,5.29-.13,1.27-.58,2.48-1.33,3.52l-2.93-2.19c1.14-1.42,1.08-3.45-.14-4.8-.76-.96-1.92-1.53-3.14-1.54-1.63,.15-3.15,.87-4.31,2.03-1.4,.96-2.43,2.38-2.91,4-.21,1.19,.13,2.42,.93,3.33,.58,.72,1.41,1.19,2.33,1.3,1.1,.1,2.19-.14,3.14-.7Z"></path><path class="cls-2" d="M75.81,220.1l2.49,2.33c-.95,.73-2.11,1.14-3.31,1.19-1.25-.03-2.46-.43-3.47-1.16-1.69-.96-2.77-2.72-2.89-4.66,0-1.58,.49-3.12,1.42-4.4,.94-1.57,2.45-2.72,4.21-3.21,1.56-.37,3.21-.05,4.52,.88,1.5,.91,2.49,2.45,2.7,4.19,.08,2.07-.61,4.11-1.93,5.7l-6.99-4.77c-.48,.68-.7,1.5-.63,2.33,.1,.74,.51,1.41,1.14,1.82,.4,.28,.88,.42,1.37,.4,.5-.08,.96-.3,1.35-.63Zm2.1-2.75c.5-.67,.72-1.5,.63-2.33-.1-.67-.48-1.26-1.05-1.63-.57-.41-1.3-.54-1.98-.35-.77,.22-1.42,.73-1.82,1.42l4.21,2.89Z"></path><path class="cls-2" d="M92.86,233.09l-3.21-1.19,4.47-12.08,2.98,1.09-.65,1.72c.57-.51,1.25-.88,1.98-1.09,.49-.15,1.02-.15,1.51,0,.74,.28,1.39,.76,1.89,1.37l-2.03,2.33c-.32-.48-.77-.85-1.3-1.07-.41-.15-.87-.15-1.28,0-.51,.22-.93,.6-1.21,1.07-.73,1.25-1.32,2.56-1.77,3.93l-1.37,3.91Z"></path><path class="cls-2" d="M116.58,225.67l-.44,2.7-2.33-.37-.84,5.12c-.12,.6-.19,1.21-.21,1.82,0,.19,.09,.36,.23,.49,.15,.14,.33,.23,.54,.26,.46,.07,.93,.07,1.4,0l-.12,2.65c-.91,.18-1.84,.18-2.75,0-.56-.1-1.1-.29-1.58-.58-.4-.22-.73-.55-.95-.95-.19-.44-.28-.92-.26-1.4,.02-.78,.11-1.56,.26-2.33l.91-5.54-1.56-.26,.56-2.75,1.54,.23,.4-2.51,3.7-1.42-.72,4.49,2.24,.35Z"></path><path class="cls-2" d="M125.31,224.46v-3.14h3.4v3.14h-3.4Zm0,14.62v-12.88h3.4v12.9l-3.4-.02Z"></path><path class="cls-2" d="M137,225.64l1.86-.33-.16-.95c-.14-.77-.14-1.56,0-2.33,.15-.6,.52-1.13,1.02-1.49,.68-.5,1.49-.81,2.33-.88,.96-.15,1.93-.15,2.89,0v2.33c-.52-.07-1.04-.07-1.56,0-.39,.03-.75,.21-1,.51-.16,.44-.16,.91,0,1.35l.16,.91,2.49-.42,.47,2.63-2.51,.42,1.37,10.11-3.38,.58-1.7-10.06-1.91,.16-.37-2.54Z"></path><path class="cls-2" d="M152.11,220.48l-1.02-2.98,3.24-1.12,1.02,2.98-3.24,1.12Zm4.66,13.83l-4.07-12.18,3.31-1.12,4.17,12.2-3.4,1.09Z"></path><path class="cls-2" d="M178.08,219.68l3.17-1.3c.31,1.16,.22,2.39-.26,3.49-.53,1.14-1.4,2.09-2.49,2.7-1.56,1.12-3.57,1.4-5.38,.75-1.44-.64-2.64-1.73-3.42-3.1-1.04-1.5-1.47-3.34-1.21-5.15,.29-1.58,1.25-2.96,2.63-3.77,1.43-.97,3.21-1.25,4.87-.77,1.91,.75,3.47,2.18,4.4,4l-7.24,4.66c.42,.75,1.11,1.32,1.93,1.58,.72,.2,1.49,.08,2.12-.33,.42-.24,.74-.62,.91-1.07,.17-.56,.16-1.15-.02-1.7Zm-1.65-3.03c-.39-.71-1.03-1.25-1.79-1.51-1.32-.34-2.67,.44-3.01,1.76-.01,.06-.03,.11-.04,.17-.12,.82,.08,1.65,.56,2.33l4.28-2.75Z"></path><path class="cls-2" d="M202.69,203.18l-2.14,2.33-1.4-1.28c.2,.82,.2,1.67,0,2.49-.2,.72-.57,1.39-1.07,1.96-1,1.09-2.44,1.67-3.91,1.58-1.78-.18-3.44-1.01-4.66-2.33-1.4-1.13-2.33-2.74-2.61-4.52-.15-1.48,.36-2.94,1.4-4,.97-1,2.33-1.55,3.73-1.49l-4.66-4.33,2.33-2.51,12.99,12.11Zm-11.11,2.12c.7,.76,1.6,1.31,2.58,1.61,.93,.22,1.9-.08,2.54-.79,.53-.58,.76-1.37,.63-2.14-.22-1.05-.8-1.98-1.63-2.65-.77-.83-1.78-1.38-2.89-1.58-.8-.07-1.59,.25-2.12,.86-.54,.58-.78,1.36-.68,2.14,.22,1,.77,1.9,1.56,2.56Z"></path><g><path class="cls-1" d="M94.7,180.33h-4.39v-16.55c-1.6,1.5-3.5,2.61-5.67,3.33v-3.98c1.15-.38,2.39-1.09,3.73-2.13s2.27-2.27,2.77-3.66h3.56v23Z"></path><path class="cls-1" d="M109.87,180.33v-4.61h-9.38v-3.84l9.94-14.55h3.69v14.53h2.84v3.86h-2.84v4.61h-4.25Zm0-8.47v-7.83l-5.27,7.83h5.27Z"></path><path class="cls-1" d="M126.48,157.33c2.22,0,3.95,.79,5.2,2.38,1.49,1.88,2.23,4.98,2.23,9.33s-.75,7.45-2.25,9.34c-1.24,1.56-2.97,2.34-5.19,2.34s-4.03-.86-5.39-2.57c-1.36-1.71-2.05-4.77-2.05-9.16s.75-7.42,2.25-9.31c1.24-1.56,2.97-2.34,5.19-2.34Zm0,3.64c-.53,0-1.01,.17-1.42,.51-.42,.34-.74,.95-.97,1.82-.3,1.14-.45,3.05-.45,5.73s.14,4.53,.41,5.54c.27,1.01,.61,1.67,1.02,2.01,.41,.33,.88,.5,1.41,.5s1-.17,1.42-.51c.42-.34,.74-.95,.97-1.82,.3-1.12,.45-3.03,.45-5.72s-.14-4.53-.41-5.54c-.27-1-.61-1.68-1.02-2.02-.41-.34-.88-.51-1.41-.51Z"></path><path class="cls-1" d="M144.27,157.33c2.22,0,3.95,.79,5.2,2.38,1.49,1.88,2.23,4.98,2.23,9.33s-.75,7.45-2.25,9.34c-1.24,1.56-2.97,2.34-5.19,2.34s-4.03-.86-5.39-2.57c-1.36-1.71-2.05-4.77-2.05-9.16s.75-7.42,2.25-9.31c1.24-1.56,2.97-2.34,5.19-2.34Zm0,3.64c-.53,0-1.01,.17-1.42,.51-.42,.34-.74,.95-.97,1.82-.3,1.14-.45,3.05-.45,5.73s.14,4.53,.41,5.54c.27,1.01,.61,1.67,1.02,2.01,.41,.33,.88,.5,1.41,.5s1-.17,1.42-.51c.42-.34,.74-.95,.97-1.82,.3-1.12,.45-3.03,.45-5.72s-.14-4.53-.41-5.54c-.27-1-.61-1.68-1.02-2.02-.41-.34-.88-.51-1.41-.51Z"></path><path class="cls-1" d="M165.88,180.33h-4.39v-16.55c-1.6,1.5-3.5,2.61-5.67,3.33v-3.98c1.15-.38,2.39-1.09,3.73-2.13s2.27-2.27,2.77-3.66h3.56v23Z"></path></g></g></g><g><path class="cls-2" d="M32.47,161.32l-15.84,4.48-3.32-11.75,2.68-.76,2.42,8.55,3.51-.99-2.25-7.95,2.67-.75,2.25,7.95,4.31-1.22-2.5-8.85,2.67-.75,3.4,12.05Z"></path><path class="cls-2" d="M27.26,136.3l.42,3.13-6.03,.8c-1.28,.17-2.09,.35-2.45,.53s-.62,.44-.79,.77c-.17,.33-.22,.7-.17,1.13,.07,.54,.29,1.01,.64,1.4,.35,.39,.79,.63,1.3,.73,.51,.09,1.43,.05,2.75-.12l5.36-.71,.42,3.13-11.82,1.57-.39-2.91,1.74-.23c-1.47-.85-2.31-2.06-2.52-3.63-.09-.69-.05-1.34,.12-1.94,.17-.6,.43-1.08,.78-1.42,.35-.34,.76-.61,1.23-.79,.47-.18,1.17-.33,2.08-.45l7.35-.98Z"></path><path class="cls-2" d="M27.13,130.34l-11.92,4.83v-3.31s6.08-2.26,6.08-2.26l2.03-.66c-.52-.17-.86-.28-1.02-.32-.34-.1-.67-.22-1.01-.33l-6.09-2.26v-3.25s11.93,4.71,11.93,4.71v2.84Z"></path><path class="cls-2" d="M13.9,119.96l-2.91-.26,.29-3.14,2.91,.26-.29,3.14Zm13.49,1.23l-11.88-1.08,.29-3.14,11.88,1.08-.29,3.14Z"></path><path class="cls-2" d="M28.5,112.15l-.52,3.11-11.77-1.96,.48-2.89,1.67,.28c-.71-.63-1.16-1.16-1.34-1.59-.18-.44-.24-.91-.15-1.41,.12-.71,.43-1.36,.93-1.95l2.55,1.42c-.43,.47-.68,.93-.75,1.38-.07,.44-.01,.82,.18,1.17,.19,.34,.58,.65,1.18,.93,.6,.28,1.9,.58,3.9,.92l3.63,.6Z"></path><path class="cls-2" d="M23.32,105.78c-1.01-.28-1.91-.81-2.72-1.57s-1.33-1.67-1.57-2.72c-.24-1.05-.2-2.14,.12-3.26,.49-1.74,1.46-3,2.9-3.79,1.44-.79,3.02-.94,4.75-.46,1.74,.49,3.02,1.46,3.84,2.9,.83,1.44,1,3.01,.52,4.71-.3,1.05-.82,1.99-1.56,2.81-.74,.82-1.65,1.35-2.71,1.59-1.06,.24-2.25,.17-3.57-.2Zm1.04-3.07c1.14,.32,2.09,.3,2.84-.07s1.25-.95,1.47-1.74c.22-.79,.11-1.54-.34-2.25-.45-.71-1.26-1.22-2.41-1.55-1.12-.32-2.06-.29-2.82,.07s-1.25,.95-1.47,1.74c-.22,.79-.11,1.54,.34,2.26,.45,.71,1.25,1.23,2.39,1.55Z"></path><path class="cls-2" d="M37.6,83.83l-1.26,2.89-5.58-2.43c-1.18-.51-1.97-.78-2.37-.81-.4-.03-.76,.06-1.07,.25-.31,.2-.55,.49-.72,.88-.22,.5-.28,1.01-.18,1.53,.1,.52,.35,.95,.74,1.29,.39,.34,1.2,.78,2.42,1.31l4.95,2.15-1.26,2.89-10.94-4.76,1.17-2.69,1.61,.7c-.82-1.49-.92-2.96-.29-4.41,.28-.64,.65-1.17,1.11-1.6,.46-.43,.93-.7,1.4-.82,.47-.12,.96-.13,1.46-.04,.5,.09,1.17,.32,2.02,.69l6.8,2.96Z"></path><path class="cls-2" d="M28.46,75.15l1.58-2.44,1.37,.89c-.5-1.56-.35-2.95,.43-4.15,.42-.64,.91-1.11,1.48-1.41,.57-.3,1.22-.43,1.95-.38-.25-.79-.34-1.52-.27-2.2,.07-.68,.29-1.31,.66-1.89,.48-.73,1.03-1.26,1.66-1.57,.63-.31,1.31-.41,2.05-.29,.54,.1,1.29,.45,2.25,1.07l6.39,4.16-1.72,2.65-5.71-3.72c-.99-.65-1.69-.97-2.1-.98-.54,0-.97,.25-1.3,.76-.24,.37-.35,.79-.34,1.27s.19,.92,.53,1.35c.34,.43,.99,.95,1.93,1.56l4.8,3.12-1.72,2.65-5.48-3.56c-.97-.63-1.63-.99-1.97-1.08-.34-.09-.65-.08-.92,.03-.27,.11-.51,.33-.73,.67-.26,.41-.39,.85-.39,1.31,0,.47,.17,.91,.49,1.32s.96,.93,1.92,1.55l4.86,3.16-1.72,2.65-10-6.5Z"></path><path class="cls-2" d="M51.66,57.46l2.51-1.97c.58,1.07,.8,2.14,.66,3.19-.14,1.05-.65,2.06-1.53,3.03-1.4,1.53-2.93,2.21-4.6,2.04-1.33-.15-2.61-.78-3.83-1.89-1.46-1.33-2.26-2.75-2.39-4.27-.13-1.52,.33-2.86,1.39-4.03,1.19-1.31,2.57-1.95,4.13-1.92,1.56,.03,3.21,.87,4.97,2.53l-5.32,5.85c.71,.61,1.42,.92,2.13,.9,.71,0,1.31-.28,1.8-.82,.33-.37,.51-.76,.54-1.19,.03-.43-.12-.91-.45-1.44Zm-2.24-2.28c-.69-.6-1.36-.89-2.02-.88-.65,.01-1.2,.26-1.63,.73-.46,.51-.66,1.1-.59,1.77,.07,.67,.43,1.29,1.07,1.87l3.17-3.49Z"></path><path class="cls-2" d="M66.46,49.14l-2.41,2.04-3.93-4.65c-.83-.98-1.42-1.58-1.77-1.78-.35-.2-.7-.28-1.07-.25-.37,.04-.71,.19-1.04,.47-.42,.35-.7,.78-.83,1.29-.14,.51-.11,1,.09,1.49,.2,.48,.72,1.23,1.58,2.25l3.49,4.12-2.41,2.04-7.7-9.1,2.24-1.89,1.13,1.34c-.08-1.7,.49-3.06,1.69-4.08,.53-.45,1.1-.77,1.7-.95,.6-.18,1.14-.22,1.62-.11,.48,.11,.92,.31,1.33,.61,.41,.3,.91,.81,1.5,1.51l4.79,5.66Z"></path><path class="cls-2" d="M66.61,34.65l1.41,2.08-1.78,1.21,2.7,3.98c.55,.8,.88,1.26,1.01,1.37,.12,.11,.28,.17,.46,.17,.18,0,.36-.05,.53-.17,.24-.16,.54-.49,.88-.96l1.6,1.87c-.43,.67-1.03,1.27-1.8,1.79-.47,.32-.95,.53-1.43,.63-.48,.1-.9,.08-1.25-.05-.35-.13-.7-.39-1.06-.77-.26-.27-.71-.86-1.33-1.78l-2.92-4.3-1.2,.81-1.42-2.08,1.2-.81-1.33-1.96,1.58-3.3,2.37,3.48,1.78-1.21Z"></path><path class="cls-2" d="M72.88,35.14l-2.76,.93c-.27-1.17-.2-2.18,.22-3.04,.42-.86,1.31-1.67,2.67-2.42,1.23-.68,2.23-1.04,3-1.08s1.39,.1,1.89,.41c.49,.31,1.07,1.07,1.73,2.27l1.75,3.24c.5,.92,.92,1.57,1.25,1.96,.33,.39,.75,.76,1.27,1.13l-2.73,1.51c-.17-.14-.41-.37-.72-.67-.14-.14-.23-.23-.28-.27-.22,.72-.54,1.34-.95,1.87-.41,.53-.92,.96-1.53,1.29-1.08,.59-2.08,.77-3.03,.52-.94-.24-1.66-.81-2.15-1.7-.33-.59-.47-1.19-.45-1.81,.03-.62,.23-1.19,.6-1.72,.37-.53,.99-1.14,1.84-1.85,1.16-.95,1.93-1.67,2.31-2.16l-.15-.28c-.29-.53-.63-.84-1.02-.92-.39-.08-.94,.08-1.67,.48-.49,.27-.82,.58-.99,.92-.17,.35-.21,.81-.11,1.39Zm4.93,.21c-.29,.31-.77,.76-1.45,1.35-.68,.59-1.09,1.02-1.24,1.31-.22,.45-.22,.88,0,1.27,.21,.39,.54,.64,.99,.76,.44,.12,.89,.06,1.33-.18,.5-.27,.88-.7,1.16-1.28,.2-.43,.25-.86,.16-1.28-.06-.28-.27-.74-.63-1.41l-.3-.55Z"></path><path class="cls-2" d="M85.84,37.82l-6.53-15.11,2.9-1.25,6.53,15.11-2.9,1.25Z"></path><path class="cls-2" d="M96.99,33.26l-3.63-16.06,4.85-1.1,5.39,10.29,.4-11.61,4.86-1.1,3.63,16.06-3.01,.68-2.86-12.64-.33,13.36-3.12,.71-6.04-11.92,2.86,12.64-3.01,.68Z"></path><path class="cls-2" d="M116.99,21.18l-2.89-.32c.24-1.17,.74-2.06,1.49-2.67,.75-.61,1.89-.96,3.44-1.06,1.4-.09,2.46,0,3.17,.29,.71,.29,1.22,.68,1.54,1.17,.31,.49,.52,1.42,.61,2.79l.21,3.68c.07,1.05,.17,1.81,.31,2.3,.13,.49,.36,1.01,.67,1.56l-3.11,.21c-.1-.2-.22-.51-.37-.91-.06-.18-.11-.3-.14-.36-.5,.56-1.05,.99-1.65,1.29-.6,.3-1.24,.48-1.93,.52-1.23,.08-2.21-.19-2.96-.8-.75-.62-1.16-1.43-1.23-2.45-.04-.67,.08-1.28,.36-1.83,.28-.55,.71-.98,1.27-1.3,.56-.32,1.38-.62,2.46-.9,1.45-.38,2.46-.7,3.01-.98l-.02-.31c-.04-.6-.22-1.03-.53-1.26-.32-.24-.89-.33-1.72-.27-.56,.04-.99,.18-1.29,.42-.3,.24-.53,.65-.68,1.21Zm4.38,2.27c-.39,.16-1.02,.37-1.88,.61-.86,.25-1.42,.47-1.68,.66-.39,.32-.57,.7-.54,1.15,.03,.44,.22,.81,.57,1.11,.35,.3,.78,.43,1.29,.4,.57-.04,1.1-.26,1.59-.67,.36-.31,.59-.67,.68-1.09,.06-.27,.07-.79,.02-1.54l-.04-.63Z"></path><path class="cls-2" d="M138.28,29.61l-3.15-.2,.38-6.07c.08-1.29,.07-2.12-.04-2.51-.11-.39-.31-.69-.6-.92-.29-.23-.65-.36-1.07-.38-.55-.03-1.04,.08-1.5,.36s-.77,.65-.97,1.13c-.19,.48-.33,1.39-.41,2.72l-.34,5.39-3.15-.2,.75-11.9,2.93,.19-.11,1.75c1.12-1.28,2.47-1.87,4.05-1.77,.69,.04,1.32,.21,1.88,.5s.97,.63,1.25,1.04c.27,.41,.45,.86,.53,1.36,.08,.5,.1,1.21,.04,2.13l-.47,7.4Z"></path><path class="cls-2" d="M144.85,22.31l-2.71-1.05c.54-1.07,1.24-1.8,2.12-2.2,.88-.39,2.08-.44,3.6-.15,1.38,.27,2.38,.63,2.99,1.09,.61,.46,1.01,.97,1.18,1.52,.18,.56,.13,1.51-.13,2.85l-.74,3.61c-.2,1.03-.3,1.8-.29,2.31s.09,1.07,.25,1.68l-3.06-.6c-.04-.22-.08-.55-.12-.97-.01-.19-.03-.32-.04-.38-.63,.41-1.27,.69-1.92,.83s-1.32,.14-2,.01c-1.21-.24-2.09-.75-2.66-1.54-.57-.79-.75-1.68-.56-2.68,.13-.66,.4-1.22,.82-1.68,.42-.46,.94-.77,1.56-.93,.62-.16,1.49-.25,2.6-.24,1.5,.01,2.55-.05,3.16-.17l.06-.31c.12-.6,.05-1.05-.19-1.36-.24-.31-.77-.55-1.59-.71-.55-.11-1-.08-1.35,.07-.35,.16-.68,.49-.97,.99Zm3.66,3.32c-.42,.06-1.08,.09-1.98,.11-.89,.02-1.49,.09-1.79,.21-.46,.21-.73,.53-.82,.97-.08,.43,0,.84,.27,1.22,.26,.38,.64,.62,1.14,.71,.56,.11,1.13,.03,1.71-.24,.43-.21,.74-.5,.94-.88,.13-.25,.27-.74,.41-1.49l.12-.62Z"></path><path class="cls-2" d="M152.46,33.14l3.28,1.55c-.08,.42-.04,.73,.12,.95,.21,.31,.62,.56,1.24,.77,.78,.26,1.41,.34,1.88,.23,.31-.07,.6-.25,.85-.56,.17-.22,.37-.66,.6-1.33l.55-1.65c-1.3,.92-2.64,1.16-4,.7-1.52-.51-2.51-1.55-2.97-3.13-.36-1.25-.28-2.63,.22-4.14,.63-1.9,1.57-3.19,2.82-3.89,1.25-.7,2.55-.82,3.9-.37,1.4,.47,2.35,1.47,2.85,3l.53-1.59,2.8,.93-3.38,10.16c-.44,1.33-.89,2.3-1.33,2.88-.44,.59-.92,1-1.45,1.25-.52,.24-1.15,.36-1.89,.35-.74,0-1.61-.18-2.63-.52-1.92-.64-3.17-1.42-3.75-2.34-.58-.92-.71-1.89-.37-2.9,.03-.1,.08-.22,.13-.36Zm4.88-5.75c-.4,1.2-.46,2.16-.18,2.87,.28,.71,.76,1.18,1.44,1.41,.73,.24,1.44,.16,2.14-.24,.69-.4,1.23-1.17,1.6-2.29,.39-1.17,.44-2.12,.14-2.85-.29-.73-.81-1.22-1.55-1.46-.72-.24-1.4-.16-2.05,.25-.65,.4-1.17,1.18-1.55,2.32Z"></path><path class="cls-2" d="M173.64,36.57l2.6,1.84c-.87,.86-1.82,1.37-2.87,1.54-1.05,.16-2.16-.04-3.34-.61-1.87-.9-2.95-2.18-3.26-3.83-.23-1.32,0-2.72,.73-4.21,.86-1.78,2-2.95,3.42-3.51,1.42-.56,2.84-.49,4.26,.2,1.6,.77,2.6,1.91,3.02,3.41,.41,1.5,.07,3.33-1.02,5.49l-7.12-3.44c-.39,.85-.48,1.62-.26,2.3,.21,.68,.64,1.18,1.3,1.5,.45,.21,.88,.27,1.3,.18,.42-.1,.84-.38,1.25-.84Zm1.55-2.79c.38-.83,.47-1.56,.27-2.18-.2-.62-.59-1.08-1.17-1.36-.62-.3-1.24-.32-1.87-.07-.62,.26-1.12,.77-1.49,1.55l4.25,2.05Z"></path><path class="cls-2" d="M183.43,32.3l2.38,1.67-.93,1.33c1.58-.44,2.96-.25,4.13,.58,.63,.44,1.08,.95,1.36,1.53,.28,.58,.38,1.23,.31,1.96,.79-.22,1.53-.29,2.21-.2,.68,.09,1.3,.33,1.86,.73,.72,.5,1.22,1.07,1.52,1.71,.29,.64,.36,1.33,.21,2.06-.11,.54-.5,1.28-1.15,2.21l-4.38,6.25-2.58-1.81,3.91-5.58c.68-.97,1.03-1.66,1.05-2.06,.02-.54-.22-.98-.72-1.33-.36-.25-.78-.38-1.25-.38-.47,0-.93,.16-1.37,.49s-.98,.95-1.63,1.87l-3.29,4.69-2.58-1.81,3.75-5.35c.67-.95,1.05-1.6,1.15-1.94,.1-.34,.1-.65,0-.92-.1-.27-.31-.52-.65-.75-.4-.28-.83-.42-1.3-.43-.47,0-.92,.14-1.34,.45-.42,.31-.96,.93-1.62,1.87l-3.32,4.75-2.58-1.81,6.84-9.77Z"></path><path class="cls-2" d="M200.28,56.08l1.88,2.57c-1.09,.54-2.17,.73-3.21,.55-1.05-.18-2.04-.72-2.97-1.64-1.49-1.45-2.11-3-1.88-4.67,.2-1.33,.87-2.58,2.02-3.77,1.38-1.42,2.83-2.16,4.35-2.24,1.52-.08,2.85,.43,3.98,1.53,1.27,1.24,1.86,2.63,1.78,4.19-.08,1.56-.99,3.18-2.7,4.88l-5.66-5.52c-.64,.69-.96,1.38-.98,2.1s.24,1.32,.76,1.83c.35,.34,.75,.54,1.17,.58,.43,.04,.92-.09,1.46-.4Zm2.35-2.16c.62-.67,.94-1.33,.95-1.99,0-.65-.22-1.21-.68-1.65-.49-.48-1.08-.7-1.75-.65-.67,.05-1.3,.38-1.9,1l3.38,3.29Z"></path><path class="cls-2" d="M208.1,71.16l-1.96-2.48,4.78-3.77c1.01-.8,1.62-1.37,1.84-1.71,.21-.34,.31-.69,.29-1.06-.02-.37-.17-.72-.43-1.05-.34-.43-.76-.72-1.26-.88-.5-.15-1-.14-1.49,.04-.49,.18-1.26,.68-2.3,1.51l-4.24,3.35-1.95-2.48,9.37-7.39,1.81,2.3-1.38,1.08c1.7-.02,3.04,.59,4.02,1.83,.43,.55,.73,1.12,.89,1.73,.16,.61,.18,1.15,.06,1.62-.12,.47-.34,.91-.66,1.31-.32,.4-.84,.88-1.56,1.45l-5.82,4.59Z"></path><path class="cls-2" d="M222.57,71.8l-2.13,1.34-1.15-1.82-4.06,2.57c-.82,.52-1.29,.84-1.41,.96-.12,.12-.18,.27-.19,.45-.01,.18,.04,.36,.15,.53,.16,.25,.47,.55,.93,.91l-1.93,1.53c-.66-.45-1.23-1.07-1.73-1.86-.3-.48-.5-.97-.58-1.45-.08-.49-.05-.9,.09-1.25,.14-.34,.41-.69,.8-1.03,.27-.25,.88-.68,1.83-1.27l4.4-2.78-.77-1.22,2.13-1.34,.77,1.23,2-1.27,3.25,1.7-3.56,2.25,1.15,1.82Z"></path><path class="cls-2" d="M220.97,82.29l1.53,2.87c-.93,.59-1.51,1.26-1.76,2.01-.24,.74-.17,1.58,.22,2.52,.41,.99,.93,1.65,1.55,1.98,.62,.33,1.22,.38,1.78,.14,.36-.15,.62-.38,.79-.7,.16-.32,.23-.77,.2-1.38-.03-.41-.14-1.32-.35-2.73-.27-1.82-.25-3.18,.07-4.09,.45-1.28,1.28-2.17,2.48-2.67,.77-.32,1.59-.4,2.45-.24s1.63,.58,2.33,1.26c.69,.68,1.28,1.61,1.77,2.77,.79,1.91,.97,3.52,.53,4.83-.44,1.31-1.34,2.28-2.72,2.91l-1.41-3.02c.73-.45,1.17-.97,1.34-1.54,.16-.57,.07-1.29-.29-2.16-.37-.89-.84-1.51-1.42-1.87-.37-.23-.75-.26-1.15-.1-.36,.15-.6,.43-.73,.84-.17,.52-.11,1.6,.15,3.24,.27,1.64,.36,2.9,.28,3.77-.08,.87-.37,1.65-.85,2.32-.49,.67-1.21,1.21-2.17,1.61-.87,.36-1.79,.46-2.75,.29-.96-.17-1.81-.62-2.55-1.35-.74-.73-1.38-1.76-1.93-3.08-.79-1.92-.96-3.58-.5-4.98,.46-1.4,1.5-2.55,3.12-3.45Z"></path><path class="cls-2" d="M232.9,94.41l.85,3.25-7.47,4.9,8.9,.55,.83,3.16-12.17-1.17-2.2-.2c-.74-.09-1.32-.21-1.74-.36-.42-.15-.78-.35-1.08-.61-.3-.26-.58-.6-.82-1.03-.24-.43-.44-.93-.59-1.51-.15-.59-.24-1.18-.27-1.78l2.32-.9c.03,.5,.1,.95,.2,1.33,.19,.71,.53,1.18,1.04,1.41,.5,.23,1.1,.35,1.8,.37l10.42-7.42Z"></path><path class="cls-2" d="M227.92,109.27l.89,3.08c-.59,.21-1.02,.55-1.28,1-.26,.45-.34,1.04-.25,1.78,.11,.81,.34,1.4,.69,1.77,.25,.25,.54,.35,.89,.3,.24-.03,.42-.13,.56-.3,.13-.18,.22-.54,.27-1.1,.22-2.6,.52-4.26,.89-5,.51-1.02,1.34-1.6,2.48-1.75,1.02-.14,1.94,.15,2.74,.87,.8,.72,1.32,1.93,1.54,3.62,.21,1.62,.11,2.86-.31,3.71-.42,.86-1.13,1.5-2.12,1.94l-.94-2.88c.44-.19,.77-.47,.96-.86,.2-.38,.25-.9,.17-1.56-.11-.82-.3-1.4-.58-1.72-.2-.22-.42-.31-.68-.27-.22,.03-.4,.16-.53,.39-.17,.31-.33,1.32-.49,3.04-.16,1.72-.47,2.94-.93,3.67-.47,.73-1.2,1.16-2.2,1.29-1.08,.14-2.08-.19-2.97-.99-.9-.8-1.47-2.09-1.7-3.86-.21-1.61-.06-2.93,.47-3.95s1.33-1.76,2.42-2.19Z"></path><path class="cls-2" d="M238.14,128.19l-2.51,.08-.07-2.16-4.8,.16c-.97,.03-1.54,.07-1.7,.12-.16,.05-.29,.14-.39,.29-.1,.15-.15,.33-.14,.54,0,.29,.12,.71,.34,1.26l-2.44,.35c-.34-.72-.52-1.55-.55-2.48-.02-.57,.06-1.08,.24-1.55,.18-.46,.41-.81,.71-1.03,.3-.22,.7-.38,1.21-.48,.36-.08,1.1-.14,2.22-.17l5.2-.17-.05-1.45,2.51-.08,.05,1.45,2.37-.08,1.94,3.11-4.21,.14,.07,2.15Z"></path><path class="cls-2" d="M229.59,137.54l-.74,3.1c-1.12-.48-1.96-1.18-2.5-2.09-.54-.91-.77-2.02-.68-3.33,.14-2.07,.92-3.56,2.33-4.46,1.13-.71,2.53-1.01,4.18-.9,1.97,.13,3.48,.75,4.53,1.86,1.05,1.1,1.52,2.45,1.42,4.02-.12,1.77-.8,3.13-2.03,4.07-1.24,.95-3.06,1.31-5.47,1.11l.53-7.89c-.94-.04-1.68,.17-2.23,.62-.55,.45-.85,1.04-.9,1.76-.03,.49,.08,.92,.32,1.27,.25,.35,.66,.64,1.25,.85Zm3.17,.39c.91,.04,1.62-.15,2.13-.57,.5-.42,.78-.95,.82-1.59,.05-.69-.17-1.27-.64-1.75-.47-.48-1.14-.75-2-.8l-.31,4.71Z"></path><path class="cls-2" d="M237.21,145l-.65,2.83-1.59-.37c1,1.3,1.34,2.65,1.01,4.05-.17,.74-.47,1.35-.91,1.83-.43,.48-1,.82-1.7,1.03,.5,.65,.84,1.31,1.01,1.97,.17,.66,.18,1.33,.02,2-.2,.85-.54,1.54-1.02,2.05-.48,.51-1.09,.83-1.83,.97-.54,.1-1.37,.02-2.48-.24l-7.43-1.71,.71-3.07,6.64,1.53c1.15,.27,1.92,.33,2.31,.2,.5-.18,.82-.57,.96-1.16,.1-.43,.06-.87-.11-1.31-.18-.44-.5-.8-.97-1.09-.47-.28-1.25-.55-2.34-.81l-5.58-1.29,.71-3.08,6.37,1.47c1.13,.26,1.87,.37,2.23,.34,.35-.03,.64-.15,.85-.34,.21-.19,.37-.49,.46-.88,.11-.47,.08-.93-.09-1.37s-.47-.79-.92-1.07c-.44-.27-1.22-.54-2.34-.8l-5.65-1.3,.71-3.07,11.62,2.68Z"></path></g></g></svg>