<svg xmlns="http://www.w3.org/2000/svg" viewBox="0 0 108.74 108.74"><g id="fa0fda06-b949-4be6-abdc-03c5afa35204" data-name="Layer 2"><g id="a489d7b8-fa91-4b5d-a4f6-2a9548f2b5e9" data-name="Layer 1"><circle cx="54.37" cy="54.37" r="53.87" style="fill:#252c40;stroke:#00bcfa;stroke-miterlimit:10"></circle><circle cx="54.37" cy="54.37" r="35.55" style="fill:#151b2c;stroke:#00bcfa;stroke-miterlimit:10"></circle><path d="M72.39,62.21a22.92,22.92,0,0,1-4.54,4.84c-.06.1-.24.06-.3,0-.74-.47-1.55-.85-2.26-1.32a24.4,24.4,0,0,0,2.59-3.53H67a20.73,20.73,0,0,1-2.49,3.18A32.39,32.39,0,0,0,60.62,64l-.14-.11a16.61,16.61,0,0,0,.71-1.73h-.8l-.81,1.58a38.66,38.66,0,0,0-5.46-.71c-.1-.26,0-.64-.1-.87h-.77c-.06.35.09.61-.09.91a34.47,34.47,0,0,0-5.35.64L47,62.18a2.47,2.47,0,0,0-.83,0l.74,1.72-.09.09a37.85,37.85,0,0,0-3.92,1.37l-.12-.06a23.24,23.24,0,0,1-2.29-2.89c-.15-.5-.74-.2-1.07-.26a25.5,25.5,0,0,0,2.62,3.59c-.81.47-1.61,1-2.44,1.38a21.61,21.61,0,0,1-4.7-4.94,3.36,3.36,0,0,0-.95,0,23.26,23.26,0,0,0,8.95,8,0,0,0,0,1,0,0s.09.06,0,.09a24.44,24.44,0,0,0,7.49,2.31A23.42,23.42,0,0,0,73.34,62.21,5,5,0,0,0,72.39,62.21ZM60,64.84l.09-.06A16.73,16.73,0,0,1,63.72,66a19.35,19.35,0,0,1-3.3,2.81c-.69.4-1.37.85-2.09,1.19l-1.27-.55.09-.2A35.55,35.55,0,0,0,60,64.84ZM54.14,64a23.8,23.8,0,0,1,5,.58l0,.09a30.37,30.37,0,0,1-3,4.53A8.4,8.4,0,0,1,54.65,69l-.51-.06C54.08,67.2,54.05,65.68,54.14,64Zm-5.73.53A25.13,25.13,0,0,1,53.22,64l0,4.94c-.62.14-1.31.14-1.9.29a25.64,25.64,0,0,1-3.09-4.59Zm-4.79,1.57a20.05,20.05,0,0,1,3.63-1.28l.12,0a45.23,45.23,0,0,0,3,4.64c-.42.24-.92.38-1.34.61a20,20,0,0,1-5.41-3.91Zm3.84,5a21.34,21.34,0,0,1-7-3.27V67.7a16.42,16.42,0,0,1,2.2-1.23,30.83,30.83,0,0,0,5.35,4.12A2.44,2.44,0,0,1,47.46,71.06Zm11,.38a22.66,22.66,0,0,1-9.8-.06c-.06-.15.14-.18.23-.26a9.27,9.27,0,0,1,9.78.14C58.78,71.44,58.54,71.38,58.48,71.44Zm2.86-.82-1.4.44a3,3,0,0,1-.65-.47l.06-.09a26.63,26.63,0,0,0,5.26-4.06A11.64,11.64,0,0,1,66.9,67.7,20.13,20.13,0,0,1,61.34,70.62Z" style="fill:#667d93"></path><path d="M34.86,37.53a25.71,25.71,0,0,1,2.4-2.89,16.09,16.09,0,0,1,2.32-2c.77.49,1.64.91,2.38,1.37a26.38,26.38,0,0,0-2.56,3.51,1.78,1.78,0,0,0,.89,0,23.18,23.18,0,0,1,2.5-3.13c1.28.47,2.53,1,3.84,1.32l.11.11L46,37.56a2.76,2.76,0,0,0,.86,0c.27-.5.48-1.05.77-1.55a29.65,29.65,0,0,0,5.39.64c.23.21,0,.64.14.91H54c.08-.29,0-.62.08-.88A28.36,28.36,0,0,0,59.26,36l.14,0,.81,1.52A1.88,1.88,0,0,0,61,37.5l-.75-1.69.07-.06a35,35,0,0,0,4-1.4,27.72,27.72,0,0,1,2.56,3.21,2.79,2.79,0,0,0,.89-.06,12.34,12.34,0,0,0-1.28-1.84,12.61,12.61,0,0,0-1.31-1.58v-.15l2.08-1.19.3-.12a21.49,21.49,0,0,1,4.69,4.88c.36,0,.66.12,1,0A23.54,23.54,0,0,0,55.54,27.13l0,.06-.06-.06a13.64,13.64,0,0,0-2.64,0,6.89,6.89,0,0,0-1.1,0A23.31,23.31,0,0,0,33.9,37.56,3.44,3.44,0,0,0,34.86,37.53ZM47.19,35l-.12,0a24.56,24.56,0,0,1-3.54-1.2l.06-.18a23.67,23.67,0,0,1,5.26-3.82c.45.18.89.32,1.34.53l-.09.23A37.28,37.28,0,0,0,47.19,35Zm5.91.79a11.47,11.47,0,0,1-2.41-.09,17,17,0,0,1-2.61-.47,25.93,25.93,0,0,1,3.09-4.58l1.9.26C53.16,32.39,53.1,34.14,53.1,35.75Zm.92,0c-.05-1.55,0-3.28,0-4.88l1.85-.26a24.68,24.68,0,0,1,3.06,4.55A21.28,21.28,0,0,1,54,35.78Zm9.49-2.05A19.15,19.15,0,0,1,59.88,35a50.13,50.13,0,0,0-3.06-4.59c.41-.23.92-.4,1.37-.64a21.46,21.46,0,0,1,5.38,3.91Zm-3.81-5a21.08,21.08,0,0,1,7,3.27l-.06.11-2,1.14h-.15a26.54,26.54,0,0,0-5.29-4C59.2,29,59.49,28.88,59.7,28.74Zm-1.19-.3v.06a9.05,9.05,0,0,1-9.51.32c-.15-.11-.44-.17-.47-.38A22.41,22.41,0,0,1,58.51,28.44ZM40.38,32.07A21.49,21.49,0,0,1,46.54,29c.09-.09.14-.17.26-.17v.06c.24.05.42-.21.63,0s.38.27.53.41a30.3,30.3,0,0,0-5.32,4.12,10,10,0,0,1-2.26-1.23Z" style="fill:#667d93"></path><path d="M12.66,64.41,5.74,65.85l-.29-1.4L12.37,63Z" style="fill:#667d93"></path><path d="M11.62,57.22l.14,1.35-2.6.27A4.41,4.41,0,0,0,8.1,59a.84.84,0,0,0-.35.32.84.84,0,0,0-.08.48,1.09,1.09,0,0,0,.26.61,1,1,0,0,0,.55.33,4.26,4.26,0,0,0,1.18,0L12,60.51l.14,1.35L7,62.4l-.13-1.25.75-.08a2,2,0,0,1-1-1.59,2.07,2.07,0,0,1,.07-.83,1.44,1.44,0,0,1,.35-.6,1.67,1.67,0,0,1,.54-.33,4.37,4.37,0,0,1,.9-.17Z" style="fill:#667d93"></path><path d="M6.51,56.62v-.75H6.12a2.56,2.56,0,0,1-1-.14,1,1,0,0,1-.52-.51,1.88,1.88,0,0,1-.2-.93,3.66,3.66,0,0,1,.17-1.14l.95.19a2.25,2.25,0,0,0-.08.62.51.51,0,0,0,.14.42.74.74,0,0,0,.52.13h.37v-1H7.57v1h4.06v1.35H7.57v.76Z" style="fill:#667d93"></path><path d="M9,52.91a2.68,2.68,0,0,1-1.26-.46,2.28,2.28,0,0,1-.86-1A2.81,2.81,0,0,1,6.66,50a2.57,2.57,0,0,1,1-1.82,2.61,2.61,0,0,1,2-.54,2.61,2.61,0,0,1,1.83,1,2.52,2.52,0,0,1,.56,2,3,3,0,0,1-.45,1.3,2.23,2.23,0,0,1-1,.87A3,3,0,0,1,9,52.91Zm.22-1.37a1.73,1.73,0,0,0,1.2-.24,1.12,1.12,0,0,0,.49-.84,1.15,1.15,0,0,0-.3-.93,1.72,1.72,0,0,0-1.14-.48,1.72,1.72,0,0,0-1.19.24,1.18,1.18,0,0,0-.18,1.77A1.65,1.65,0,0,0,9.19,51.54Z" style="fill:#667d93"></path><path d="M12.65,45.81l-.3,1.33-5-1.1.27-1.23.71.16a2.28,2.28,0,0,1-.54-.72,1,1,0,0,1,0-.61,1.7,1.7,0,0,1,.44-.81l1.06.66a1.18,1.18,0,0,0-.35.57.79.79,0,0,0,.05.51,1.05,1.05,0,0,0,.49.42,7.15,7.15,0,0,0,1.65.48Z" style="fill:#667d93"></path><path d="M8.23,41.81l.43-1.17.66.25a2,2,0,0,1-.2-1.78,1.67,1.67,0,0,1,.48-.73,1.58,1.58,0,0,1,.78-.34,2.42,2.42,0,0,1-.31-.9,1.75,1.75,0,0,1,.1-.85,1.78,1.78,0,0,1,.55-.82,1.41,1.41,0,0,1,.83-.31,3,3,0,0,1,1,.24l3.06,1.15-.47,1.27-2.74-1a2.22,2.22,0,0,0-1-.21A.65.65,0,0,0,11,37a.89.89,0,0,0,0,.56.93.93,0,0,0,.35.52,3.3,3.3,0,0,0,.95.47l2.3.87-.47,1.27-2.63-1a4.5,4.5,0,0,0-.93-.27.65.65,0,0,0-.38.1.73.73,0,0,0-.24.35.92.92,0,0,0,0,.59.85.85,0,0,0,.33.5,3.52,3.52,0,0,0,.95.48l2.33.87L13,43.61Z" style="fill:#667d93"></path><path d="M13.66,33l-.8,1a1.85,1.85,0,0,1-.6-1.16,2.62,2.62,0,0,1,.43-1.49,3.21,3.21,0,0,1,.86-1.06,1.36,1.36,0,0,1,.78-.28,2.78,2.78,0,0,1,1.14.45l1.37.79a5,5,0,0,0,.9.44,2.81,2.81,0,0,0,.71.13l-.66,1.16-.41-.08-.16,0a2.53,2.53,0,0,1,.07.9,2.42,2.42,0,0,1-.27.81,1.78,1.78,0,0,1-1,.88,1.43,1.43,0,0,1-1.17-.15,1.46,1.46,0,0,1-.57-.56,1.42,1.42,0,0,1-.17-.76,4.93,4.93,0,0,1,.26-1.1,8.6,8.6,0,0,0,.37-1.3l-.12-.07a.69.69,0,0,0-.58-.11,1.19,1.19,0,0,0-.51.55.93.93,0,0,0-.15.56A.9.9,0,0,0,13.66,33Zm1.85-1a6.62,6.62,0,0,1-.23.82,2.72,2.72,0,0,0-.16.76.59.59,0,0,0,.29.47.69.69,0,0,0,.53.06.78.78,0,0,0,.45-.37,1.26,1.26,0,0,0,.14-.73.87.87,0,0,0-.24-.5,2.45,2.45,0,0,0-.54-.37Z" style="fill:#667d93"></path><path d="M16.19,26.14l.88.62-.53.76,1.68,1.19a3.49,3.49,0,0,0,.61.4.3.3,0,0,0,.21,0,.45.45,0,0,0,.19-.15,2.11,2.11,0,0,0,.21-.52l.92.51a2.59,2.59,0,0,1-.45,1,1.81,1.81,0,0,1-.49.47,1,1,0,0,1-.51.17,1.23,1.23,0,0,1-.54-.15,7.13,7.13,0,0,1-.8-.52l-1.82-1.29-.36.5-.88-.62.36-.51L14,27.41l.14-1.57,1.48,1.05Z" style="fill:#667d93"></path><path d="M16.38,24.79l-1-.79L16.27,23l1,.79Zm4.5,3.68-4-3.24.86-1.05,4,3.25Z" style="fill:#667d93"></path><path d="M20.44,24.8a2.73,2.73,0,0,1-.69-1.16,2.3,2.3,0,0,1,0-1.35,2.91,2.91,0,0,1,.73-1.2,2.57,2.57,0,0,1,3.76,0A2.65,2.65,0,0,1,25.05,23a2.54,2.54,0,0,1-.8,1.88,3,3,0,0,1-1.17.72,2.22,2.22,0,0,1-1.35,0A3.09,3.09,0,0,1,20.44,24.8Zm1-.93a1.69,1.69,0,0,0,1.08.57,1.17,1.17,0,0,0,1.26-1.26,1.71,1.71,0,0,0-.58-1.09,1.68,1.68,0,0,0-1.07-.56,1.13,1.13,0,0,0-.91.34,1.16,1.16,0,0,0-.35.92A1.69,1.69,0,0,0,21.47,23.87Z" style="fill:#667d93"></path><path d="M30.4,19.58l-1.08.82-1.58-2.08a3.6,3.6,0,0,0-.72-.8.75.75,0,0,0-.45-.14.86.86,0,0,0-.46.18,1,1,0,0,0-.38.54.94.94,0,0,0,0,.64,4.28,4.28,0,0,0,.63,1l1.4,1.85-1.08.81-3.1-4.08,1-.76.45.6a2.06,2.06,0,0,1,.82-1.71,2.19,2.19,0,0,1,.75-.37,1.39,1.39,0,0,1,.7,0,1.76,1.76,0,0,1,.56.29,4.67,4.67,0,0,1,.61.69Z" style="fill:#667d93"></path><path d="M32.32,15.67l1.2-.72a1.62,1.62,0,0,0,.9.7,1.53,1.53,0,0,0,1.08-.15,1.56,1.56,0,0,0,.81-.71.88.88,0,0,0,0-.76A.68.68,0,0,0,36,13.7a1.21,1.21,0,0,0-.6,0c-.17,0-.56.09-1.16.21a4,4,0,0,1-1.75.07,1.85,1.85,0,0,1-1.37-2,2,2,0,0,1,.49-1A3.73,3.73,0,0,1,32.77,10a3,3,0,0,1,2.06-.34,2.09,2.09,0,0,1,1.31,1.1l-1.26.68a1.23,1.23,0,0,0-.69-.54,1.43,1.43,0,0,0-.92.17,1.61,1.61,0,0,0-.77.66.5.5,0,0,0,0,.49.58.58,0,0,0,.38.3,4,4,0,0,0,1.39-.14,6.28,6.28,0,0,1,1.61-.21,2,2,0,0,1,1,.31,2,2,0,0,1,.74.9,2,2,0,0,1,.19,1.17,2,2,0,0,1-.52,1.12,4.12,4.12,0,0,1-1.28.9,3.11,3.11,0,0,1-2.12.33A2.75,2.75,0,0,1,32.32,15.67Z" style="fill:#667d93"></path><path d="M41.75,12.49l1.36-.19a2.22,2.22,0,0,1-.44,1.32,2.46,2.46,0,0,1-1.22.81,2.31,2.31,0,0,1-2.15-.23,2.85,2.85,0,0,1-1-1.53,2.85,2.85,0,0,1,0-2.1,2.17,2.17,0,0,1,1.38-1.2,2.27,2.27,0,0,1,2,.16,3.4,3.4,0,0,1,1.31,2l-3.23,1a1.35,1.35,0,0,0,.59.79,1,1,0,0,0,.85.08.82.82,0,0,0,.46-.32A1.11,1.11,0,0,0,41.75,12.49Zm-.34-1.32a1.29,1.29,0,0,0-.57-.76.89.89,0,0,0-.76-.08,1,1,0,0,0-.6.53,1.22,1.22,0,0,0,0,.92Z" style="fill:#667d93"></path><path d="M48.22,9,47,9.52A.94.94,0,0,0,46.54,9a.88.88,0,0,0-.65-.09,1,1,0,0,0-.73.49,1.84,1.84,0,0,0-.08,1.21,2,2,0,0,0,.54,1.21,1,1,0,0,0,.88.22.93.93,0,0,0,.58-.34,1.32,1.32,0,0,0,.2-.8l1.35,0a2.34,2.34,0,0,1-.53,1.51,2.44,2.44,0,0,1-1.46.75,2.33,2.33,0,0,1-1.89-.36,2.74,2.74,0,0,1-1-1.81A2.73,2.73,0,0,1,44,8.89a2.35,2.35,0,0,1,1.65-1A2.42,2.42,0,0,1,47.21,8,2.22,2.22,0,0,1,48.22,9Z" style="fill:#667d93"></path><path d="M53.09,12.3l0-.76a1.9,1.9,0,0,1-.7.68,2,2,0,0,1-1,.29,1.91,1.91,0,0,1-.93-.17,1.38,1.38,0,0,1-.63-.61,2.67,2.67,0,0,1-.24-1.12l-.18-3.24,1.35-.07.13,2.35A6.41,6.41,0,0,0,51.05,11a.71.71,0,0,0,.29.37.84.84,0,0,0,.51.12,1.11,1.11,0,0,0,.61-.23,1,1,0,0,0,.35-.49,5.28,5.28,0,0,0,0-1.39L52.72,7.2l1.35-.08.28,5.12Z" style="fill:#667d93"></path><path d="M56.86,12.38l-1.35-.08.29-5.12,1.26.08L57,8a2.1,2.1,0,0,1,.62-.64,1.09,1.09,0,0,1,.59-.13,1.82,1.82,0,0,1,.88.3l-.49,1.16A1.17,1.17,0,0,0,58,8.41a.74.74,0,0,0-.49.13,1.06,1.06,0,0,0-.34.55A8,8,0,0,0,57,10.8Z" style="fill:#667d93"></path><path d="M59.29,12.59,60,7.51l1.34.18-.67,5.07Zm.77-5.77.16-1.24,1.35.17L61.4,7Z" style="fill:#667d93"></path><path d="M65.2,8.41,65,9.46l-.9-.18-.41,2a3.62,3.62,0,0,0-.12.72.29.29,0,0,0,.08.19.43.43,0,0,0,.21.11,1.84,1.84,0,0,0,.56,0l-.09,1a2.67,2.67,0,0,1-1.09,0,1.65,1.65,0,0,1-.62-.25.9.9,0,0,1-.36-.4,1.27,1.27,0,0,1-.09-.55,7.14,7.14,0,0,1,.15-1L62.74,9l-.61-.12.22-1.06L63,8l.2-1,1.49-.51-.36,1.77Z" style="fill:#667d93"></path><path d="M65.84,8.5l1.38.43.1,3.83,2.21-3.12,1.34.41L67.7,14.23l-.57.76a3.54,3.54,0,0,1-.53.55,1.42,1.42,0,0,1-.46.26,1.66,1.66,0,0,1-.56.07,2.94,2.94,0,0,1-.69-.12,3.47,3.47,0,0,1-.71-.31l.19-1a3.35,3.35,0,0,0,.54.23.87.87,0,0,0,.75-.06A2.13,2.13,0,0,0,66.2,14Z" style="fill:#667d93"></path><path d="M72.43,16.16,75.9,10l1.86,1.05-1.25,4.83L80,12.3l1.86,1.06-3.47,6.16-1.16-.66L80,14l-4,4.16-1.2-.67L76.32,12l-2.74,4.85Z" style="fill:#667d93"></path><path d="M82.3,18.1l-.82-.94a1.94,1.94,0,0,1,1.24-.42,2.6,2.6,0,0,1,1.4.65,3.42,3.42,0,0,1,.93,1,1.4,1.4,0,0,1,.15.82,2.87,2.87,0,0,1-.61,1.06l-1,1.23a7.16,7.16,0,0,0-.56.82,3.1,3.1,0,0,0-.24.69l-1.05-.83q0-.14.15-.39l.06-.16a2.43,2.43,0,0,1-.9-.06,2.2,2.2,0,0,1-.76-.39,1.75,1.75,0,0,1-.72-1.11,1.52,1.52,0,0,1,1-1.61,1.3,1.3,0,0,1,.78,0,4.49,4.49,0,0,1,1,.42,7.29,7.29,0,0,0,1.24.55l.08-.1a.7.7,0,0,0,.2-.56,1.13,1.13,0,0,0-.47-.58,1,1,0,0,0-.53-.24A1,1,0,0,0,82.3,18.1Zm.74,2c-.17-.07-.43-.18-.77-.35a3,3,0,0,0-.73-.28.57.57,0,0,0-.5.21.65.65,0,0,0-.14.52.73.73,0,0,0,.29.5,1.21,1.21,0,0,0,.7.24.79.79,0,0,0,.53-.15,3.1,3.1,0,0,0,.46-.48Z" style="fill:#667d93"></path><path d="M86.64,26.91l-1-1,1.88-1.82a4.38,4.38,0,0,0,.71-.82.75.75,0,0,0,.07-.46.79.79,0,0,0-.23-.43,1.09,1.09,0,0,0-.58-.32,1,1,0,0,0-.63.08,4.24,4.24,0,0,0-.92.75l-1.66,1.61-1-1L87.05,20l.88.9-.54.53a2.07,2.07,0,0,1,1.8.6,2.18,2.18,0,0,1,.46.7,1.33,1.33,0,0,1,.09.69,1.41,1.41,0,0,1-.22.59,5,5,0,0,1-.6.69Z" style="fill:#667d93"></path><path d="M90.86,26.52,90.3,25.4a2,2,0,0,1,1.31-.09,2.57,2.57,0,0,1,1.18,1,3.24,3.24,0,0,1,.64,1.21,1.3,1.3,0,0,1-.07.82,2.81,2.81,0,0,1-.86.88l-1.28.93a5.37,5.37,0,0,0-.76.65,2.84,2.84,0,0,0-.4.6l-.8-1.07c0-.08.13-.2.24-.35l.1-.13a2.51,2.51,0,0,1-.85-.29,2.21,2.21,0,0,1-.64-.58,1.71,1.71,0,0,1-.4-1.26,1.4,1.4,0,0,1,.6-1,1.53,1.53,0,0,1,.74-.3,1.41,1.41,0,0,1,.77.16,4.76,4.76,0,0,1,.89.67,7.14,7.14,0,0,0,1.06.86l.1-.08a.73.73,0,0,0,.34-.49,1.15,1.15,0,0,0-.31-.68.8.8,0,0,0-1-.33Zm.2,2.11c-.15-.11-.37-.28-.66-.54a2.72,2.72,0,0,0-.63-.45.56.56,0,0,0-.54.07.71.71,0,0,0-.27.47.72.72,0,0,0,.16.55,1.13,1.13,0,0,0,.61.42.8.8,0,0,0,.55,0,2.45,2.45,0,0,0,.56-.35Z" style="fill:#667d93"></path><path d="M90.16,32.17l.59,1.45a.58.58,0,0,0-.24.33,1.06,1.06,0,0,0,.17.6,1.62,1.62,0,0,0,.53.62.67.67,0,0,0,.43.07,2.12,2.12,0,0,0,.58-.25l.65-.37a1.85,1.85,0,0,1-1.48-.93,1.88,1.88,0,0,1,0-1.85,2.92,2.92,0,0,1,1.26-1.25,2.88,2.88,0,0,1,2-.43,2,2,0,0,1,1.35,1A1.88,1.88,0,0,1,96,33l.63-.35.62,1.11-4,2.25a4.81,4.81,0,0,1-1.26.53,1.72,1.72,0,0,1-.82,0,1.86,1.86,0,0,1-.7-.44,3.85,3.85,0,0,1-.69-.92,3,3,0,0,1-.51-1.83,1.39,1.39,0,0,1,.72-1Zm3.21-.41a1.9,1.9,0,0,0-.89.86,1,1,0,0,0,0,.87,1.16,1.16,0,0,0,.75.54,2.22,2.22,0,0,0,2-1.13,1,1,0,0,0-.07-.91,1,1,0,0,0-.72-.52A1.79,1.79,0,0,0,93.37,31.76Z" style="fill:#667d93"></path><path d="M95.9,39.38l.29,1.34a2.27,2.27,0,0,1-1.36-.34A2.41,2.41,0,0,1,94,39.22,2.3,2.3,0,0,1,94,37.06a3,3,0,0,1,1.45-1.13,2.83,2.83,0,0,1,2.1-.13,2.23,2.23,0,0,1,1.3,1.29,2.31,2.31,0,0,1,0,2,3.32,3.32,0,0,1-1.91,1.45l-1.27-3.15a1.38,1.38,0,0,0-.75.66,1,1,0,0,0,0,.85.86.86,0,0,0,.36.43A1.1,1.1,0,0,0,95.9,39.38Zm1.3-.44a1.29,1.29,0,0,0,.71-.61.9.9,0,0,0,0-.77.93.93,0,0,0-.57-.56,1.24,1.24,0,0,0-.92.06Z" style="fill:#667d93"></path><path d="M100.25,40.87l.27,1.22-.68.15A2,2,0,0,1,101,43.62a1.86,1.86,0,0,1,0,.88,1.61,1.61,0,0,1-.47.71,2.39,2.39,0,0,1,.76.58,1.92,1.92,0,0,1,.38.77,1.89,1.89,0,0,1,0,1,1.39,1.39,0,0,1-.53.72,2.87,2.87,0,0,1-1,.37l-3.2.71L96.61,48l2.85-.64a2.17,2.17,0,0,0,.93-.35.65.65,0,0,0,.16-.63.86.86,0,0,0-.29-.48,1,1,0,0,0-.57-.25,3.67,3.67,0,0,0-1.06.13l-2.4.54L95.93,45l2.74-.62a3.76,3.76,0,0,0,.92-.28.62.62,0,0,0,.27-.29.69.69,0,0,0,0-.43,1,1,0,0,0-.28-.51.92.92,0,0,0-.56-.24,3.29,3.29,0,0,0-1,.12l-2.43.55L95.25,42Z" style="fill:#667d93"></path><path d="M98.72,53.31l-.14,1.36a2.22,2.22,0,0,1-1.18-.75,2.4,2.4,0,0,1-.47-1.38,2.29,2.29,0,0,1,.75-2,2.89,2.89,0,0,1,1.73-.61,2.83,2.83,0,0,1,2,.55,2.19,2.19,0,0,1,.81,1.63,2.29,2.29,0,0,1-.64,1.85,3.4,3.4,0,0,1-2.27.77l-.2-3.39a1.37,1.37,0,0,0-.92.38,1,1,0,0,0-.29.8.77.77,0,0,0,.21.52A1,1,0,0,0,98.72,53.31Zm1.38,0A1.29,1.29,0,0,0,101,53a1,1,0,0,0-.1-1.44,1.3,1.3,0,0,0-.9-.23Z" style="fill:#667d93"></path><path d="M96.84,60.38l.1-1.35,2.61.18a3.79,3.79,0,0,0,1.07,0A.79.79,0,0,0,101,59a.88.88,0,0,0,.17-.46,1.12,1.12,0,0,0-.15-.65,1,1,0,0,0-.48-.42,4.73,4.73,0,0,0-1.17-.18l-2.31-.17.09-1.35,5.11.36-.09,1.26-.75-.05a2,2,0,0,1,.75,1.74,2,2,0,0,1-.22.81,1.31,1.31,0,0,1-1,.75,3.77,3.77,0,0,1-.91,0Z" style="fill:#667d93"></path><path d="M101.25,64.78l-1.06-.19.16-.91-2-.36a4.79,4.79,0,0,0-.73-.1.26.26,0,0,0-.19.09.35.35,0,0,0-.1.21,1.62,1.62,0,0,0,0,.56L96.27,64a2.84,2.84,0,0,1,0-1.09,1.59,1.59,0,0,1,.24-.63.91.91,0,0,1,.39-.37,1.27,1.27,0,0,1,.55-.09,7.08,7.08,0,0,1,1,.12l2.2.39.11-.61,1.06.19-.11.61,1,.18.54,1.48-1.78-.32Z" style="fill:#667d93"></path><path d="M77.16,60a5.32,5.32,0,0,0,1.19-.4l.2-.09a8.79,8.79,0,0,0,3.55-2.67c2-3,2.45-7.87,1-11.85a7.63,7.63,0,0,0-2.93-3.49,14.11,14.11,0,0,0-7.43-2A13.76,13.76,0,0,0,66.12,41a7.94,7.94,0,0,0-4,5.48c-.48,2.22-1.23,7.72,2.22,11.07,3.15,2.76,8,3.68,12.75,2.37Zm-.23-6.14A3.22,3.22,0,0,1,75,56.17a5.17,5.17,0,0,1-2,.4,5.76,5.76,0,0,1-2.77-.7l-.07,0a4.43,4.43,0,0,1-1.56-3.45V52.3l0-.43a18.8,18.8,0,0,1,.4-6.28l0-.05c.73-1.88,2.9-2,3.61-2.1h.06a4.49,4.49,0,0,1,3.82,1.49l0,0a4.75,4.75,0,0,1,.62,2.35c0,.17,0,.34,0,.5v.09c0,.51,0,1,0,1.59a23.47,23.47,0,0,1-.2,4.29Z" style="fill:#fff"></path><path d="M24.86,39.71c0,1.25,0,2.6,0,3.86h.36c.7,0,1.42,0,2.15.08l.67.06V55.15L28,56.27l-3.15.06c0,1.26,0,2.49,0,3.73H37.49V56.32h-.63a14.59,14.59,0,0,1-2-.08l-.65-.08,0-11.94.42-.59,2.83,0c0-1.2,0-2.62,0-3.88l-11.37,0Z" style="fill:#fff"></path><path d="M45.88,59.16l.51.28c2.77,1.14,6.92,1.74,10.28,0a5.72,5.72,0,0,0,2.94-5.86,6.9,6.9,0,0,0-5-5.14l-7.9-2.29L46,45.78a1.61,1.61,0,0,1-.6-1.55l0-.13.07-.11c.74-1.26,2.16-1.16,3.2-1.09l.53,0h.09c2.89.4,4.91,1.42,6.15,3.11h.63c.93,0,1.89,0,2.83,0,0-1.58,0-3.06,0-4.61,0-.46,0-.93,0-1.41-1.13,0-2.24,0-3.19,0a2.06,2.06,0,0,1-.15.86l-.31.75L53.07,40.5c-3.08-1.29-7.8-1.64-10.92.59a5.59,5.59,0,0,0-1.88,5.85c.38,2.07,2.51,3.55,4.21,4.19,1.5.53,3.09,1,4.63,1.45,1.33.39,2.72.8,4.07,1.25l.06,0a1.53,1.53,0,0,1,1,1.5,1.49,1.49,0,0,1-.9,1.15l-.16.06A9.28,9.28,0,0,1,44,54.29l0,0a4.53,4.53,0,0,1-.39-.58l-.09-.14-3.22,0c-.06,2.5-.06,4.69,0,6.52l3.38,0,.08-1.91,1,.46C45.14,58.76,45.51,59,45.88,59.16Z" style="fill:#fff"></path><path d="M42.21,75.7v1.75H35.6a4.64,4.64,0,0,1,.65-1.88,12.23,12.23,0,0,1,2.12-2.36,13,13,0,0,0,1.56-1.61,2.09,2.09,0,0,0,.39-1.16,1.3,1.3,0,0,0-.34-1,1.26,1.26,0,0,0-.93-.34,1.24,1.24,0,0,0-.94.36,1.81,1.81,0,0,0-.41,1.18l-1.87-.19a3.06,3.06,0,0,1,1.05-2.23,3.55,3.55,0,0,1,2.21-.68,3.16,3.16,0,0,1,2.29.79,2.54,2.54,0,0,1,.83,2A3.35,3.35,0,0,1,42,71.57a5.09,5.09,0,0,1-.76,1.26A13.14,13.14,0,0,1,40,74.09a14.87,14.87,0,0,0-1.13,1.08,3.4,3.4,0,0,0-.39.53Z" style="fill:#fff"></path><path d="M43.49,69.5V67.74h6.45v1.37a10.42,10.42,0,0,0-1.62,2.26,12.84,12.84,0,0,0-1.26,3.12,11.8,11.8,0,0,0-.43,3H44.81a12.58,12.58,0,0,1,.84-4.16,13.61,13.61,0,0,1,2.13-3.79Z" style="fill:#fff"></path><path d="M54.32,67.57a2.71,2.71,0,0,1,2.24,1,6.52,6.52,0,0,1,1,4,6.54,6.54,0,0,1-1,4,2.69,2.69,0,0,1-2.23,1A2.79,2.79,0,0,1,52,76.51a6.48,6.48,0,0,1-.88-3.93,6.51,6.51,0,0,1,1-4A2.71,2.71,0,0,1,54.32,67.57Zm0,1.56a1,1,0,0,0-.61.22,1.5,1.5,0,0,0-.42.78,10.89,10.89,0,0,0-.19,2.47A11.3,11.3,0,0,0,53.27,75a1.79,1.79,0,0,0,.44.86,1,1,0,0,0,.61.21.92.92,0,0,0,.61-.22,1.43,1.43,0,0,0,.42-.78,10.68,10.68,0,0,0,.19-2.45,11.17,11.17,0,0,0-.17-2.38,1.75,1.75,0,0,0-.44-.87A1,1,0,0,0,54.32,69.13Z" style="fill:#fff"></path><path d="M62,67.57a2.69,2.69,0,0,1,2.24,1,6.52,6.52,0,0,1,1,4,6.47,6.47,0,0,1-1,4,2.68,2.68,0,0,1-2.23,1,2.81,2.81,0,0,1-2.31-1.11,6.48,6.48,0,0,1-.88-3.93,6.44,6.44,0,0,1,1-4A2.67,2.67,0,0,1,62,67.57Zm0,1.56a1,1,0,0,0-.61.22,1.5,1.5,0,0,0-.41.78,10.74,10.74,0,0,0-.2,2.47A10.47,10.47,0,0,0,60.92,75a1.63,1.63,0,0,0,.44.86,1,1,0,0,0,1.22,0,1.49,1.49,0,0,0,.41-.78,10.54,10.54,0,0,0,.2-2.45A10.35,10.35,0,0,0,63,70.22a1.67,1.67,0,0,0-.44-.87A1,1,0,0,0,62,69.13Z" style="fill:#fff"></path><path d="M71.25,77.45H69.36V70.34a6.43,6.43,0,0,1-2.44,1.43V70.06a5.4,5.4,0,0,0,1.61-.92,3.49,3.49,0,0,0,1.19-1.57h1.53Z" style="fill:#fff"></path><path d="M25.41,87.21l.6,1.45a3.41,3.41,0,0,1-2.16.32,3.61,3.61,0,0,1-2.58-3.75,4,4,0,0,1,1.55-2.58,4.2,4.2,0,0,1,2.9-1.15,3.38,3.38,0,0,1,2.47,1.31A3.15,3.15,0,0,1,29,85.08a3.05,3.05,0,0,1-.57,1.5l-1.26-.93a1.59,1.59,0,0,0-.06-2.06,1.73,1.73,0,0,0-1.35-.66,2.94,2.94,0,0,0-1.85.87,3.2,3.2,0,0,0-1.25,1.72,1.71,1.71,0,0,0,.4,1.43,1.54,1.54,0,0,0,1,.56A2.26,2.26,0,0,0,25.41,87.21Z" style="fill:#667d93"></path><path d="M32.56,94.53l1.07,1a2.49,2.49,0,0,1-1.42.51,2.57,2.57,0,0,1-1.49-.51,2.45,2.45,0,0,1-1.24-2,3.18,3.18,0,0,1,.61-1.89,3.07,3.07,0,0,1,1.81-1.38,2.38,2.38,0,0,1,1.94.38A2.45,2.45,0,0,1,35,92.45a3.61,3.61,0,0,1-.83,2.45l-3-2.05a1.45,1.45,0,0,0-.27,1,1.1,1.1,0,0,0,.49.77.94.94,0,0,0,.59.17A1.25,1.25,0,0,0,32.56,94.53Zm.9-1.18a1.42,1.42,0,0,0,.27-1,1,1,0,0,0-.45-.7,1,1,0,0,0-.85-.15,1.33,1.33,0,0,0-.78.61Z" style="fill:#667d93"></path><path d="M39.88,100.11,38.5,99.6l1.92-5.19,1.28.47-.28.74a2.38,2.38,0,0,1,.85-.47,1.12,1.12,0,0,1,.65,0,1.87,1.87,0,0,1,.81.59l-.87,1a1.32,1.32,0,0,0-.56-.46.8.8,0,0,0-.55,0,1.19,1.19,0,0,0-.52.46,8.82,8.82,0,0,0-.76,1.69Z" style="fill:#667d93"></path><path d="M50.07,96.93l-.18,1.15-1-.16-.36,2.2a5,5,0,0,0-.09.78.3.3,0,0,0,.1.21.41.41,0,0,0,.23.11,2,2,0,0,0,.6,0l-.05,1.14a3.07,3.07,0,0,1-1.18,0,2,2,0,0,1-.68-.25,1.07,1.07,0,0,1-.41-.41,1.46,1.46,0,0,1-.11-.6,6.63,6.63,0,0,1,.12-1l.38-2.38-.66-.11L47,96.43l.66.1.18-1.08,1.58-.61-.31,1.93Z" style="fill:#667d93"></path><path d="M53.82,96.4V95.05h1.47v1.35Zm0,6.28,0-5.53h1.47l0,5.54Z" style="fill:#667d93"></path><path d="M58.84,96.91l.8-.14-.06-.41a2.71,2.71,0,0,1,0-1,1.19,1.19,0,0,1,.44-.64,2,2,0,0,1,1-.38,4,4,0,0,1,1.24,0l0,1a2.48,2.48,0,0,0-.67,0,.61.61,0,0,0-.43.22.92.92,0,0,0,0,.58l.07.39,1.08-.18.19,1.13-1.08.18L62,102l-1.44.25-.73-4.32L59,98Z" style="fill:#667d93"></path><path d="M65.33,94.69l-.44-1.28,1.39-.48.44,1.28Zm2,5.94L65.58,95.4,67,94.92l1.79,5.24Z" style="fill:#667d93"></path><path d="M76.48,94.35l1.37-.56a2.37,2.37,0,0,1-.12,1.5,2.56,2.56,0,0,1-1.07,1.16,2.46,2.46,0,0,1-2.31.32,3.2,3.2,0,0,1-1.47-1.33,3.09,3.09,0,0,1-.52-2.21,2.36,2.36,0,0,1,1.14-1.62,2.46,2.46,0,0,1,2.08-.33A3.64,3.64,0,0,1,77.48,93L74.36,95a1.48,1.48,0,0,0,.83.68,1.12,1.12,0,0,0,.91-.14.82.82,0,0,0,.39-.46A1.12,1.12,0,0,0,76.48,94.35ZM75.77,93A1.39,1.39,0,0,0,75,92.4a1,1,0,0,0-.82.11,1,1,0,0,0-.49.72,1.4,1.4,0,0,0,.24,1Z" style="fill:#667d93"></path><path d="M87.05,87.26l-.92,1-.6-.55a2.26,2.26,0,0,1,0,1.07,2.07,2.07,0,0,1-2.14,1.52,3.16,3.16,0,0,1-2-1,3.09,3.09,0,0,1-1.12-1.94,2.14,2.14,0,0,1,.6-1.72A2.07,2.07,0,0,1,82.47,85l-2-1.86,1-1.08Zm-4.77.91a2.5,2.5,0,0,0,1.11.69,1.12,1.12,0,0,0,1.09-.34,1.09,1.09,0,0,0,.27-.93,2.06,2.06,0,0,0-.7-1.13,2.24,2.24,0,0,0-1.24-.68,1.14,1.14,0,0,0-1.2,1.29A2,2,0,0,0,82.28,88.17Z" style="fill:#667d93"></path></g></g></svg>