<svg xmlns="http://www.w3.org/2000/svg" viewBox="0 0 108.74 108.74"><g id="a5c1d2ba-ac68-4123-ada3-6fdf49ea3924" data-name="Layer 2"><g id="bc6f9371-296b-4beb-8470-8c515d021843" data-name="Layer 1"><circle cx="54.37" cy="54.37" r="53.87" style="fill:#252c40;stroke:#00bcfa;stroke-miterlimit:10"></circle><circle cx="54.37" cy="54.37" r="35.55" style="fill:#151b2c;stroke:#00bcfa;stroke-miterlimit:10"></circle><path d="M72.39,62.21a22.92,22.92,0,0,1-4.54,4.84c-.06.1-.24.06-.3,0-.74-.47-1.55-.85-2.26-1.32a24.4,24.4,0,0,0,2.59-3.53H67a20.73,20.73,0,0,1-2.49,3.18A32.39,32.39,0,0,0,60.62,64l-.14-.11a16.61,16.61,0,0,0,.71-1.73h-.8l-.81,1.58a38.66,38.66,0,0,0-5.46-.71c-.1-.26,0-.64-.1-.87h-.77c-.06.35.09.61-.09.91a34.47,34.47,0,0,0-5.35.64L47,62.18a2.47,2.47,0,0,0-.83,0l.74,1.72-.09.09a37.85,37.85,0,0,0-3.92,1.37l-.12-.06a23.24,23.24,0,0,1-2.29-2.89c-.15-.5-.74-.2-1.07-.26a25.5,25.5,0,0,0,2.62,3.59c-.81.47-1.61,1-2.44,1.38a21.61,21.61,0,0,1-4.7-4.94,3.36,3.36,0,0,0-.95,0,23.26,23.26,0,0,0,8.95,8,0,0,0,0,1,0,0s.09.06,0,.09a24.44,24.44,0,0,0,7.49,2.31A23.42,23.42,0,0,0,73.34,62.21,5,5,0,0,0,72.39,62.21ZM60,64.84l.09-.06A16.73,16.73,0,0,1,63.72,66a19.35,19.35,0,0,1-3.3,2.81c-.69.4-1.37.85-2.09,1.19l-1.27-.55.09-.2A35.55,35.55,0,0,0,60,64.84ZM54.14,64a23.8,23.8,0,0,1,5,.58l0,.09a30.37,30.37,0,0,1-3,4.53A8.4,8.4,0,0,1,54.65,69l-.51-.06C54.08,67.2,54.05,65.68,54.14,64Zm-5.73.53A25.13,25.13,0,0,1,53.22,64l0,4.94c-.62.14-1.31.14-1.9.29a25.64,25.64,0,0,1-3.09-4.59Zm-4.79,1.57a20.05,20.05,0,0,1,3.63-1.28l.12,0a45.23,45.23,0,0,0,3,4.64c-.42.24-.92.38-1.34.61a20,20,0,0,1-5.41-3.91Zm3.84,5a21.34,21.34,0,0,1-7-3.27V67.7a16.42,16.42,0,0,1,2.2-1.23,30.83,30.83,0,0,0,5.35,4.12A2.44,2.44,0,0,1,47.46,71.06Zm11,.38a22.66,22.66,0,0,1-9.8-.06c-.06-.15.14-.18.23-.26a9.27,9.27,0,0,1,9.78.14C58.78,71.44,58.54,71.38,58.48,71.44Zm2.86-.82-1.4.44a3,3,0,0,1-.65-.47l.06-.09a26.63,26.63,0,0,0,5.26-4.06A11.64,11.64,0,0,1,66.9,67.7,20.13,20.13,0,0,1,61.34,70.62Z" style="fill:#667d93"></path><path d="M34.86,37.53a25.71,25.71,0,0,1,2.4-2.89,16.09,16.09,0,0,1,2.32-2c.77.49,1.64.91,2.38,1.37a26.38,26.38,0,0,0-2.56,3.51,1.78,1.78,0,0,0,.89,0,23.18,23.18,0,0,1,2.5-3.13c1.28.47,2.53,1,3.84,1.32l.11.11L46,37.56a2.76,2.76,0,0,0,.86,0c.27-.5.48-1.05.77-1.55a29.65,29.65,0,0,0,5.39.64c.23.21,0,.64.14.91H54c.08-.29,0-.62.08-.88A28.36,28.36,0,0,0,59.26,36l.14,0,.81,1.52A1.88,1.88,0,0,0,61,37.5l-.75-1.69.07-.06a35,35,0,0,0,4-1.4,27.72,27.72,0,0,1,2.56,3.21,2.79,2.79,0,0,0,.89-.06,12.34,12.34,0,0,0-1.28-1.84,12.61,12.61,0,0,0-1.31-1.58v-.15l2.08-1.19.3-.12a21.49,21.49,0,0,1,4.69,4.88c.36,0,.66.12,1,0A23.54,23.54,0,0,0,55.54,27.13l0,.06-.06-.06a13.64,13.64,0,0,0-2.64,0,6.89,6.89,0,0,0-1.1,0A23.31,23.31,0,0,0,33.9,37.56,3.44,3.44,0,0,0,34.86,37.53ZM47.19,35l-.12,0a24.56,24.56,0,0,1-3.54-1.2l.06-.18a23.67,23.67,0,0,1,5.26-3.82c.45.18.89.32,1.34.53l-.09.23A37.28,37.28,0,0,0,47.19,35Zm5.91.79a11.47,11.47,0,0,1-2.41-.09,17,17,0,0,1-2.61-.47,25.93,25.93,0,0,1,3.09-4.58l1.9.26C53.16,32.39,53.1,34.14,53.1,35.75Zm.92,0c-.05-1.55,0-3.28,0-4.88l1.85-.26a24.68,24.68,0,0,1,3.06,4.55A21.28,21.28,0,0,1,54,35.78Zm9.49-2.05A19.15,19.15,0,0,1,59.88,35a50.13,50.13,0,0,0-3.06-4.59c.41-.23.92-.4,1.37-.64a21.46,21.46,0,0,1,5.38,3.91Zm-3.81-5a21.08,21.08,0,0,1,7,3.27l-.06.11-2,1.14h-.15a26.54,26.54,0,0,0-5.29-4C59.2,29,59.49,28.88,59.7,28.74Zm-1.19-.3v.06a9.05,9.05,0,0,1-9.51.32c-.15-.11-.44-.17-.47-.38A22.41,22.41,0,0,1,58.51,28.44ZM40.38,32.07A21.49,21.49,0,0,1,46.54,29c.09-.09.14-.17.26-.17v.06c.24.05.42-.21.63,0s.38.27.53.41a30.3,30.3,0,0,0-5.32,4.12,10,10,0,0,1-2.26-1.23Z" style="fill:#667d93"></path><path d="M10.07,64.85l.07-1.45a3.1,3.1,0,0,1,1.93.59,3,3,0,0,1,1,1.68,3.05,3.05,0,0,1-.34,2.48,3.67,3.67,0,0,1-2.32,1.54,3.86,3.86,0,0,1-2.88-.18A3.13,3.13,0,0,1,6,67.43a2.92,2.92,0,0,1,.21-2.23,2.8,2.8,0,0,1,1.07-1L8,65.45a1.52,1.52,0,0,0-.71.73,1.48,1.48,0,0,0-.06,1,1.62,1.62,0,0,0,.86,1.09,2.81,2.81,0,0,0,1.9,0,3,3,0,0,0,1.72-1A1.56,1.56,0,0,0,11.92,66a1.43,1.43,0,0,0-.6-.85A2.09,2.09,0,0,0,10.07,64.85Z" style="fill:#667d93"></path><path d="M11.75,58.5l-.76.08a2.07,2.07,0,0,1,.72.66,2.14,2.14,0,0,1,.34.94,2,2,0,0,1-.13.94,1.32,1.32,0,0,1-.57.66,2.85,2.85,0,0,1-1.11.3L7,62.42l-.15-1.35,2.34-.24a6.27,6.27,0,0,0,1.31-.22.73.73,0,0,0,.36-.31.86.86,0,0,0,.09-.52,1.06,1.06,0,0,0-.26-.59,1,1,0,0,0-.51-.33,5.8,5.8,0,0,0-1.38,0l-2.15.23-.14-1.35,5.09-.54Z" style="fill:#667d93"></path><path d="M10.12,56.5l-.18-1.36a1,1,0,0,0,.61-.34,1.21,1.21,0,0,0,.23-.74,1.27,1.27,0,0,0-.18-.79.39.39,0,0,0-.35-.19.37.37,0,0,0-.26.09,1,1,0,0,0-.19.45,7.74,7.74,0,0,1-.71,2.06,1.33,1.33,0,0,1-1.17.58,1.44,1.44,0,0,1-1.11-.56,2.44,2.44,0,0,1-.41-1.64,2.9,2.9,0,0,1,.38-1.55,1.8,1.8,0,0,1,1-.68L8,53.11a.81.81,0,0,0-.47.3,1.09,1.09,0,0,0-.17.65,1.4,1.4,0,0,0,.13.77.3.3,0,0,0,.52,0,5.2,5.2,0,0,0,.41-1.26,3.67,3.67,0,0,1,.64-1.5,1.28,1.28,0,0,1,1-.4,1.57,1.57,0,0,1,1.19.62,2.6,2.6,0,0,1,.47,1.76,2.9,2.9,0,0,1-.47,1.64A1.92,1.92,0,0,1,10.12,56.5Z" style="fill:#667d93"></path><path d="M7.05,47.75l1.07.13L8,48.8l2.05.26a4.82,4.82,0,0,0,.72.06A.3.3,0,0,0,11,49a.37.37,0,0,0,.09-.22,1.5,1.5,0,0,0-.06-.55h1.06a2.6,2.6,0,0,1,.07,1.09,1.61,1.61,0,0,1-.21.64.83.83,0,0,1-.37.39,1.05,1.05,0,0,1-.54.12,6.22,6.22,0,0,1-1-.07l-2.21-.28-.08.62-1.07-.13L6.77,50l-1-.13-.62-1.45,1.79.23Z" style="fill:#667d93"></path><path d="M9.59,47.32a2.76,2.76,0,0,1-1.2-.62,2.23,2.23,0,0,1-.72-1.14,2.76,2.76,0,0,1,0-1.4,2.56,2.56,0,0,1,3.19-2,2.61,2.61,0,0,1,1.71,1.16,2.58,2.58,0,0,1,.32,2,3,3,0,0,1-.62,1.23,2.2,2.2,0,0,1-1.13.74A3.18,3.18,0,0,1,9.59,47.32ZM10,46a1.7,1.7,0,0,0,1.22-.08,1.18,1.18,0,0,0,.6-.78,1.15,1.15,0,0,0-.19-1,1.78,1.78,0,0,0-1.07-.62,1.72,1.72,0,0,0-1.21.09,1.2,1.2,0,0,0-.4,1.74A1.7,1.7,0,0,0,10,46Z" style="fill:#667d93"></path><path d="M8.75,40.09l.48-1.15.65.27a2,2,0,0,1-.14-1.79,1.75,1.75,0,0,1,.52-.71,1.59,1.59,0,0,1,.79-.31,2.38,2.38,0,0,1-.28-.91,1.79,1.79,0,0,1,.13-.85,1.94,1.94,0,0,1,.58-.79,1.44,1.44,0,0,1,.85-.28,3,3,0,0,1,1,.28l3,1.26-.52,1.25-2.7-1.13a2.42,2.42,0,0,0-1-.25.66.66,0,0,0-.49.43.88.88,0,0,0-.05.56,1,1,0,0,0,.33.53,4,4,0,0,0,.94.51l2.27,1-.53,1.25-2.59-1.08a3.48,3.48,0,0,0-.92-.31.65.65,0,0,0-.38.08.79.79,0,0,0-.26.34,1,1,0,0,0-.06.59,1,1,0,0,0,.31.52,3.58,3.58,0,0,0,.94.51l2.29,1-.52,1.25Z" style="fill:#667d93"></path><path d="M17.19,30.81l.9-1a2.17,2.17,0,0,1,.53,1.29,2.48,2.48,0,0,1-.41,1.4,2.3,2.3,0,0,1-1.79,1.22,3,3,0,0,1-1.76-.5,2.88,2.88,0,0,1-1.35-1.62,2.2,2.2,0,0,1,.28-1.81,2.23,2.23,0,0,1,1.59-1.13,3.3,3.3,0,0,1,2.3.68L15.69,32.2a1.35,1.35,0,0,0,1,.22,1,1,0,0,0,.7-.49.84.84,0,0,0,.13-.54A1.05,1.05,0,0,0,17.19,30.81ZM16.06,30a1.31,1.31,0,0,0-.92-.21A1,1,0,0,0,14.4,31a1.22,1.22,0,0,0,.6.7Z" style="fill:#667d93"></path><path d="M20.71,28.71l-.84,1.07-4-3.15.77-1,.58.44a2.14,2.14,0,0,1-.18-.87,1.08,1.08,0,0,1,.23-.57A1.73,1.73,0,0,1,18,24.1l.67,1a1.25,1.25,0,0,0-.56.37.76.76,0,0,0-.18.48,1.14,1.14,0,0,0,.26.59,8.13,8.13,0,0,0,1.29,1.15Z" style="fill:#667d93"></path><path d="M22.15,23.42l1-1a1.68,1.68,0,0,0,1.06.42,1.48,1.48,0,0,0,1-.44,1.62,1.62,0,0,0,.59-.91.89.89,0,0,0-.2-.74.6.6,0,0,0-.39-.22,1.08,1.08,0,0,0-.59.11l-1.06.53a3.85,3.85,0,0,1-1.67.55,1.82,1.82,0,0,1-1.43-.63,1.71,1.71,0,0,1-.44-.95A1.9,1.9,0,0,1,20.14,19,3.84,3.84,0,0,1,21,17.88,3,3,0,0,1,22.9,17a2.09,2.09,0,0,1,1.56.7l-1,1a1.24,1.24,0,0,0-.82-.32,1.48,1.48,0,0,0-.83.43,1.6,1.6,0,0,0-.56.83.49.49,0,0,0,.13.48.5.5,0,0,0,.44.18,3.78,3.78,0,0,0,1.29-.52,7.11,7.11,0,0,1,1.49-.65,2,2,0,0,1,1.06,0,2,2,0,0,1,1,.65,2.09,2.09,0,0,1,.51,1.08,1.94,1.94,0,0,1-.19,1.22,4.11,4.11,0,0,1-1,1.22A3.1,3.1,0,0,1,24,24.2,2.72,2.72,0,0,1,22.15,23.42Z" style="fill:#667d93"></path><path d="M27.63,17.23l-1.14.51a1.91,1.91,0,0,1,0-1.31,2.62,2.62,0,0,1,1.05-1.14,3.38,3.38,0,0,1,1.24-.58,1.39,1.39,0,0,1,.83.11,2.63,2.63,0,0,1,.82.9L31.28,17a4.65,4.65,0,0,0,.61.79,2.75,2.75,0,0,0,.58.44L31.36,19,31,18.76l-.13-.11a2.43,2.43,0,0,1-.34.84,2,2,0,0,1-.6.61,1.75,1.75,0,0,1-1.27.34A1.54,1.54,0,0,1,27.44,19a1.36,1.36,0,0,1,.19-.75,4.64,4.64,0,0,1,.72-.87,7.73,7.73,0,0,0,.91-1l-.08-.11a.67.67,0,0,0-.47-.35,1.14,1.14,0,0,0-.7.26.9.9,0,0,0-.38.44A1,1,0,0,0,27.63,17.23Zm2.12-.09q-.16.21-.57.63a2.21,2.21,0,0,0-.48.61.54.54,0,0,0,.05.54.64.64,0,0,0,.45.29.77.77,0,0,0,.56-.13,1.23,1.23,0,0,0,.45-.59.87.87,0,0,0,0-.55,3,3,0,0,0-.33-.58Z" style="fill:#667d93"></path><path d="M32.86,12.26l.52.94-.81.45,1,1.81a5.64,5.64,0,0,0,.37.63.31.31,0,0,0,.19.09.39.39,0,0,0,.23-.05,1.86,1.86,0,0,0,.42-.38l.61.87a2.75,2.75,0,0,1-.84.69,1.66,1.66,0,0,1-.64.21,1,1,0,0,1-.53-.07,1.2,1.2,0,0,1-.43-.37,6.73,6.73,0,0,1-.49-.82l-1.08-2-.55.3-.52-.95.55-.3-.49-.89.81-1.35.87,1.59Z" style="fill:#667d93"></path><path d="M33.7,11.11,33.18,10l1.23-.56.52,1.14Zm2.4,5.29L34,11.74l1.24-.56,2.12,4.66Z" style="fill:#667d93"></path><path d="M37.52,14.1l1.22-.64a1,1,0,0,0,.53.45,1.1,1.1,0,0,0,.77-.05,1.28,1.28,0,0,0,.68-.44.41.41,0,0,0,.05-.4.33.33,0,0,0-.17-.21,1,1,0,0,0-.49,0,7.45,7.45,0,0,1-2.18.06A1.31,1.31,0,0,1,37,12a1.38,1.38,0,0,1,.13-1.23,2.42,2.42,0,0,1,1.39-1,2.79,2.79,0,0,1,1.59-.19,1.73,1.73,0,0,1,1,.72L40,11a.72.72,0,0,0-.44-.33,1.08,1.08,0,0,0-.67.06,1.59,1.59,0,0,0-.68.39.32.32,0,0,0,0,.31.29.29,0,0,0,.21.19,4.58,4.58,0,0,0,1.32-.06,3.82,3.82,0,0,1,1.63.08,1.24,1.24,0,0,1,.73.81,1.57,1.57,0,0,1-.16,1.34,2.67,2.67,0,0,1-1.48,1,2.87,2.87,0,0,1-1.7.14A2,2,0,0,1,37.52,14.1Z" style="fill:#667d93"></path><path d="M41.75,8.85l.73-.18-.09-.37a2.83,2.83,0,0,1-.09-1,1.16,1.16,0,0,1,.37-.62,2.08,2.08,0,0,1,.87-.41,3.94,3.94,0,0,1,1.14-.1l0,1a2.45,2.45,0,0,0-.62.07.53.53,0,0,0-.38.23.8.8,0,0,0,0,.54l.08.35,1-.23.25,1-1,.24,1,3.95-1.32.31-1-3.94L42,9.88Z" style="fill:#667d93"></path><path d="M47.1,9.3l-1.25-.05a1.93,1.93,0,0,1,.56-1.19,2.6,2.6,0,0,1,1.44-.56,3.31,3.31,0,0,1,1.37,0,1.42,1.42,0,0,1,.69.46,2.74,2.74,0,0,1,.35,1.18l.2,1.57a4.67,4.67,0,0,0,.2,1,2.66,2.66,0,0,0,.33.65l-1.33.18a3.25,3.25,0,0,1-.18-.37,1.28,1.28,0,0,1-.07-.16,2.4,2.4,0,0,1-.67.61,2.3,2.3,0,0,1-.81.28,1.77,1.77,0,0,1-1.3-.26,1.38,1.38,0,0,1-.59-1,1.44,1.44,0,0,1,.1-.8,1.3,1.3,0,0,1,.5-.59,4.06,4.06,0,0,1,1-.46,7.6,7.6,0,0,0,1.26-.51l0-.13a.7.7,0,0,0-.27-.53,1.22,1.22,0,0,0-.74-.07,1,1,0,0,0-.54.22A1,1,0,0,0,47.1,9.3Zm1.95.85c-.17.08-.43.18-.79.31a2.22,2.22,0,0,0-.7.34.53.53,0,0,0-.2.5.63.63,0,0,0,.28.46.72.72,0,0,0,.56.14,1.24,1.24,0,0,0,.66-.34.82.82,0,0,0,.26-.49,2.42,2.42,0,0,0,0-.66Z" style="fill:#667d93"></path><path d="M56.27,8.67l-1.34.26a1,1,0,0,0-.31-.6.91.91,0,0,0-.62-.2,1,1,0,0,0-.81.36,1.87,1.87,0,0,0-.29,1.17A2.16,2.16,0,0,0,53.22,11a1,1,0,0,0,.83.36.93.93,0,0,0,.63-.22,1.32,1.32,0,0,0,.34-.76l1.33.21a2.33,2.33,0,0,1-.78,1.39,2.45,2.45,0,0,1-1.57.49,2.33,2.33,0,0,1-1.8-.69,2.76,2.76,0,0,1-.69-2,2.77,2.77,0,0,1,.65-2A2.38,2.38,0,0,1,54,7.06a2.55,2.55,0,0,1,1.49.39A2.28,2.28,0,0,1,56.27,8.67Z" style="fill:#667d93"></path><path d="M60,7.49l-.1,1.07-.92-.08-.18,2.06a5,5,0,0,0,0,.73.27.27,0,0,0,.1.18.43.43,0,0,0,.23.09,1.93,1.93,0,0,0,.55-.08l0,1a2.52,2.52,0,0,1-1.08.11,1.69,1.69,0,0,1-.65-.18,1,1,0,0,1-.4-.35,1.2,1.2,0,0,1-.14-.55,5,5,0,0,1,0-.95l.19-2.23-.62,0,.1-1.08.62.06.09-1,1.42-.67L59,7.41Z" style="fill:#667d93"></path><path d="M60.34,12.72l.8-5.06,1.34.21-.8,5.06ZM61.25,7l.2-1.23L62.79,6l-.2,1.24Z" style="fill:#667d93"></path><path d="M63.27,10.48a2.7,2.7,0,0,1,.65-1.18,2.37,2.37,0,0,1,1.16-.7,2.78,2.78,0,0,1,1.4,0,2.5,2.5,0,0,1,1.65,1.21,2.58,2.58,0,0,1,.24,2,2.63,2.63,0,0,1-1.21,1.67,2.53,2.53,0,0,1-2,.27,3,3,0,0,1-1.22-.65A2.14,2.14,0,0,1,63.21,12,3.1,3.1,0,0,1,63.27,10.48Zm1.32.42a1.77,1.77,0,0,0,.06,1.22,1.18,1.18,0,0,0,.76.62,1.16,1.16,0,0,0,1-.17A1.76,1.76,0,0,0,67,11.52,1.64,1.64,0,0,0,67,10.31a1.1,1.1,0,0,0-.75-.61,1.15,1.15,0,0,0-1,.16A1.72,1.72,0,0,0,64.59,10.9Z" style="fill:#667d93"></path><path d="M72.81,16.42l-1.25-.51,1-2.42a4.19,4.19,0,0,0,.33-1,.74.74,0,0,0-.12-.46.78.78,0,0,0-.38-.3,1.08,1.08,0,0,0-.66-.06,1,1,0,0,0-.55.33,4.73,4.73,0,0,0-.54,1l-.88,2.14-1.25-.51,1.94-4.74,1.17.48-.29.69a2.06,2.06,0,0,1,1.89-.16,2,2,0,0,1,.7.46,1.32,1.32,0,0,1,.36.6,1.3,1.3,0,0,1,0,.62,4.05,4.05,0,0,1-.28.88Z" style="fill:#667d93"></path><path d="M76.18,18.13l4.07-5.79L82,13.57l-1.73,4.69L84.08,15l1.76,1.23-4.07,5.79-1.08-.77,3.2-4.55-4.35,3.75-1.13-.79,2.06-5.36-3.2,4.55Z" style="fill:#667d93"></path><path d="M85.8,21l-.73-1a1.89,1.89,0,0,1,1.28-.29,2.58,2.58,0,0,1,1.33.78,3.25,3.25,0,0,1,.82,1.1,1.25,1.25,0,0,1,.07.82,2.68,2.68,0,0,1-.71,1l-1.11,1.13a5.09,5.09,0,0,0-.64.76,3.12,3.12,0,0,0-.31.66l-1-.93.18-.38a1.2,1.2,0,0,0,.08-.15,2.17,2.17,0,0,1-.89-.15,2,2,0,0,1-.72-.46,1.76,1.76,0,0,1-.6-1.18,1.4,1.4,0,0,1,.43-1.09,1.35,1.35,0,0,1,1.46-.39,4.6,4.6,0,0,1,1,.52,7.36,7.36,0,0,0,1.18.68l.09-.1a.71.71,0,0,0,.25-.53,1.18,1.18,0,0,0-.41-.63,1,1,0,0,0-.51-.29A1.06,1.06,0,0,0,85.8,21Zm.54,2.05a7,7,0,0,1-.73-.42,2.43,2.43,0,0,0-.7-.34.56.56,0,0,0-.52.16.64.64,0,0,0-.19.5.72.72,0,0,0,.24.52,1.13,1.13,0,0,0,.67.31.84.84,0,0,0,.55-.09,3,3,0,0,0,.49-.44Z" style="fill:#667d93"></path><path d="M89.26,30.25l-.84-1.07,2-1.62a3.9,3.9,0,0,0,.79-.74.75.75,0,0,0,.12-.45.8.8,0,0,0-.19-.46,1,1,0,0,0-.54-.37.94.94,0,0,0-.64,0,4.36,4.36,0,0,0-1,.65L87.2,27.65l-.85-1.06,4-3.19.78,1-.59.47a2.05,2.05,0,0,1,1.73.78,1.94,1.94,0,0,1,.38.74,1.41,1.41,0,0,1,0,.7,1.55,1.55,0,0,1-.28.56,3.85,3.85,0,0,1-.67.62Z" style="fill:#667d93"></path><path d="M93.49,30.26l-.44-1.17a1.94,1.94,0,0,1,1.31.05,2.64,2.64,0,0,1,1.08,1.1A3.26,3.26,0,0,1,96,31.51a1.41,1.41,0,0,1-.14.82,2.82,2.82,0,0,1-1,.78l-1.36.8a4.92,4.92,0,0,0-.82.57,3.39,3.39,0,0,0-.47.56l-.69-1.14a3,3,0,0,1,.28-.32.83.83,0,0,0,.11-.13,2.45,2.45,0,0,1-.82-.37,2.23,2.23,0,0,1-.58-.64,1.74,1.74,0,0,1-.27-1.29A1.52,1.52,0,0,1,91.7,30a1.35,1.35,0,0,1,.75.23,4.8,4.8,0,0,1,.83.76,7.58,7.58,0,0,0,1,1l.12-.07a.73.73,0,0,0,.37-.45,1.15,1.15,0,0,0-.23-.71.89.89,0,0,0-.41-.41A1,1,0,0,0,93.49,30.26Zm0,2.12a8.23,8.23,0,0,1-.6-.6,2.59,2.59,0,0,0-.58-.51.59.59,0,0,0-.55,0,.67.67,0,0,0-.31.44.74.74,0,0,0,.1.57,1.21,1.21,0,0,0,.57.47.81.81,0,0,0,.55,0,2.65,2.65,0,0,0,.59-.3Z" style="fill:#667d93"></path><path d="M92.24,35.82l.45,1.49a.51.51,0,0,0-.27.31,1,1,0,0,0,.11.62,1.56,1.56,0,0,0,.47.66.63.63,0,0,0,.42.11,1.8,1.8,0,0,0,.59-.19l.69-.3a1.86,1.86,0,0,1-1.38-1.07,1.89,1.89,0,0,1,.14-1.85,3,3,0,0,1,1.38-1.12,2.8,2.8,0,0,1,2.06-.22,2,2,0,0,1,1.24,1.13A1.87,1.87,0,0,1,98,37.16l.66-.29L99.17,38,95,39.88a4.32,4.32,0,0,1-1.3.41,1.62,1.62,0,0,1-.81-.1,1.86,1.86,0,0,1-.66-.5,4,4,0,0,1-.59-1,2.9,2.9,0,0,1-.33-1.87,1.39,1.39,0,0,1,.81-.95Zm3.23-.1a1.82,1.82,0,0,0-1,.77,1,1,0,0,0,0,.86,1.11,1.11,0,0,0,.7.62,1.74,1.74,0,0,0,1.19-.15,1.88,1.88,0,0,0,1-.78,1,1,0,0,0,0-.91,1,1,0,0,0-.67-.59A1.79,1.79,0,0,0,95.47,35.72Z" style="fill:#667d93"></path><path d="M97.24,43.56l.16,1.36a2.2,2.2,0,0,1-1.31-.48,2.36,2.36,0,0,1-.77-1.24,2.28,2.28,0,0,1,.29-2.14,2.9,2.9,0,0,1,1.55-1,2.82,2.82,0,0,1,2.1.08,2.17,2.17,0,0,1,1.16,1.41,2.27,2.27,0,0,1-.22,2,3.34,3.34,0,0,1-2,1.25l-1-3.26a1.36,1.36,0,0,0-.81.58,1,1,0,0,0-.1.84.83.83,0,0,0,.31.47A1.09,1.09,0,0,0,97.24,43.56Zm1.34-.31a1.28,1.28,0,0,0,.77-.55.89.89,0,0,0,.1-.76.91.91,0,0,0-.52-.61,1.25,1.25,0,0,0-.92,0Z" style="fill:#667d93"></path><path d="M101.43,45.48l.15,1.24-.7.08a2,2,0,0,1,1,1.49,1.78,1.78,0,0,1-.1.87,1.47,1.47,0,0,1-.54.66,2.32,2.32,0,0,1,.7.65,1.66,1.66,0,0,1,.3.8,1.83,1.83,0,0,1-.11,1,1.37,1.37,0,0,1-.6.66,2.86,2.86,0,0,1-1,.27l-3.25.4-.17-1.35,2.91-.35a2.35,2.35,0,0,0,1-.26.64.64,0,0,0,.21-.61.92.92,0,0,0-.23-.51,1,1,0,0,0-.55-.3,3.53,3.53,0,0,0-1.07,0l-2.44.3-.16-1.35,2.78-.34a3.52,3.52,0,0,0,1-.19.6.6,0,0,0,.3-.26.79.79,0,0,0,0-.42.94.94,0,0,0-.23-.54,1,1,0,0,0-.53-.3,3.46,3.46,0,0,0-1.06,0l-2.47.3-.17-1.34Z" style="fill:#667d93"></path><path d="M98.67,57.71l-.28,1.34a2.28,2.28,0,0,1-1.09-.87A2.38,2.38,0,0,1,97,56.76a2.3,2.3,0,0,1,1-1.94,2.88,2.88,0,0,1,1.78-.44,2.85,2.85,0,0,1,2,.75,2.18,2.18,0,0,1,.65,1.71,2.27,2.27,0,0,1-.83,1.77,3.34,3.34,0,0,1-2.33.54l.13-3.39a1.35,1.35,0,0,0-1,.29,1,1,0,0,0-.36.76.83.83,0,0,0,.15.55A1.1,1.1,0,0,0,98.67,57.71Zm1.37.13a1.34,1.34,0,0,0,.91-.27.91.91,0,0,0,.33-.69,1,1,0,0,0-.29-.75,1.31,1.31,0,0,0-.87-.32Z" style="fill:#667d93"></path><path d="M96.1,64.56l.23-1.34,2.58.45a4.05,4.05,0,0,0,1.07.09.76.76,0,0,0,.42-.21.79.79,0,0,0,.21-.44,1.07,1.07,0,0,0-.08-.66,1,1,0,0,0-.44-.46,4,4,0,0,0-1.14-.3l-2.29-.4L96.89,60l5,.87-.21,1.24-.74-.13a2.08,2.08,0,0,1,.57,1.81,2.22,2.22,0,0,1-.3.78,1.33,1.33,0,0,1-.5.48,1.43,1.43,0,0,1-.61.17,4.22,4.22,0,0,1-.91-.08Z" style="fill:#667d93"></path><path d="M100.06,69.37l-1-.3.25-.89-2-.56a5.16,5.16,0,0,0-.71-.17.31.31,0,0,0-.2.07.37.37,0,0,0-.12.2,1.8,1.8,0,0,0,0,.56l-1-.17a2.78,2.78,0,0,1,.1-1.09,1.68,1.68,0,0,1,.29-.6,1.06,1.06,0,0,1,.43-.33,1.39,1.39,0,0,1,.56,0,7.53,7.53,0,0,1,.93.22l2.15.6.17-.6,1,.3-.17.6,1,.27.39,1.53-1.74-.49Z" style="fill:#667d93"></path><path d="M77.16,60a5.32,5.32,0,0,0,1.19-.4l.2-.09a8.79,8.79,0,0,0,3.55-2.67c2-3,2.45-7.87,1-11.85a7.63,7.63,0,0,0-2.93-3.49,14.11,14.11,0,0,0-7.43-2A13.76,13.76,0,0,0,66.12,41a7.94,7.94,0,0,0-4,5.48c-.48,2.22-1.23,7.72,2.22,11.07,3.15,2.76,8,3.68,12.75,2.37Zm-.23-6.14A3.22,3.22,0,0,1,75,56.17a5.17,5.17,0,0,1-2,.4,5.76,5.76,0,0,1-2.77-.7l-.07,0a4.43,4.43,0,0,1-1.56-3.45V52.3l0-.43a18.8,18.8,0,0,1,.4-6.28l0-.05c.73-1.88,2.9-2,3.61-2.1h.06a4.49,4.49,0,0,1,3.82,1.49l0,0a4.75,4.75,0,0,1,.62,2.35c0,.17,0,.34,0,.5v.09c0,.51,0,1,0,1.59a23.47,23.47,0,0,1-.2,4.29Z" style="fill:#fff"></path><path d="M24.86,39.71c0,1.25,0,2.6,0,3.86h.36c.7,0,1.42,0,2.15.08l.67.06V55.15L28,56.27l-3.15.06c0,1.26,0,2.49,0,3.73H37.49V56.32h-.63a14.59,14.59,0,0,1-2-.08l-.65-.08,0-11.94.42-.59,2.83,0c0-1.2,0-2.62,0-3.88l-11.37,0Z" style="fill:#fff"></path><path d="M45.88,59.16l.51.28c2.77,1.14,6.92,1.74,10.28,0a5.72,5.72,0,0,0,2.94-5.86,6.9,6.9,0,0,0-5-5.14l-7.9-2.29L46,45.78a1.61,1.61,0,0,1-.6-1.55l0-.13.07-.11c.74-1.26,2.16-1.16,3.2-1.09l.53,0h.09c2.89.4,4.91,1.42,6.15,3.11h.63c.93,0,1.89,0,2.83,0,0-1.58,0-3.06,0-4.61,0-.46,0-.93,0-1.41-1.13,0-2.24,0-3.19,0a2.06,2.06,0,0,1-.15.86l-.31.75L53.07,40.5c-3.08-1.29-7.8-1.64-10.92.59a5.59,5.59,0,0,0-1.88,5.85c.38,2.07,2.51,3.55,4.21,4.19,1.5.53,3.09,1,4.63,1.45,1.33.39,2.72.8,4.07,1.25l.06,0a1.53,1.53,0,0,1,1,1.5,1.49,1.49,0,0,1-.9,1.15l-.16.06A9.28,9.28,0,0,1,44,54.29l0,0a4.53,4.53,0,0,1-.39-.58l-.09-.14-3.22,0c-.06,2.5-.06,4.69,0,6.52l3.38,0,.08-1.91,1,.46C45.14,58.76,45.51,59,45.88,59.16Z" style="fill:#fff"></path><path d="M40.67,77.45H38.79V70.34a6.43,6.43,0,0,1-2.44,1.43V70.06a5.37,5.37,0,0,0,1.6-.92,3.42,3.42,0,0,0,1.19-1.57h1.53Z" style="fill:#fff"></path><path d="M46.68,67.57a2.67,2.67,0,0,1,2.23,1,6.52,6.52,0,0,1,1,4,6.54,6.54,0,0,1-1,4,2.71,2.71,0,0,1-2.23,1,2.82,2.82,0,0,1-2.32-1.11,6.55,6.55,0,0,1-.88-3.93,6.5,6.5,0,0,1,1-4A2.68,2.68,0,0,1,46.68,67.57Zm0,1.56a1,1,0,0,0-.61.22,1.5,1.5,0,0,0-.42.78,10.89,10.89,0,0,0-.19,2.47A10.64,10.64,0,0,0,45.63,75a1.7,1.7,0,0,0,.44.86,1,1,0,0,0,.61.21.92.92,0,0,0,.61-.22,1.36,1.36,0,0,0,.41-.78,10.54,10.54,0,0,0,.2-2.45,10.35,10.35,0,0,0-.18-2.38,1.75,1.75,0,0,0-.43-.87A1,1,0,0,0,46.68,69.13Z" style="fill:#fff"></path><path d="M54.32,67.57a2.71,2.71,0,0,1,2.24,1,6.52,6.52,0,0,1,1,4,6.54,6.54,0,0,1-1,4,2.69,2.69,0,0,1-2.23,1A2.79,2.79,0,0,1,52,76.51a6.48,6.48,0,0,1-.88-3.93,6.51,6.51,0,0,1,1-4A2.71,2.71,0,0,1,54.32,67.57Zm0,1.56a1,1,0,0,0-.61.22,1.43,1.43,0,0,0-.41.78,10.74,10.74,0,0,0-.2,2.47A11.3,11.3,0,0,0,53.27,75a1.79,1.79,0,0,0,.44.86,1,1,0,0,0,.61.21.92.92,0,0,0,.61-.22,1.43,1.43,0,0,0,.42-.78,10.68,10.68,0,0,0,.19-2.45,11.17,11.17,0,0,0-.17-2.38,1.75,1.75,0,0,0-.44-.87A1,1,0,0,0,54.32,69.13Z" style="fill:#fff"></path><path d="M62,67.57a2.69,2.69,0,0,1,2.24,1,6.52,6.52,0,0,1,1,4,6.47,6.47,0,0,1-1,4,2.68,2.68,0,0,1-2.23,1,2.81,2.81,0,0,1-2.31-1.11,6.48,6.48,0,0,1-.88-3.93,6.44,6.44,0,0,1,1-4A2.67,2.67,0,0,1,62,67.57Zm0,1.56a1,1,0,0,0-.61.22,1.5,1.5,0,0,0-.41.78,10.74,10.74,0,0,0-.2,2.47A10.47,10.47,0,0,0,60.92,75a1.63,1.63,0,0,0,.44.86,1,1,0,0,0,1.22,0,1.49,1.49,0,0,0,.41-.78,10.54,10.54,0,0,0,.2-2.45A10.35,10.35,0,0,0,63,70.22a1.67,1.67,0,0,0-.44-.87A1,1,0,0,0,62,69.13Z" style="fill:#fff"></path><path d="M72.79,75.7v1.75H66.18a4.62,4.62,0,0,1,.64-1.88,12.59,12.59,0,0,1,2.12-2.36,13.4,13.4,0,0,0,1.57-1.61,2.09,2.09,0,0,0,.39-1.16,1.35,1.35,0,0,0-.34-1,1.3,1.3,0,0,0-.94-.34,1.27,1.27,0,0,0-.94.36,1.87,1.87,0,0,0-.4,1.18l-1.88-.19a3.06,3.06,0,0,1,1-2.23,3.58,3.58,0,0,1,2.22-.68,3.19,3.19,0,0,1,2.29.79,2.58,2.58,0,0,1,.83,2,3.36,3.36,0,0,1-.24,1.26,5.34,5.34,0,0,1-.75,1.26,12.37,12.37,0,0,1-1.24,1.26c-.59.54-1,.9-1.13,1.08a2.78,2.78,0,0,0-.38.53Z" style="fill:#fff"></path><path d="M25.41,87.21l.6,1.45a3.34,3.34,0,0,1-2.16.32,3.64,3.64,0,0,1-2.58-3.75,4,4,0,0,1,1.55-2.58,4.2,4.2,0,0,1,2.9-1.15,3.38,3.38,0,0,1,2.47,1.31A3.15,3.15,0,0,1,29,85.08a3.12,3.12,0,0,1-.57,1.51l-1.26-.94a1.59,1.59,0,0,0-.06-2.06,1.73,1.73,0,0,0-1.35-.66,3,3,0,0,0-1.85.87,3.2,3.2,0,0,0-1.25,1.72,1.71,1.71,0,0,0,.4,1.43,1.54,1.54,0,0,0,1,.56A2.26,2.26,0,0,0,25.41,87.21Z" style="fill:#667d93"></path><path d="M32.56,94.53l1.07,1a2.49,2.49,0,0,1-1.42.51,2.63,2.63,0,0,1-1.49-.5,2.47,2.47,0,0,1-1.24-2,3.18,3.18,0,0,1,.61-1.89,3.07,3.07,0,0,1,1.81-1.38,2.38,2.38,0,0,1,1.94.38A2.45,2.45,0,0,1,35,92.45a3.61,3.61,0,0,1-.83,2.45l-3-2.05a1.49,1.49,0,0,0-.27,1,1.1,1.1,0,0,0,.49.78.94.94,0,0,0,.59.17A1.21,1.21,0,0,0,32.56,94.53Zm.9-1.18a1.42,1.42,0,0,0,.27-1,1,1,0,0,0-.45-.7,1,1,0,0,0-.85-.15,1.33,1.33,0,0,0-.78.61Z" style="fill:#667d93"></path><path d="M39.88,100.11,38.5,99.6l1.92-5.19,1.28.47-.28.74a2.23,2.23,0,0,1,.85-.47,1.12,1.12,0,0,1,.65,0,1.93,1.93,0,0,1,.81.59l-.87,1a1.25,1.25,0,0,0-.56-.46.8.8,0,0,0-.55,0,1.14,1.14,0,0,0-.52.46,8.82,8.82,0,0,0-.76,1.69Z" style="fill:#667d93"></path><path d="M50.07,96.92l-.19,1.16-1-.16-.36,2.2a5,5,0,0,0-.09.78.3.3,0,0,0,.1.21.41.41,0,0,0,.23.11,2,2,0,0,0,.6,0l-.05,1.14a3.08,3.08,0,0,1-1.18,0,2,2,0,0,1-.68-.25,1.07,1.07,0,0,1-.41-.41,1.31,1.31,0,0,1-.11-.6,6.2,6.2,0,0,1,.11-1l.39-2.38-.67-.11L47,96.43l.66.1.17-1.08,1.59-.61-.31,1.93Z" style="fill:#667d93"></path><path d="M53.82,96.4V95.05h1.46v1.35Zm0,6.28,0-5.53h1.46l0,5.54Z" style="fill:#667d93"></path><path d="M58.84,96.91l.8-.14-.07-.41a2.87,2.87,0,0,1,0-1,1.13,1.13,0,0,1,.44-.64,2,2,0,0,1,1-.38,4,4,0,0,1,1.24,0l0,1a2.46,2.46,0,0,0-.67,0,.61.61,0,0,0-.43.22.86.86,0,0,0,0,.58l.07.39,1.07-.18.2,1.13-1.08.18L62,102l-1.45.25-.73-4.32L59,98Z" style="fill:#667d93"></path><path d="M65.33,94.69l-.44-1.28,1.39-.48.44,1.28Zm2,5.94L65.58,95.4,67,94.92l1.79,5.24Z" style="fill:#667d93"></path><path d="M76.48,94.35l1.36-.56a2.3,2.3,0,0,1-.11,1.5,2.56,2.56,0,0,1-1.07,1.16,2.49,2.49,0,0,1-2.31.32,3.2,3.2,0,0,1-1.47-1.33,3.09,3.09,0,0,1-.52-2.21,2.37,2.37,0,0,1,1.13-1.62,2.48,2.48,0,0,1,2.09-.33A3.59,3.59,0,0,1,77.47,93L74.36,95a1.48,1.48,0,0,0,.83.68,1.13,1.13,0,0,0,.91-.14.86.86,0,0,0,.39-.46A1.19,1.19,0,0,0,76.48,94.35Zm-.71-1.3A1.41,1.41,0,0,0,75,92.4a1.06,1.06,0,0,0-1.31.83,1.4,1.4,0,0,0,.24,1Z" style="fill:#667d93"></path><path d="M87.05,87.26l-.92,1-.6-.55a2.26,2.26,0,0,1,0,1.07,2.14,2.14,0,0,1-.46.84,2.12,2.12,0,0,1-1.68.68,3.16,3.16,0,0,1-2-1,3.09,3.09,0,0,1-1.12-1.94,2.14,2.14,0,0,1,.6-1.72A2.11,2.11,0,0,1,82.47,85l-2-1.86,1-1.08Zm-4.77.91a2.5,2.5,0,0,0,1.11.69,1.12,1.12,0,0,0,1.09-.34,1.08,1.08,0,0,0,.27-.92,2,2,0,0,0-.7-1.14,2.24,2.24,0,0,0-1.24-.68,1.08,1.08,0,0,0-.91.37,1.12,1.12,0,0,0-.29.92A2,2,0,0,0,82.28,88.17Z" style="fill:#667d93"></path></g></g></svg>