<svg xmlns="http://www.w3.org/2000/svg" viewBox="0 0 108.74 108.74"><g id="ac52fddd-b1eb-4eff-be51-c1bc4f271fc2" data-name="Layer 2"><g id="b40c0692-7ca4-48ed-8df7-3c81fc2b57a1" data-name="Layer 1"><circle cx="54.37" cy="54.37" r="53.87" style="fill:#252c40;stroke:#00bcfa;stroke-miterlimit:10"></circle><circle cx="54.37" cy="54.37" r="35.55" style="fill:#151b2c;stroke:#00bcfa;stroke-miterlimit:10"></circle><path d="M72.39,62.21a22.92,22.92,0,0,1-4.54,4.84c-.06.1-.24.06-.3,0-.74-.47-1.55-.85-2.26-1.32a24.4,24.4,0,0,0,2.59-3.53H67a20.73,20.73,0,0,1-2.49,3.18A32.39,32.39,0,0,0,60.62,64l-.14-.11a16.61,16.61,0,0,0,.71-1.73h-.8l-.81,1.58a38.66,38.66,0,0,0-5.46-.71c-.1-.26,0-.64-.1-.87h-.77c-.06.35.09.61-.09.91a34.47,34.47,0,0,0-5.35.64L47,62.18a2.47,2.47,0,0,0-.83,0l.74,1.72-.09.09a37.85,37.85,0,0,0-3.92,1.37l-.12-.06a23.24,23.24,0,0,1-2.29-2.89c-.15-.5-.74-.2-1.07-.26a25.5,25.5,0,0,0,2.62,3.59c-.81.47-1.61,1-2.44,1.38a21.61,21.61,0,0,1-4.7-4.94,3.36,3.36,0,0,0-.95,0,23.26,23.26,0,0,0,8.95,8,0,0,0,0,1,0,0s.09.06,0,.09a24.44,24.44,0,0,0,7.49,2.31A23.42,23.42,0,0,0,73.34,62.21,5,5,0,0,0,72.39,62.21ZM60,64.84l.09-.06A16.73,16.73,0,0,1,63.72,66a19.35,19.35,0,0,1-3.3,2.81c-.69.4-1.37.85-2.09,1.19l-1.27-.55.09-.2A35.55,35.55,0,0,0,60,64.84ZM54.14,64a23.8,23.8,0,0,1,5,.58l0,.09a30.37,30.37,0,0,1-3,4.53A8.4,8.4,0,0,1,54.65,69l-.51-.06C54.08,67.2,54.05,65.68,54.14,64Zm-5.73.53A25.13,25.13,0,0,1,53.22,64l0,4.94c-.62.14-1.31.14-1.9.29a25.64,25.64,0,0,1-3.09-4.59Zm-4.79,1.57a20.05,20.05,0,0,1,3.63-1.28l.12,0a45.23,45.23,0,0,0,3,4.64c-.42.24-.92.38-1.34.61a20,20,0,0,1-5.41-3.91Zm3.84,5a21.34,21.34,0,0,1-7-3.27V67.7a16.42,16.42,0,0,1,2.2-1.23,30.83,30.83,0,0,0,5.35,4.12A2.44,2.44,0,0,1,47.46,71.06Zm11,.38a22.66,22.66,0,0,1-9.8-.06c-.06-.15.14-.18.23-.26a9.27,9.27,0,0,1,9.78.14C58.78,71.44,58.54,71.38,58.48,71.44Zm2.86-.82-1.4.44a3,3,0,0,1-.65-.47l.06-.09a26.63,26.63,0,0,0,5.26-4.06A11.64,11.64,0,0,1,66.9,67.7,20.13,20.13,0,0,1,61.34,70.62Z" style="fill:#667d93"></path><path d="M34.86,37.53a25.71,25.71,0,0,1,2.4-2.89,16.09,16.09,0,0,1,2.32-2c.77.49,1.64.91,2.38,1.37a26.38,26.38,0,0,0-2.56,3.51,1.78,1.78,0,0,0,.89,0,23.18,23.18,0,0,1,2.5-3.13c1.28.47,2.53,1,3.84,1.32l.11.11L46,37.56a2.76,2.76,0,0,0,.86,0c.27-.5.48-1.05.77-1.55a29.65,29.65,0,0,0,5.39.64c.23.21,0,.64.14.91H54c.08-.29,0-.62.08-.88A28.36,28.36,0,0,0,59.26,36l.14,0,.81,1.52A1.88,1.88,0,0,0,61,37.5l-.75-1.69.07-.06a35,35,0,0,0,4-1.4,27.72,27.72,0,0,1,2.56,3.21,2.79,2.79,0,0,0,.89-.06,12.34,12.34,0,0,0-1.28-1.84,12.61,12.61,0,0,0-1.31-1.58v-.15l2.08-1.19.3-.12a21.49,21.49,0,0,1,4.69,4.88c.36,0,.66.12,1,0A23.54,23.54,0,0,0,55.54,27.13l0,.06-.06-.06a13.64,13.64,0,0,0-2.64,0,6.89,6.89,0,0,0-1.1,0A23.31,23.31,0,0,0,33.9,37.56,3.44,3.44,0,0,0,34.86,37.53ZM47.19,35l-.12,0a24.56,24.56,0,0,1-3.54-1.2l.06-.18a23.67,23.67,0,0,1,5.26-3.82c.45.18.89.32,1.34.53l-.09.23A37.28,37.28,0,0,0,47.19,35Zm5.91.79a11.47,11.47,0,0,1-2.41-.09,17,17,0,0,1-2.61-.47,25.93,25.93,0,0,1,3.09-4.58l1.9.26C53.16,32.39,53.1,34.14,53.1,35.75Zm.92,0c-.05-1.55,0-3.28,0-4.88l1.85-.26a24.68,24.68,0,0,1,3.06,4.55A21.28,21.28,0,0,1,54,35.78Zm9.49-2.05A19.15,19.15,0,0,1,59.88,35a50.13,50.13,0,0,0-3.06-4.59c.41-.23.92-.4,1.37-.64a21.46,21.46,0,0,1,5.38,3.91Zm-3.81-5a21.08,21.08,0,0,1,7,3.27l-.06.11-2,1.14h-.15a26.54,26.54,0,0,0-5.29-4C59.2,29,59.49,28.88,59.7,28.74Zm-1.19-.3v.06a9.05,9.05,0,0,1-9.51.32c-.15-.11-.44-.17-.47-.38A22.41,22.41,0,0,1,58.51,28.44ZM40.38,32.07A21.49,21.49,0,0,1,46.54,29c.09-.09.14-.17.26-.17v.06c.24.05.42-.21.63,0s.38.27.53.41a30.3,30.3,0,0,0-5.32,4.12,10,10,0,0,1-2.26-1.23Z" style="fill:#667d93"></path><path d="M5.53,65.27l-.42-2.8A9.51,9.51,0,0,1,5,61.22a2,2,0,0,1,.18-.77,1.77,1.77,0,0,1,.51-.62,1.54,1.54,0,0,1,.78-.34,1.6,1.6,0,0,1,.94.13,1.68,1.68,0,0,1,.73.62,1.92,1.92,0,0,1,.48-1.08,1.74,1.74,0,0,1,1-.5,2,2,0,0,1,1,.09,1.86,1.86,0,0,1,.81.49,2,2,0,0,1,.47.9c.06.23.16.79.3,1.7l.36,2.37Zm1-1.59,1.62-.24L8,62.51a9.66,9.66,0,0,0-.18-1A.87.87,0,0,0,7.45,61a.84.84,0,0,0-1.08.13.84.84,0,0,0-.17.57c0,.14.06.54.16,1.21Zm2.78-.42L11.13,63l-.19-1.31a6.6,6.6,0,0,0-.19-1,.9.9,0,0,0-.36-.47.84.84,0,0,0-.62-.11.89.89,0,0,0-.77.72,5.1,5.1,0,0,0,.09,1.27Z" style="fill:#667d93"></path><path d="M11.63,54h-.77a1.91,1.91,0,0,1,.65.73,2,2,0,0,1,.23,1,1.88,1.88,0,0,1-.22.93,1.35,1.35,0,0,1-.64.59,2.84,2.84,0,0,1-1.13.19H6.51V56.07H8.86A6.61,6.61,0,0,0,10.18,56a.71.71,0,0,0,.39-.28.87.87,0,0,0,.14-.5,1,1,0,0,0-.19-.62,1,1,0,0,0-.47-.38,5.93,5.93,0,0,0-1.38-.1H6.51V52.77h5.12Z" style="fill:#667d93"></path><path d="M10.21,51.83l0-1.37a1,1,0,0,0,.64-.27,1.26,1.26,0,0,0,.3-.71,1.42,1.42,0,0,0-.09-.81.46.46,0,0,0-.34-.23.33.33,0,0,0-.26.07,1.06,1.06,0,0,0-.24.42,7.54,7.54,0,0,1-.92,2,1.33,1.33,0,0,1-1.23.45,1.43,1.43,0,0,1-1-.67A2.49,2.49,0,0,1,6.77,49a2.93,2.93,0,0,1,.55-1.51A1.77,1.77,0,0,1,8.41,47l.07,1.3a.77.77,0,0,0-.49.24,1.14,1.14,0,0,0-.25.63,1.51,1.51,0,0,0,0,.78.31.31,0,0,0,.52.09,5.5,5.5,0,0,0,.54-1.21,4,4,0,0,1,.79-1.42,1.28,1.28,0,0,1,1.06-.29,1.55,1.55,0,0,1,1.12.74,2.63,2.63,0,0,1,.28,1.79,2.84,2.84,0,0,1-.64,1.59A1.93,1.93,0,0,1,10.21,51.83Z" style="fill:#667d93"></path><path d="M6.87,45,5.65,44.7,6,43.38l1.22.27Zm5.67,1.28-5-1.13.3-1.32,5,1.13Z" style="fill:#667d93"></path><path d="M14.57,39.31l-.43,1.29-2.48-.83a3.78,3.78,0,0,0-1.05-.25.72.72,0,0,0-.44.14.82.82,0,0,0-.28.41,1.14,1.14,0,0,0,0,.66,1,1,0,0,0,.37.52,4.13,4.13,0,0,0,1.08.47l2.2.73-.43,1.29L8.23,42.12l.4-1.19.72.24a2.07,2.07,0,0,1-.3-1.88,2.18,2.18,0,0,1,.42-.73,1.39,1.39,0,0,1,.57-.4,1.43,1.43,0,0,1,.62-.07,4,4,0,0,1,.89.22Z" style="fill:#667d93"></path><path d="M14.85,34.86l.79-1.12A2.26,2.26,0,0,1,16.3,35,2.43,2.43,0,0,1,16,36.41a2.3,2.3,0,0,1-1.65,1.4,2.94,2.94,0,0,1-1.81-.31A2.83,2.83,0,0,1,11.08,36a2.17,2.17,0,0,1,.08-1.83,2.25,2.25,0,0,1,1.47-1.29,3.35,3.35,0,0,1,2.35.43L13.5,36.4a1.32,1.32,0,0,0,1,.11,1,1,0,0,0,.64-.55.8.8,0,0,0,.08-.56A1.07,1.07,0,0,0,14.85,34.86Zm-1.2-.66a1.25,1.25,0,0,0-.94-.12.9.9,0,0,0-.58.5.94.94,0,0,0,0,.8,1.24,1.24,0,0,0,.67.64Z" style="fill:#667d93"></path><path d="M15.92,33.1l.57-1.26a.92.92,0,0,0,.69,0,1.19,1.19,0,0,0,.58-.51,1.35,1.35,0,0,0,.27-.77.43.43,0,0,0-.21-.34.34.34,0,0,0-.27-.06,1,1,0,0,0-.39.28,7.33,7.33,0,0,1-1.69,1.39,1.32,1.32,0,0,1-1.3-.12,1.41,1.41,0,0,1-.65-1,2.44,2.44,0,0,1,.5-1.61A2.88,2.88,0,0,1,15.16,28a1.78,1.78,0,0,1,1.23,0l-.49,1.2a.83.83,0,0,0-.56,0,1.12,1.12,0,0,0-.48.47,1.44,1.44,0,0,0-.3.72.34.34,0,0,0,.15.28.3.3,0,0,0,.28,0,5,5,0,0,0,1-.86,3.8,3.8,0,0,1,1.33-.94A1.28,1.28,0,0,1,18.4,29a1.54,1.54,0,0,1,.7,1.16,2.57,2.57,0,0,1-.52,1.73,2.79,2.79,0,0,1-1.26,1.16A1.93,1.93,0,0,1,15.92,33.1Z" style="fill:#667d93"></path><path d="M18.92,28.52l.71-1.17a1,1,0,0,0,.69.11A1.12,1.12,0,0,0,21,27a1.4,1.4,0,0,0,.37-.73.46.46,0,0,0-.16-.37.35.35,0,0,0-.26-.09,1,1,0,0,0-.43.23,7,7,0,0,1-1.85,1.16A1.31,1.31,0,0,1,17.35,27a1.44,1.44,0,0,1-.52-1.12,2.48,2.48,0,0,1,.7-1.54,2.88,2.88,0,0,1,1.27-1,1.77,1.77,0,0,1,1.23.11l-.64,1.13a.81.81,0,0,0-.55,0,1.15,1.15,0,0,0-.54.39,1.5,1.5,0,0,0-.38.69.31.31,0,0,0,.38.35,5.21,5.21,0,0,0,1.11-.73,4,4,0,0,1,1.43-.77,1.26,1.26,0,0,1,1.05.33A1.55,1.55,0,0,1,22.44,26a2.64,2.64,0,0,1-.74,1.66,2.83,2.83,0,0,1-1.39,1A1.92,1.92,0,0,1,18.92,28.52Z" style="fill:#667d93"></path><path d="M27.63,18.39l1.36-.5a3.13,3.13,0,0,1,.23,2,3.35,3.35,0,0,1-3.55,2.28,3.71,3.71,0,0,1-2.34-1.51,3.87,3.87,0,0,1-1-2.72,3.1,3.1,0,0,1,1.28-2.25,3,3,0,0,1,2.13-.7,2.77,2.77,0,0,1,1.37.58l-.9,1.14a1.47,1.47,0,0,0-.95-.36,1.45,1.45,0,0,0-1,.35,1.58,1.58,0,0,0-.65,1.23,2.77,2.77,0,0,0,.74,1.74A3,3,0,0,0,26,20.87a1.55,1.55,0,0,0,1.33-.33,1.43,1.43,0,0,0,.55-.89A2.22,2.22,0,0,0,27.63,18.39Z" style="fill:#667d93"></path><path d="M29.61,16.94a2.87,2.87,0,0,1-.36-1.3,2.3,2.3,0,0,1,.34-1.31,2.78,2.78,0,0,1,1-1,2.56,2.56,0,0,1,3.62,1,2.67,2.67,0,0,1,.3,2.05A2.54,2.54,0,0,1,33.27,18,2.92,2.92,0,0,1,32,18.4a2.13,2.13,0,0,1-1.31-.33A3,3,0,0,1,29.61,16.94Zm1.24-.63a1.7,1.7,0,0,0,.89.84,1.2,1.2,0,0,0,1-.09,1.13,1.13,0,0,0,.57-.79,1.65,1.65,0,0,0-.27-1.2,1.66,1.66,0,0,0-.88-.83,1.12,1.12,0,0,0-1,.09,1.11,1.11,0,0,0-.57.79A1.67,1.67,0,0,0,30.85,16.31Z" style="fill:#667d93"></path><path d="M40.57,14.52,39.32,15l-1-2.42a3.72,3.72,0,0,0-.49-1,.74.74,0,0,0-.4-.25.85.85,0,0,0-.49,0,1.11,1.11,0,0,0-.51.42,1,1,0,0,0-.16.62,4.33,4.33,0,0,0,.34,1.13l.87,2.15-1.26.5-1.92-4.74,1.17-.48.28.7A2.08,2.08,0,0,1,37,10.31a2,2,0,0,1,.82-.15,1.29,1.29,0,0,1,.68.17,1.44,1.44,0,0,1,.46.43,4.56,4.56,0,0,1,.41.81Z" style="fill:#667d93"></path><path d="M42.59,8.63l.29,1L42,9.92l.57,2a4.87,4.87,0,0,0,.23.69.26.26,0,0,0,.16.13.39.39,0,0,0,.24,0,1.86,1.86,0,0,0,.49-.28l.4,1a2.61,2.61,0,0,1-1,.49,1.57,1.57,0,0,1-.67.06.9.9,0,0,1-.5-.18,1.19,1.19,0,0,1-.33-.46,5.8,5.8,0,0,1-.31-.91l-.61-2.14-.6.17-.3-1,.6-.17-.28-1L41.2,7.15l.5,1.74Z" style="fill:#667d93"></path><path d="M43.6,7.69l-.26-1.23,1.32-.28.27,1.22Zm1.22,5.69-1.07-5,1.32-.29,1.07,5Z" style="fill:#667d93"></path><path d="M52,12.3l-1.35.15-.29-2.6a3.75,3.75,0,0,0-.2-1,.78.78,0,0,0-.32-.35.84.84,0,0,0-.48-.08,1,1,0,0,0-.61.26,1,1,0,0,0-.33.55,4.86,4.86,0,0,0,0,1.18l.26,2.31-1.35.15-.57-5.09L48,7.59l.08.75a2,2,0,0,1,1.58-1,1.89,1.89,0,0,1,.83.07,1.34,1.34,0,0,1,.61.34,1.55,1.55,0,0,1,.32.54,4.13,4.13,0,0,1,.18.9Z" style="fill:#667d93"></path><path d="M56.52,12.35l0-.77a1.82,1.82,0,0,1-.75.62,2.19,2.19,0,0,1-1,.22,2,2,0,0,1-.92-.25,1.31,1.31,0,0,1-.57-.66,2.76,2.76,0,0,1-.16-1.14l.09-3.24,1.35,0-.06,2.35a6.94,6.94,0,0,0,0,1.33.75.75,0,0,0,.26.39.88.88,0,0,0,.5.16,1.08,1.08,0,0,0,.63-.18.91.91,0,0,0,.39-.46,5.59,5.59,0,0,0,.14-1.38l.05-2.16,1.36,0-.14,5.12Z" style="fill:#667d93"></path><path d="M59,12.55l.64-5.08L61,7.64l-.64,5.08Zm.73-5.77.16-1.24,1.34.17L61.08,7Z" style="fill:#667d93"></path><path d="M64.92,8.34,64.71,9.4l-.91-.17-.39,2a4.71,4.71,0,0,0-.12.72.28.28,0,0,0,.09.2.35.35,0,0,0,.21.1,1.57,1.57,0,0,0,.56,0l-.09,1.06a2.67,2.67,0,0,1-1.09,0,1.65,1.65,0,0,1-.62-.25,1,1,0,0,1-.37-.39,1.33,1.33,0,0,1-.08-.56,6.51,6.51,0,0,1,.14-.94L62.47,9l-.61-.12.2-1.06.61.12.2-1,1.49-.52L64,8.17Z" style="fill:#667d93"></path><path d="M65.56,8.44l1.38.41.13,3.84,2.19-3.14,1.34.4-3.14,4.2-.57.76a3.27,3.27,0,0,1-.52.56,1.47,1.47,0,0,1-.47.26,1.41,1.41,0,0,1-.56.07,2.28,2.28,0,0,1-.69-.12,3.36,3.36,0,0,1-.71-.3l.19-1.05a3.27,3.27,0,0,0,.53.23.83.83,0,0,0,.75-.07,1.86,1.86,0,0,0,.54-.57Z" style="fill:#667d93"></path><path d="M72.2,16.05l3.43-6.18,1.87,1-1.22,4.84,3.45-3.6,1.87,1-3.44,6.18L77,18.73l2.71-4.87L75.78,18l-1.2-.66,1.48-5.55L73.35,16.7Z" style="fill:#667d93"></path><path d="M82.05,17.91,81.22,17a1.88,1.88,0,0,1,1.24-.43,2.57,2.57,0,0,1,1.4.64,3.46,3.46,0,0,1,.94,1A1.4,1.4,0,0,1,85,19a2.81,2.81,0,0,1-.6,1.06l-1,1.24a4.77,4.77,0,0,0-.56.83,2.93,2.93,0,0,0-.24.69l-1-.82a2.44,2.44,0,0,1,.14-.4l.06-.15a2.66,2.66,0,0,1-.9-.06,2.08,2.08,0,0,1-.77-.39,1.78,1.78,0,0,1-.72-1.1,1.45,1.45,0,0,1,.31-1.14,1.41,1.41,0,0,1,.64-.48,1.3,1.3,0,0,1,.78-.05,4,4,0,0,1,1,.41,8.21,8.21,0,0,0,1.25.55l.08-.11a.72.72,0,0,0,.19-.56,1.13,1.13,0,0,0-.47-.58,1,1,0,0,0-.53-.23A.94.94,0,0,0,82.05,17.91Zm.76,2a6.36,6.36,0,0,1-.78-.34,2.48,2.48,0,0,0-.73-.27.54.54,0,0,0-.5.22.62.62,0,0,0-.14.51.78.78,0,0,0,.3.5,1.18,1.18,0,0,0,.7.24.88.88,0,0,0,.53-.16,2.74,2.74,0,0,0,.45-.48Z" style="fill:#667d93"></path><path d="M86.46,26.71l-.95-1,1.87-1.84a4.58,4.58,0,0,0,.7-.81.78.78,0,0,0,.07-.47.79.79,0,0,0-.23-.43,1.07,1.07,0,0,0-.58-.31.94.94,0,0,0-.64.08,4.51,4.51,0,0,0-.91.75l-1.65,1.63-1-1,3.65-3.6.88.9-.54.53a2.09,2.09,0,0,1,2.27,1.29,1.45,1.45,0,0,1,.1.69,1.37,1.37,0,0,1-.22.58,4.43,4.43,0,0,1-.6.7Z" style="fill:#667d93"></path><path d="M90.68,26.29l-.57-1.12a2,2,0,0,1,1.31-.09,2.67,2.67,0,0,1,1.19,1,3.07,3.07,0,0,1,.64,1.2,1.34,1.34,0,0,1,0,.83,2.93,2.93,0,0,1-.86.88l-1.27.94a5.44,5.44,0,0,0-.76.65,2.58,2.58,0,0,0-.4.61l-.81-1.07c.05-.08.13-.2.24-.35l.1-.13a2.51,2.51,0,0,1-.85-.29,2.08,2.08,0,0,1-.65-.57,1.76,1.76,0,0,1-.4-1.26,1.39,1.39,0,0,1,.59-1,1.36,1.36,0,0,1,.74-.3,1.32,1.32,0,0,1,.77.15,4.65,4.65,0,0,1,.9.67,7,7,0,0,0,1.06.85l.1-.08A.7.7,0,0,0,92,27.3a1.16,1.16,0,0,0-.3-.68.81.81,0,0,0-1-.33Zm.21,2.11a7.89,7.89,0,0,1-.66-.53,2.43,2.43,0,0,0-.63-.45.54.54,0,0,0-.54.08.63.63,0,0,0-.27.46.74.74,0,0,0,.16.56,1.21,1.21,0,0,0,.61.41.89.89,0,0,0,.56,0,2.62,2.62,0,0,0,.56-.36Z" style="fill:#667d93"></path><path d="M90,32l.6,1.43a.56.56,0,0,0-.23.34,1,1,0,0,0,.17.6,1.7,1.7,0,0,0,.53.62.68.68,0,0,0,.43.06,2.12,2.12,0,0,0,.58-.25l.65-.37a1.83,1.83,0,0,1-1.48-.92,1.9,1.9,0,0,1-.05-1.86,2.94,2.94,0,0,1,1.26-1.26,2.79,2.79,0,0,1,2-.43,2,2,0,0,1,1.36,1,1.89,1.89,0,0,1,0,1.78l.62-.36.63,1.1-4,2.28a4.42,4.42,0,0,1-1.25.54,1.72,1.72,0,0,1-.82,0,1.82,1.82,0,0,1-.7-.43,3.39,3.39,0,0,1-.69-.92,2.94,2.94,0,0,1-.53-1.83,1.42,1.42,0,0,1,.71-1Zm3.21-.44a1.83,1.83,0,0,0-.88.87,1,1,0,0,0,0,.86,1.09,1.09,0,0,0,.76.54,1.71,1.71,0,0,0,1.17-.27,1.82,1.82,0,0,0,.86-.87,1,1,0,0,0-.07-.91,1,1,0,0,0-.73-.52A1.88,1.88,0,0,0,93.22,31.51Z" style="fill:#667d93"></path><path d="M95.8,39.12l.3,1.34a2.25,2.25,0,0,1-1.36-.34A2.35,2.35,0,0,1,93.85,39a2.27,2.27,0,0,1,.06-2.16,2.9,2.9,0,0,1,1.44-1.14,2.81,2.81,0,0,1,2.09-.14,2.21,2.21,0,0,1,1.31,1.28,2.31,2.31,0,0,1,0,2,3.33,3.33,0,0,1-1.91,1.46l-1.28-3.14a1.38,1.38,0,0,0-.75.66,1,1,0,0,0,0,.85.82.82,0,0,0,.36.43A1.1,1.1,0,0,0,95.8,39.12Zm1.29-.45a1.27,1.27,0,0,0,.71-.62,1,1,0,0,0-.56-1.32,1.2,1.2,0,0,0-.92.07Z" style="fill:#667d93"></path><path d="M100.16,40.59l.28,1.21-.68.16a2,2,0,0,1,1.15,1.37,1.64,1.64,0,0,1,0,.88,1.56,1.56,0,0,1-.46.72,2.37,2.37,0,0,1,.76.57,1.69,1.69,0,0,1,.38.77,1.81,1.81,0,0,1,0,1,1.45,1.45,0,0,1-.53.72,3,3,0,0,1-1,.37l-3.19.74-.31-1.32,2.85-.66a2,2,0,0,0,.93-.36.62.62,0,0,0,.15-.62.92.92,0,0,0-.29-.49,1.06,1.06,0,0,0-.57-.24,3.76,3.76,0,0,0-1.06.14l-2.4.55-.3-1.32,2.73-.63a4.26,4.26,0,0,0,.93-.29.65.65,0,0,0,.26-.29.69.69,0,0,0,0-.43,1,1,0,0,0-.29-.51.9.9,0,0,0-.56-.24,3.72,3.72,0,0,0-1,.13l-2.42.56-.31-1.32Z" style="fill:#667d93"></path><path d="M98.71,53l-.14,1.36a2.2,2.2,0,0,1-1.18-.75,2.42,2.42,0,0,1-.48-1.37,2.29,2.29,0,0,1,.74-2,3,3,0,0,1,1.73-.63,2.88,2.88,0,0,1,2,.54,2.23,2.23,0,0,1,.83,1.63,2.29,2.29,0,0,1-.64,1.85,3.36,3.36,0,0,1-2.27.78L99.12,51a1.4,1.4,0,0,0-.91.39,1,1,0,0,0-.29.8.91.91,0,0,0,.21.53A1.17,1.17,0,0,0,98.71,53Zm1.37,0a1.28,1.28,0,0,0,.88-.36,1,1,0,0,0-.12-1.43A1.25,1.25,0,0,0,100,51Z" style="fill:#667d93"></path><path d="M96.87,60.12,97,58.77l2.61.17a4.18,4.18,0,0,0,1.08,0,.78.78,0,0,0,.56-.72,1.17,1.17,0,0,0-.15-.64,1.06,1.06,0,0,0-.49-.42A4.73,4.73,0,0,0,99.4,57l-2.31-.14.09-1.36,5.11.33-.08,1.26-.76,0a2,2,0,0,1,.76,1.74,2.11,2.11,0,0,1-.21.81,1.42,1.42,0,0,1-.45.53,1.38,1.38,0,0,1-.59.23,4.24,4.24,0,0,1-.91,0Z" style="fill:#667d93"></path><path d="M101.31,64.5l-1.07-.18.16-.91-2-.35a5,5,0,0,0-.73-.1.26.26,0,0,0-.19.09.35.35,0,0,0-.1.21,1.62,1.62,0,0,0,0,.56l-1-.06a2.65,2.65,0,0,1,0-1.09,1.75,1.75,0,0,1,.23-.63.91.91,0,0,1,.39-.37,1.26,1.26,0,0,1,.55-.1,7.08,7.08,0,0,1,1,.12l2.2.37.11-.61,1.06.18-.1.62,1,.17.55,1.47-1.78-.3Z" style="fill:#667d93"></path><path d="M77.16,60a5.32,5.32,0,0,0,1.19-.4l.2-.09a8.79,8.79,0,0,0,3.55-2.67c2-3,2.45-7.87,1-11.85a7.63,7.63,0,0,0-2.93-3.49,14.11,14.11,0,0,0-7.43-2A13.76,13.76,0,0,0,66.12,41a7.94,7.94,0,0,0-4,5.48c-.48,2.22-1.23,7.72,2.22,11.07,3.15,2.76,8,3.68,12.75,2.37Zm-.23-6.14A3.22,3.22,0,0,1,75,56.17a5.17,5.17,0,0,1-2,.4,5.76,5.76,0,0,1-2.77-.7l-.07,0a4.43,4.43,0,0,1-1.56-3.45V52.3l0-.43a18.8,18.8,0,0,1,.4-6.28l0-.05c.73-1.88,2.9-2,3.61-2.1h.06a4.49,4.49,0,0,1,3.82,1.49l0,0a4.75,4.75,0,0,1,.62,2.35c0,.17,0,.34,0,.5v.09c0,.51,0,1,0,1.59a23.47,23.47,0,0,1-.2,4.29Z" style="fill:#fff"></path><path d="M24.86,39.71c0,1.25,0,2.6,0,3.86h.36c.7,0,1.42,0,2.15.08l.67.06V55.15L28,56.27l-3.15.06c0,1.26,0,2.49,0,3.73H37.49V56.32h-.63a14.59,14.59,0,0,1-2-.08l-.65-.08,0-11.94.42-.59,2.83,0c0-1.2,0-2.62,0-3.88l-11.37,0Z" style="fill:#fff"></path><path d="M45.88,59.16l.51.28c2.77,1.14,6.92,1.74,10.28,0a5.72,5.72,0,0,0,2.94-5.86,6.9,6.9,0,0,0-5-5.14l-7.9-2.29L46,45.78a1.61,1.61,0,0,1-.6-1.55l0-.13.07-.11c.74-1.26,2.16-1.16,3.2-1.09l.53,0h.09c2.89.4,4.91,1.42,6.15,3.11h.63c.93,0,1.89,0,2.83,0,0-1.58,0-3.06,0-4.61,0-.46,0-.93,0-1.41-1.13,0-2.24,0-3.19,0a2.06,2.06,0,0,1-.15.86l-.31.75L53.07,40.5c-3.08-1.29-7.8-1.64-10.92.59a5.59,5.59,0,0,0-1.88,5.85c.38,2.07,2.51,3.55,4.21,4.19,1.5.53,3.09,1,4.63,1.45,1.33.39,2.72.8,4.07,1.25l.06,0a1.53,1.53,0,0,1,1,1.5,1.49,1.49,0,0,1-.9,1.15l-.16.06A9.28,9.28,0,0,1,44,54.29l0,0a4.53,4.53,0,0,1-.39-.58l-.09-.14-3.22,0c-.06,2.5-.06,4.69,0,6.52l3.38,0,.08-1.91,1,.46C45.14,58.76,45.51,59,45.88,59.16Z" style="fill:#fff"></path><path d="M42.22,75.7v1.75H35.61a4.48,4.48,0,0,1,.64-1.88,12.23,12.23,0,0,1,2.12-2.36,13,13,0,0,0,1.56-1.61,2.09,2.09,0,0,0,.39-1.16,1.3,1.3,0,0,0-.34-1,1.42,1.42,0,0,0-1.87,0,1.81,1.81,0,0,0-.4,1.18l-1.88-.19a3.06,3.06,0,0,1,1.05-2.23,3.56,3.56,0,0,1,2.22-.68,3.15,3.15,0,0,1,2.28.79,2.55,2.55,0,0,1,.84,2A3.36,3.36,0,0,1,42,71.57a5.09,5.09,0,0,1-.76,1.26A13.14,13.14,0,0,1,40,74.09c-.6.54-1,.9-1.13,1.08a3.4,3.4,0,0,0-.39.53Z" style="fill:#fff"></path><path d="M49.86,75.7v1.75H43.25a4.62,4.62,0,0,1,.64-1.88A12.59,12.59,0,0,1,46,73.21a13.4,13.4,0,0,0,1.57-1.61A2.09,2.09,0,0,0,48,70.44a1.35,1.35,0,0,0-.34-1,1.3,1.3,0,0,0-.94-.34,1.27,1.27,0,0,0-.94.36,1.87,1.87,0,0,0-.4,1.18l-1.88-.19a3.06,3.06,0,0,1,1.05-2.23,3.56,3.56,0,0,1,2.22-.68,3.19,3.19,0,0,1,2.29.79,2.58,2.58,0,0,1,.83,2,3.36,3.36,0,0,1-.24,1.26,5.34,5.34,0,0,1-.75,1.26,12.37,12.37,0,0,1-1.24,1.26c-.59.54-1,.9-1.13,1.08a3.4,3.4,0,0,0-.39.53Z" style="fill:#fff"></path><path d="M51.07,74.84l1.82-.22a1.74,1.74,0,0,0,.47,1.06,1.29,1.29,0,0,0,.93.37,1.24,1.24,0,0,0,1-.44,1.7,1.7,0,0,0,.4-1.19,1.62,1.62,0,0,0-.38-1.13,1.23,1.23,0,0,0-.93-.42,3.39,3.39,0,0,0-.87.14l.21-1.53a1.65,1.65,0,0,0,1.17-.34,1.19,1.19,0,0,0,.4-.93,1,1,0,0,0-1.08-1.09,1.13,1.13,0,0,0-.83.34,1.56,1.56,0,0,0-.41,1l-1.74-.3a3.85,3.85,0,0,1,.55-1.43,2.42,2.42,0,0,1,1-.83,3.29,3.29,0,0,1,1.46-.31,2.93,2.93,0,0,1,2.23.89,2.24,2.24,0,0,1-.73,3.7A2.29,2.29,0,0,1,57.1,73a2.4,2.4,0,0,1,.5,1.53,2.94,2.94,0,0,1-.94,2.2,3.27,3.27,0,0,1-2.36.92,3.23,3.23,0,0,1-2.21-.77A3,3,0,0,1,51.07,74.84Z" style="fill:#fff"></path><path d="M62,67.57a2.69,2.69,0,0,1,2.23,1,6.52,6.52,0,0,1,1,4,6.47,6.47,0,0,1-1,4,2.67,2.67,0,0,1-2.22,1,2.82,2.82,0,0,1-2.32-1.11,6.48,6.48,0,0,1-.88-3.93,6.44,6.44,0,0,1,1-4A2.68,2.68,0,0,1,62,67.57Zm0,1.56a1,1,0,0,0-.61.22,1.5,1.5,0,0,0-.42.78,10.74,10.74,0,0,0-.2,2.47A10.47,10.47,0,0,0,60.92,75a1.63,1.63,0,0,0,.44.86,1,1,0,0,0,1.22,0,1.42,1.42,0,0,0,.41-.78,10.54,10.54,0,0,0,.2-2.45A10.35,10.35,0,0,0,63,70.22a1.67,1.67,0,0,0-.44-.87A.94.94,0,0,0,62,69.13Z" style="fill:#fff"></path><path d="M71.25,77.45H69.36V70.34a6.43,6.43,0,0,1-2.44,1.43V70.06a5.4,5.4,0,0,0,1.61-.92,3.49,3.49,0,0,0,1.19-1.57h1.53Z" style="fill:#fff"></path><path d="M25.41,87.21l.6,1.45a3.34,3.34,0,0,1-2.16.32,3.64,3.64,0,0,1-2.58-3.75,4,4,0,0,1,1.55-2.58,4.2,4.2,0,0,1,2.9-1.15,3.38,3.38,0,0,1,2.47,1.31A3.15,3.15,0,0,1,29,85.08a3.05,3.05,0,0,1-.57,1.5l-1.26-.93a1.59,1.59,0,0,0-.06-2.06,1.73,1.73,0,0,0-1.35-.66,2.94,2.94,0,0,0-1.85.87,3.2,3.2,0,0,0-1.25,1.72,1.71,1.71,0,0,0,.4,1.43,1.54,1.54,0,0,0,1,.56A2.26,2.26,0,0,0,25.41,87.21Z" style="fill:#667d93"></path><path d="M32.56,94.53l1.07,1a2.42,2.42,0,0,1-1.42.51,2.56,2.56,0,0,1-1.49-.5,2.47,2.47,0,0,1-1.24-2,3.18,3.18,0,0,1,.61-1.89,3.07,3.07,0,0,1,1.81-1.38,2.38,2.38,0,0,1,1.94.38A2.45,2.45,0,0,1,35,92.45a3.65,3.65,0,0,1-.83,2.46l-3-2.06a1.45,1.45,0,0,0-.27,1,1.1,1.1,0,0,0,.49.77.94.94,0,0,0,.59.17A1.25,1.25,0,0,0,32.56,94.53Zm.9-1.18a1.4,1.4,0,0,0,.27-1,1.05,1.05,0,0,0-1.3-.86,1.37,1.37,0,0,0-.78.61Z" style="fill:#667d93"></path><path d="M39.88,100.11,38.5,99.6l1.92-5.19,1.28.47-.28.74a2.23,2.23,0,0,1,.85-.47,1.12,1.12,0,0,1,.65,0,1.93,1.93,0,0,1,.81.59l-.87,1a1.25,1.25,0,0,0-.56-.46.8.8,0,0,0-.55,0,1.19,1.19,0,0,0-.52.46,8.21,8.21,0,0,0-.76,1.69Z" style="fill:#667d93"></path><path d="M50.07,96.93l-.19,1.15-1-.16-.36,2.2a5,5,0,0,0-.09.78.3.3,0,0,0,.1.21.41.41,0,0,0,.23.11,2,2,0,0,0,.6,0l-.05,1.14a3.08,3.08,0,0,1-1.18,0,2,2,0,0,1-.68-.25,1.07,1.07,0,0,1-.41-.41,1.46,1.46,0,0,1-.11-.6,5.53,5.53,0,0,1,.12-1l.38-2.38-.67-.11L47,96.43l.66.1.18-1.08,1.58-.61-.31,1.93Z" style="fill:#667d93"></path><path d="M53.82,96.4V95.05h1.46v1.35Zm0,6.28,0-5.53h1.46l0,5.53Z" style="fill:#667d93"></path><path d="M58.84,96.91l.8-.14-.07-.41a2.87,2.87,0,0,1,0-1,1.13,1.13,0,0,1,.44-.64,2.11,2.11,0,0,1,1-.39,4.29,4.29,0,0,1,1.24,0l0,1a3,3,0,0,0-.67,0,.62.62,0,0,0-.43.23.86.86,0,0,0,0,.58l.07.39,1.07-.18.2,1.13-1.08.18L62,102l-1.44.25-.74-4.32L59,98Z" style="fill:#667d93"></path><path d="M65.33,94.69l-.44-1.28,1.39-.48.44,1.28Zm2,5.94L65.58,95.4,67,94.92l1.79,5.23Z" style="fill:#667d93"></path><path d="M76.48,94.35l1.36-.56a2.3,2.3,0,0,1-.11,1.5,2.56,2.56,0,0,1-1.07,1.16,2.49,2.49,0,0,1-2.31.32,3.2,3.2,0,0,1-1.47-1.33,3.09,3.09,0,0,1-.52-2.21,2.37,2.37,0,0,1,1.13-1.62,2.48,2.48,0,0,1,2.09-.33A3.64,3.64,0,0,1,77.48,93L74.36,95a1.48,1.48,0,0,0,.83.68,1.13,1.13,0,0,0,.91-.14.86.86,0,0,0,.39-.46A1.19,1.19,0,0,0,76.48,94.35Zm-.71-1.3A1.37,1.37,0,0,0,75,92.4a1.06,1.06,0,0,0-1.31.83,1.35,1.35,0,0,0,.24,1Z" style="fill:#667d93"></path><path d="M87.05,87.26l-.92,1-.6-.55a2.26,2.26,0,0,1,0,1.07,2.07,2.07,0,0,1-2.14,1.52,3.16,3.16,0,0,1-2-1,3.09,3.09,0,0,1-1.12-1.94,2.14,2.14,0,0,1,.6-1.72A2.07,2.07,0,0,1,82.47,85l-2-1.86,1-1.08Zm-4.77.9a2.46,2.46,0,0,0,1.11.69,1.11,1.11,0,0,0,1.36-1.26,2.06,2.06,0,0,0-.7-1.13,2.18,2.18,0,0,0-1.24-.68,1.11,1.11,0,0,0-.91.36,1.12,1.12,0,0,0-.29.93A1.9,1.9,0,0,0,82.28,88.16Z" style="fill:#667d93"></path></g></g></svg>