<?xml version="1.0" encoding="UTF-8"?> <svg xmlns="http://www.w3.org/2000/svg" id="uuid-0f3ae421-a4e8-4ac0-bc61-5e2760640b57" viewBox="0 0 524.4696 172.7221"><g id="uuid-c840e983-97d3-40d4-8981-1ddf651ecc18"><polygon points="11.854 106.6962 36.312 .0002 24.458 .0002 0 106.6962 11.854 106.6962" style="fill:#fff; stroke-width:0px;"></polygon><polygon points="35.481 106.6816 59.941 .0006 48.203 .0006 23.748 106.6816 35.481 106.6816" style="fill:#fff; stroke-width:0px;"></polygon><polygon points="142.6113 153.0205 167.0693 46.3245 155.2163 46.3245 130.7573 153.0205 142.6113 153.0205" style="fill:#fff; stroke-width:0px;"></polygon><polygon points="166.2388 153.0058 190.6988 46.3238 178.9608 46.3238 154.5058 153.0058 166.2388 153.0058" style="fill:#fff; stroke-width:0px;"></polygon><polygon points="108.1963 46.3193 91.6983 118.2893 6.9173 118.2893 13.7863 129.8713 100.8183 129.8713 119.9133 46.3193 108.1963 46.3193" style="fill:#fff; stroke-width:0px;"></polygon><polygon points="131.7451 46.3193 109.8951 141.4433 20.5741 141.4433 27.4771 153.0253 119.0861 153.0253 143.5191 46.3193 131.7451 46.3193" style="fill:#fff; stroke-width:0px;"></polygon><polygon points="82.6387 106.707 99.1367 34.737 183.9167 34.737 177.0487 23.155 90.0157 23.155 70.9207 106.707 82.6387 106.707" style="fill:#fff; stroke-width:0px;"></polygon><polygon points="59.0898 106.707 80.9398 11.582 170.2598 11.582 163.3578 0 71.7488 0 47.3158 106.707 59.0898 106.707" style="fill:#fff; stroke-width:0px;"></polygon><path d="M226.0924,11.6309h21.183c14.962,0,19.057,7.087,19.057,16.694,0,5.04-2.521,9.135-6.379,11.182,4.411,1.496,8.11,5.828,8.11,13.151,0,10.237-4.645,18.033-20.473,18.033h-21.498V11.6309ZM246.8024,22.3409h-8.111v12.678h8.111c5.199,0,6.143-3.622,6.143-6.3,0-2.756-.866-6.378-6.143-6.378M238.6914,59.9819h8.741c5.277,0,7.245-3.071,7.245-7.402,0-4.411-2.048-7.324-7.245-7.324h-8.741v14.726Z" style="fill:#fff; stroke-width:0px;"></path><path d="M284.21,55.1779c-.315,5.118,2.362,6.615,8.504,6.615,5.906,0,10.316-1.181,13.15-2.599v9.844c-4.567,1.889-10.08,2.756-14.803,2.756-12.994,0-19.294-6.615-19.294-20.79s6.221-20.789,18.427-20.789c16.852,0,18.034,12.6,17.009,24.963h-22.993ZM284.21,47.4609h11.182c.708-4.331-.237-7.796-5.04-7.796-4.253,0-6.142,2.835-6.142,7.796" style="fill:#fff; stroke-width:0px;"></path><polygon points="322.3252 31.3178 328.7822 54.4688 335.2392 31.3178 348.8622 31.3178 326.3402 90.3778 312.5592 90.3778 322.7962 68.0918 308.7022 31.3178 322.3252 31.3178" style="fill:#fff; stroke-width:0px;"></polygon><path d="M371.6211,60.9262c3.464,0,6.142-.708,8.741-1.811v10.71c-2.599,1.26-5.671,1.968-10.002,1.968-14.568,0-19.922-7.402-19.922-20.789s5.354-20.789,19.922-20.789c4.331,0,7.403.709,10.002,1.969v10.709c-2.599-1.102-5.277-1.811-8.741-1.811-5.197,0-8.742,2.441-8.742,9.922s3.545,9.922,8.742,9.922" style="fill:#fff; stroke-width:0px;"></path><path d="M397.5283,55.1779c-.314,5.118,2.363,6.615,8.505,6.615,5.906,0,10.315-1.181,13.149-2.599v9.844c-4.566,1.889-10.079,2.756-14.802,2.756-12.995,0-19.294-6.615-19.294-20.79s6.221-20.789,18.427-20.789c16.852,0,18.033,12.6,17.009,24.963h-22.994ZM397.5283,47.4609h11.183c.708-4.331-.238-7.796-5.04-7.796-4.253,0-6.143,2.835-6.143,7.796" style="fill:#fff; stroke-width:0px;"></path><path d="M442.8877,71.0063s-1.654.314-3.623.314c-6.772,0-12.127-3.464-12.127-11.103V11.6313h12.521v46.854c0,1.497.708,2.362,3.229,2.362v10.159Z" style="fill:#fff; stroke-width:0px;"></path><path d="M455.093,12.4183c4.173,0,7.48,3.308,7.48,7.481,0,4.253-3.307,7.481-7.48,7.481-4.2531,0-7.4821-3.228-7.4821-7.481,0-4.173,3.229-7.481,7.4821-7.481M464.542,71.0063s-1.654.314-3.623.314c-6.772,0-12.125-3.464-12.125-11.103v-28.899h12.519v27.167c0,1.497.709,2.362,3.229,2.362v10.159Z" style="fill:#fff; stroke-width:0px;"></path><polygon points="482.2607 43.917 492.3407 31.318 508.0887 31.318 492.8117 47.382 509.2707 70.691 493.9147 70.691 484.7807 55.808 482.2607 58.485 482.2607 70.691 470.0537 70.691 470.0537 11.631 482.2607 11.631 482.2607 43.917" style="fill:#fff; stroke-width:0px;"></polygon><path d="M225.6982,123.5058c0-20.554,7.402-30.633,25.356-30.633,8.033,0,13.861,1.182,17.404,2.756v12.285c-4.883-2.049-10.158-3.23-15.041-3.23-11.261,0-14.962,5.041-14.962,18.822,0,14.725,4.016,18.82,14.962,18.82,1.181,0,2.757-.08,3.623-.236v-11.971h-8.348v-11.259h20.947v31.261c-3.545,2.205-10.472,4.016-18.978,4.016-17.561,0-24.963-10.078-24.963-30.631" style="fill:#fff; stroke-width:0px;"></path><path d="M287.3584,137.5216c-.314,5.119,2.363,6.615,8.506,6.615,5.906,0,10.314-1.182,13.149-2.598v9.842c-4.567,1.891-10.079,2.756-14.803,2.756-12.994,0-19.293-6.613-19.293-20.789s6.22-20.789,18.427-20.789c16.852,0,18.032,12.6,17.008,24.963h-22.994ZM287.3584,129.8046h11.184c.707-4.33-.239-7.795-5.041-7.795-4.252,0-6.143,2.834-6.143,7.795" style="fill:#fff; stroke-width:0px;"></path><path d="M346.0264,125.1582c-3.623-1.496-8.111-2.52-12.679-2.52-3.544,0-5.512.788-5.512,2.756,0,2.047,1.339,2.522,3.937,2.756,12.442,1.104,15.907,4.41,15.907,12.601,0,7.559-4.489,13.386-17.798,13.386-7.244,0-11.417-1.338-14.332-2.52v-10.551c3.702,1.574,9.057,2.992,14.018,2.992,4.016,0,5.826-.788,5.826-2.756,0-2.048-1.337-2.52-3.935-2.757-12.443-1.102-15.909-4.409-15.909-12.598,0-8.033,5.2-13.389,17.325-13.389,7.166,0,10.552.946,13.152,2.048v10.552Z" style="fill:#fff; stroke-width:0px;"></path><path d="M378.4697,153.3496c-1.732.473-4.725.787-6.457.787-11.025,0-15.1981-4.644-15.1981-13.937v-16.065h-6.378v-8.348l6.378-1.731v-8.11l12.598-3.387v11.103h9.766v10.473h-9.766v15.041c0,3.07,1.183,4.804,5.198,4.804,1.654,0,3.228-.316,3.859-.472v9.842Z" style="fill:#fff; stroke-width:0px;"></path><path d="M404.6149,125.4747c0-1.813-1.259-2.758-4.646-2.758-4.962,0-10.71,1.496-14.174,2.993v-10.552c2.678-1.181,8.583-2.599,14.174-2.599,14.175,0,16.851,6.064,16.851,14.883v25.593h-7.558l-1.7339-2.992c-2.834,2.52-6.85,4.094-11.574,4.094-10.002,0-13.387-6.613-13.387-12.52,0-10.63,7.795-12.207,14.882-12.914l7.166-.709v-2.519ZM399.3389,135.5537c-3.543.472-4.961,2.204-4.961,5.276,0,2.912,1.891,4.645,4.566,4.645,2.285,0,4.412-.629,5.671-1.889v-8.741l-5.276.709Z" style="fill:#fff; stroke-width:0px;"></path><path d="M467.4561,153.0351v-27.088c0-2.049-1.104-3.15-3.544-3.15-2.678,0-4.962,1.259-5.827,2.047v28.191h-12.601v-27.088c0-2.049-1.101-3.15-3.544-3.15-2.677,0-4.961,1.259-5.826,2.047v28.191h-12.599v-39.373h7.56l1.574,2.834c2.834-2.44,8.268-3.938,12.364-3.938,5.276,0,7.875,1.418,9.134,3.229,2.834-2.125,8.032-3.229,12.756-3.229,10.239,0,13.152,6.143,13.152,13.231v27.246h-12.599Z" style="fill:#fff; stroke-width:0px;"></path><path d="M494.3106,113.6621l2.126,3.15c2.756-2.363,6.457-4.254,12.757-4.254,10.236,0,15.276,6.301,15.276,20.789s-5.04,20.79-15.276,20.79c-4.331,0-7.482-1.102-9.844-2.52v21.105h-12.599v-59.06h7.56ZM499.3496,142.3261s2.442,1.653,5.591,1.653c5.828,0,7.088-3.937,7.088-10.632,0-6.771-1.26-10.472-7.088-10.472-3.149,0-5.591,1.654-5.591,1.654v17.797Z" style="fill:#fff; stroke-width:0px;"></path><rect x="359.1356" y="75.6507" width="18.298" height="7.037" style="fill:#fff; stroke-width:0px;"></rect></g></svg> 