<svg xmlns="http://www.w3.org/2000/svg" viewBox="0 0 538.09 103.45"><defs><style>.cls-1,.cls-2{fill:#00bcfa;}.cls-1{fill-rule:evenodd;}.cls-3{opacity:0.5;}</style></defs><g id="Layer_2" data-name="Layer 2"><g id="Layer_1-2" data-name="Layer 1"><path class="cls-1" d="M358.66,26.16h-12l-18,41.37h11L343,59.48h17.83l3,8.05h11ZM346,52.39l6.42-15.75,5.8,15.75Z"/><path class="cls-1" d="M410.22,53.36A12.64,12.64,0,0,0,408.06,50a6.61,6.61,0,0,0-2.75-1.85A13.77,13.77,0,0,0,410.75,44a9.59,9.59,0,0,0,1.78-5.83q0-6.12-4-9.06t-12.43-2.94H380.78V67.53h10.36V50.63h1.22a8.61,8.61,0,0,1,4.65,1,8.62,8.62,0,0,1,2.87,3.92l5.27,11.93h11.69ZM400.4,41.92a6.49,6.49,0,0,1-4.28,1.2h-5V33.49h5a6.41,6.41,0,0,1,4.23,1.22,4.41,4.41,0,0,1,1.45,3.57A4.49,4.49,0,0,1,400.4,41.92Z"/><path class="cls-1" d="M141.94,37.6a19.8,19.8,0,0,0-6-7.12,19.37,19.37,0,0,0-6.73-3.33,41.66,41.66,0,0,0-10.34-1H103.35V67.53h15.53a45.71,45.71,0,0,0,9.59-.74,18.82,18.82,0,0,0,5.85-2.39,21.12,21.12,0,0,0,7.21-7.59,20.48,20.48,0,0,0,2.47-10A20.61,20.61,0,0,0,141.94,37.6ZM130,55.71a11.36,11.36,0,0,1-8.57,3.46h-7.71V34.52h7.71A11.39,11.39,0,0,1,130,38a12.25,12.25,0,0,1,3.31,8.88A12.25,12.25,0,0,1,130,55.71Z"/><path class="cls-1" d="M175.46,26.16h-12l-18,41.37h11l3.31-8.05h17.84l3,8.05h11ZM162.8,52.39l6.42-15.75L175,52.39Z"/><path class="cls-1" d="M256.38,26.16h-12l-18,41.37h11l3.32-8.05h17.83l3,8.05h11ZM243.71,52.39l6.42-15.75,5.8,15.75Z"/><polygon class="cls-1" points="203.91 67.53 203.91 33.85 190.22 33.85 190.22 26.16 228.5 26.16 228.5 33.85 214.81 33.85 214.81 67.53 203.91 67.53"/><polygon class="cls-1" points="278.73 67.53 278.73 26.16 287.87 26.16 301.14 42.8 314.48 26.16 323.62 26.16 323.62 67.53 313.44 67.53 313.44 41.92 301.15 57.05 288.97 41.92 288.97 67.53 278.73 67.53"/><polygon class="cls-1" points="422.57 67.53 422.57 26.16 432.93 26.16 432.93 44.57 446.98 26.16 458.61 26.16 443.94 45.28 462.25 67.53 448.79 67.53 432.93 48.09 432.93 67.53 422.57 67.53"/><polygon class="cls-1" points="466.54 67.53 466.54 26.16 494.22 26.16 494.22 33.79 476.9 33.79 476.9 42.21 493.45 42.21 493.45 49.91 476.9 49.91 476.9 59.78 494.73 59.78 494.73 67.53 466.54 67.53"/><polygon class="cls-1" points="513.5 67.53 513.5 33.85 499.81 33.85 499.81 26.16 538.1 26.16 538.1 33.85 524.4 33.85 524.4 67.53 513.5 67.53"/><rect class="cls-2" x="82.08" width="1.15" height="103.45"/><g class="cls-3"><polygon class="cls-1" points="0 66.28 41.38 88.26 67.24 10.67 0 66.28"/></g><polygon class="cls-1" points="0 66.28 41.38 88.26 46.55 5.5 0 66.28"/></g></g></svg>