<svg xmlns="http://www.w3.org/2000/svg" id="uuid-18146388-1853-4753-afb5-cca2cf45f433" viewBox="0 0 150 46.0689"><g id="uuid-e8629a3e-6f73-4140-89ae-1a18aec279c6"><path d="M39.3185,46.0689C56.1633,27.9421,40.9668-1.3655,17.0522.0494,11.9354.3504,7.2405,2.4618,4.016,6.6358-1.5624,13.8888-.8847,23.055,3.3254,30.5647c4.09,7.2875,11.1328,12.348,18.0847,12.9019,7.8129.599,13.5054-2.5017,16.2668-7.3295,2.6053-4.5396,2.805-10.9226-.4158-18.105-.3558.1967-1.0801.7566-1.4412.954-.8407-2.3201-1.6603-4.8571-2.278-7.0368,2.2232,1.3383,4.3977,2.5737,6.3875,3.8445-.3078.3205-1.0501.9968-1.3578,1.3158,6.8184,10.8535,6.0941,21.2139,1.303,28.1974-.1749.256-.3648.5082-.5562.7619Z" style="fill:#fff;"></path><path d="M68.9263,35.0139c-.0781-.0645-.1734-.1149-.2943-.1509-.1186-.0338-.268-.0496-.4458-.0496h-.6808v1.5132h.8256c.1366,0,.2462-.0165.3438-.0465.0991-.0301.1861-.0781.2582-.1389.0706-.0601.1291-.1374.1712-.2259.0428-.0916.0608-.1974.0608-.316,0-.1283-.0158-.2424-.0608-.3385-.039-.0968-.1006-.1786-.1779-.2469Z" style="fill:#fff;"></path><path d="M128.7433,33.9856c.0323-.0908.0518-.1847.0518-.289,0-.1689-.039-.3107-.1164-.4263-.0735-.1171-.2004-.2004-.3775-.2522-.0548-.015-.1133-.0263-.1876-.0323-.0691-.0075-.1592-.0098-.271-.0098h-.481v1.4457h.5554c.1508,0,.2799-.0188.388-.0548.1119-.0368.1997-.0886.274-.1524.0743-.0668.1298-.1404.1644-.2289Z" style="fill:#fff;"></path><path d="M95.0889,34.2986c.0901-.0375.1681-.0901.2267-.1524.0608-.0661.1028-.1426.1313-.2297.0263-.0886.039-.1772.039-.2695,0-.1036-.0127-.2012-.039-.2837-.0285-.0826-.0743-.1524-.1418-.2132-.0616-.06-.1381-.1036-.2387-.1343-.1006-.0315-.2297-.0481-.3941-.0481h-.5945v1.3909h.6523c.1516,0,.2724-.0181.3588-.0601Z" style="fill:#fff;"></path><path d="M95.5017,35.0139c-.0743-.0645-.1704-.1149-.2898-.1509-.1171-.0338-.2687-.0496-.4466-.0496h-.6876v1.5132h.8302c.1358,0,.2454-.0165.3452-.0465.0946-.0301.1847-.0781.256-.1389.0736-.0601.1329-.1374.1741-.2259.0413-.0916.0638-.1974.0638-.316,0-.1283-.0225-.2424-.0638-.3385-.0413-.0968-.0968-.1786-.1816-.2469Z" style="fill:#fff;"></path><path d="M50.9556,29.6889c-.1284,3.5496-.927,7.1164-2.4867,10.5233h98.9895c1.3991,0,2.5415-1.1582,2.5415-2.576v-7.9473H50.9556ZM85.079,31.4794c.0488-.0465.1336-.0691.256-.0691.1261,0,.2109.0225.2522.0653.0481.0458.0668.1276.0668.2477,0,.1269-.0218.2109-.0668.2575-.048.0465-.1329.0698-.2589.0698-.1193,0-.2034-.0233-.2492-.0668-.0443-.0458-.0675-.1306-.0675-.253,0-.1216.0233-.2072.0675-.2514ZM83.7099,31.4794c.0458-.0465.1329-.0691.2552-.0691.1201,0,.2072.0225.2515.0653.0458.0458.0683.1276.0683.2477,0,.1269-.0225.2109-.0683.2575-.0443.0465-.1313.0698-.2544.0698s-.2102-.0233-.2522-.0668c-.0458-.0458-.0713-.1306-.0713-.253,0-.1216.0255-.2072.0713-.2514ZM55.7834,36.7087c0,.0188-.0068.0338-.0128.0473-.0098.015-.0293.024-.048.0338-.0225.0075-.0518.0128-.0878.0173-.0353.006-.0803.0105-.1351.0105s-.1006-.0045-.1359-.0105c-.039-.0045-.0713-.0098-.0938-.0173-.0233-.0098-.042-.0187-.0458-.0338-.0053-.0135-.0128-.0285-.0128-.0473v-4.1178c0-.018.0075-.0345.0165-.0473.0098-.0127.0225-.0218.0488-.03.0255-.0075.0518-.015.0901-.021.0353-.0053.0803-.009.1329-.009.0548,0,.0998.0038.1351.009.036.006.0653.0135.0878.021.0187.0082.0383.0173.048.03.006.0128.0128.0293.0128.0473v4.1178ZM55.7669,31.9807c-.0473.0465-.1373.0698-.2649.0698-.1224,0-.2094-.0233-.2552-.0668-.0473-.0458-.0675-.1306-.0675-.253,0-.1201.0255-.2057.0713-.2514.0443-.0503.1359-.0736.262-.0736.1224,0,.2102.0233.2544.0698.0496.048.0713.1321.0713.2477,0,.1269-.0248.2109-.0713.2575ZM59.8418,36.6584c-.006.0293-.0098.0563-.0233.0773-.009.0202-.0195.0353-.0353.0458-.0158.0105-.0293.0158-.0518.0158h-1.899c-.0525,0-.0946-.018-.1426-.051-.0458-.0375-.0683-.0953-.0683-.1824v-3.9729c0-.018.0045-.0345.0135-.0473.009-.0127.0248-.0218.045-.03.0202-.0075.0541-.015.0938-.021.0383-.0053.0811-.009.1321-.009.0593,0,.1043.0038.1389.009.039.006.0683.0135.0908.021.0195.0082.0345.0173.045.03.0068.0128.0135.0293.0135.0473v3.7125h1.5372c.0225,0,.036.0052.0518.0127.0158.0105.0263.024.0353.0443.0135.018.0173.0435.0233.0758.003.0285.006.0668.006.111,0,.045-.003.0811-.006.1111ZM63.9641,36.75c-.0098.0173-.024.0263-.045.0361-.0233.0098-.0481.0165-.0886.021-.0376.006-.0864.0105-.1486.0105-.0766,0-.1381-.0045-.1824-.0105-.0525-.0067-.0886-.0187-.1141-.036-.0225-.0173-.0458-.0375-.057-.0623l-1.5815-2.1452v2.1452c0,.0165-.0053.033-.0158.045-.006.0165-.0218.0263-.045.036-.0195.0075-.0488.0128-.0833.0173-.0428.006-.0833.0105-.1433.0105-.0511,0-.0924-.0045-.1344-.0105-.0368-.0045-.0616-.0098-.0878-.0173-.0225-.0098-.0383-.0195-.045-.036-.0128-.012-.0128-.0285-.0128-.045v-4.1178c0-.018,0-.0345.0128-.0473.0067-.0127.0225-.0218.045-.03.0263-.0075.051-.015.0878-.021.042-.0053.0833-.009.1344-.009.06,0,.1006.0038.1433.009.0345.006.0638.0135.0833.021.0232.0082.039.0173.045.03.0105.0128.0158.0293.0158.0473v1.9065l1.5184-1.9065c.0128-.0195.0323-.036.0496-.0488.0135-.0142.0353-.0247.0608-.0338.0285-.006.0548-.0135.0968-.0187.0323-.006.0841-.006.1396-.006.0548,0,.1028.0038.1381.009.036.006.0645.0135.0841.021.0202.0105.0367.0202.0427.0345.006.0128.0135.0285.0135.0428,0,.0285-.0075.0578-.0195.0848-.0165.03-.0458.0675-.081.1216l-1.4254,1.7001,1.5312,2.0378c.036.057.0585.0946.0683.1171.009.0218.009.0375.009.0518,0,.018,0,.0338-.009.0458ZM69.7174,35.9386c-.0353.1156-.0795.2162-.1418.307-.0653.0916-.1381.1719-.2259.2402-.0908.0661-.1876.1253-.2942.1712-.1104.0473-.2289.081-.3528.1035-.1253.0256-.2672.0368-.4286.0368h-1.1236c-.0495,0-.1006-.018-.1433-.051-.045-.0375-.0676-.0953-.0676-.1824v-3.8258c0-.0871.0225-.1471.0676-.1832.0428-.033.0938-.0488.1433-.0488h.975c.2582,0,.4714.024.6328.0706.1621.0481.3002.1178.4038.2117.1164.0931.1997.2087.2492.3446.0578.1343.0833.2882.0833.4571,0,.1013-.0052.1974-.0353.2912-.0218.0938-.0608.1794-.1096.2575-.0428.0773-.1036.1479-.1741.2102-.0713.063-.1584.1126-.2492.1538.1193.0195.2289.0608.3303.1201.0998.0578.1831.1313.2642.2229.0781.0916.1329.1974.1771.319.0496.1224.0713.2552.0713.4008,0,.1351-.0158.2597-.0518.3731ZM73.7105,36.6652c0,.03-.006.0555-.018.0743-.0105.021-.027.0353-.0398.0428-.012.0098-.0293.015-.045.015h-2.0611c-.0518,0-.1006-.018-.1449-.051-.045-.0375-.0713-.0953-.0713-.1824v-3.8258c0-.0871.0263-.1471.0713-.1832.0443-.033.0931-.0488.1449-.0488h2.0379c.0135,0,.033.0022.0458.0128.0128.009.0285.0232.0353.042.009.0195.0165.0421.0233.075.0038.0308.0053.0661.0053.1104,0,.0405-.0015.075-.0053.1051-.0067.03-.0142.0533-.0233.0735-.0067.0173-.0225.0323-.0353.0413-.0127.0083-.0323.012-.0458.012h-1.6799v1.3473h1.4374c.0195,0,.0353.0045.0525.015.0098.009.0218.0225.0353.0405.0075.0188.0165.0435.0195.0728.003.0308.003.0683.003.1096,0,.0398,0,.0766-.003.1043-.003.0293-.012.0518-.0195.0675-.0135.0188-.0255.0316-.0353.0405-.0173.0068-.033.0098-.0525.0098h-1.4374v1.5357h1.7031c.0158,0,.033.0053.045.015.0127.009.0293.021.0398.0398.012.0202.018.0428.018.0743.0068.0308.0135.0653.0135.1096,0,.0405-.0067.0758-.0135.1051ZM77.4687,36.1503c-.0811.1712-.2072.3205-.3821.4421-.1741.1231-.3895.2049-.6553.244l.0901.2049c.0428.1028.0773.1824.0991.2484.024.0645.0308.1261.0308.1839,0,.0826-.0135.1576-.0481.2259-.027.0645-.0713.1223-.1298.1689-.0548.0436-.1253.0773-.2072.1021-.0811.0247-.1644.036-.265.036-.0781,0-.1471-.0045-.2199-.012-.0676-.0105-.1284-.021-.1801-.0345-.0481-.0098-.0841-.021-.0999-.0293-.0165-.0082-.03-.0202-.0383-.0345-.0075-.0127-.0142-.0278-.0203-.0473,0-.021-.0037-.0443-.0037-.0818,0-.0668.006-.1133.0187-.1358.0135-.024.0398-.036.0751-.036h.4106c.075,0,.1298-.0135.1644-.0436.0383-.0285.0653-.0728.0653-.1344,0-.0307-.0098-.0653-.027-.1073-.0082-.0436-.0255-.0878-.0443-.1374l-.1486-.319c-.0976-.009-.1936-.0225-.2838-.0428-.0886-.0165-.1816-.0435-.2754-.081-.0938-.0345-.1704-.0713-.2357-.1058-.0676-.0368-.1133-.0691-.1351-.0938-.0263-.0285-.0458-.0631-.0563-.1059-.0158-.0398-.0195-.093-.0195-.1621,0-.0481,0-.0886.0038-.1209.0075-.0323.0158-.0593.0233-.0766.006-.021.0187-.0361.0315-.0421s.03-.012.0481-.012c.0263,0,.0758.018.1306.0548.0548.0398.1276.0788.2155.1238s.1974.0848.3212.1246c.1253.0398.2702.057.4354.057.1223,0,.2319-.0173.3363-.0495.1058-.0315.1929-.0796.268-.1396.0743-.06.1321-.1358.1674-.2252.0428-.0878.0623-.1892.0623-.3025,0-.1193-.0263-.2237-.087-.3107-.0525-.0848-.1269-.1592-.2139-.2282-.0908-.0653-.1966-.1231-.31-.1772-.1164-.0555-.2357-.1111-.3588-.1674-.1193-.0563-.2394-.1179-.3513-.1862-.1163-.069-.2206-.1509-.3115-.2417-.0901-.0916-.1644-.2042-.2192-.3273-.0585-.1253-.0848-.274-.0848-.4503,0-.1779.0338-.3393.0976-.4774.0683-.1411.1554-.2582.2687-.3543.1193-.0953.2552-.1689.4158-.2177.1591-.051.337-.0743.5171-.0743.0968,0,.1982.0098.2912.0233.0968.0187.1907.0413.2717.0683.0863.0278.1614.0593.2252.0916.0683.0345.1133.0638.1336.0841.0225.021.0383.0345.0413.0503.0022.0113.0127.0278.0158.0458.0038.0173.0075.0413.0105.0668.0023.027.0023.0623.0023.1043,0,.0398,0,.0743-.0053.1066-.0038.0293-.0075.0578-.0135.0781-.0075.021-.0128.0353-.0285.045-.0135.0105-.0225.015-.0428.015-.0218,0-.0615-.0158-.1133-.0473-.0548-.0307-.1126-.0645-.1906-.1036-.0736-.0398-.1674-.0728-.265-.1073-.1058-.0307-.2214-.048-.3483-.048-.1193,0-.2229.0173-.31.048-.0908.0345-.1614.0758-.2192.1306-.0585.0518-.1006.1126-.1329.1884-.0256.0728-.0413.1501-.0413.2334,0,.1178.0285.2199.0833.3063.0548.0856.1291.1644.2192.2281.0938.0676.1974.1299.3138.1832.1156.0563.2357.1111.358.1674.1201.054.2424.1171.3595.1846.1156.0683.2229.1486.313.2402.0908.0916.1651.2004.2192.3243.0585.1246.0908.2732.0908.4436,0,.1981-.0413.3858-.1224.5577ZM81.6233,32.7081l-1.2152,2.4199v1.5808c0,.0188-.0022.0338-.0158.0473-.0068.015-.0218.024-.0488.0338-.0188.0075-.051.0128-.0871.0173-.036.006-.0841.0105-.1351.0105-.0593,0-.1043-.0045-.1404-.0105-.0338-.0045-.0638-.0098-.0901-.0173-.0188-.0098-.0345-.0187-.0443-.0338-.0098-.0135-.0165-.0285-.0165-.0473v-1.5808l-1.2122-2.4199c-.0255-.0518-.0421-.0916-.0421-.1216-.0098-.03,0-.0503.0135-.0645.0158-.0158.0443-.027.0908-.0323.042-.006.099-.006.1741-.006.0645,0,.1193,0,.1614.006.039.0052.0743.0127.0976.0187.0255.009.0383.0218.0518.0338.0158.0143.0247.0345.0383.0556l.5937,1.2332c.0563.1178.1066.2394.1659.3678.0541.1291.1066.2589.1681.3888h.0067c.0503-.1261.1021-.253.1569-.3768.0563-.1238.1111-.2455.1659-.37l.5937-1.2385c.0068-.0233.0165-.0413.0323-.0585.0105-.0135.0263-.0263.0488-.0353.0195-.006.048-.0135.0833-.0187.0428-.006.0871-.006.1434-.006.0833,0,.1449.0038.1899.009.0428.006.0773.0158.0931.0315.0202.0158.027.039.0202.0668-.0068.0285-.0202.0683-.0421.1171ZM86.2724,35.2128c0,.2582-.039.4924-.1133.6958-.0811.2049-.1847.3783-.3265.5202-.1449.1411-.3167.2492-.5202.3212-.2042.0736-.4361.1096-.6906.1096-.2372,0-.4533-.0338-.65-.1036-.1936-.0683-.3588-.1689-.5006-.3017-.1389-.1351-.2447-.301-.3198-.5052-.0788-.1997-.1141-.4338-.1141-.695v-2.6631c0-.018.0038-.0345.0135-.0473.0098-.0127.0218-.0218.045-.03.0263-.0075.0525-.015.0848-.021.0413-.0053.0863-.009.1381-.009.0548,0,.1028.0038.1433.009.0315.006.0638.0135.0833.021.0225.0082.039.0173.045.03.006.0128.0165.0293.0165.0473v2.5933c0,.1989.0233.3731.0676.5209.048.1486.1223.2732.2132.3693.0931.099.2041.1726.3288.2237.1329.0488.2822.0728.4361.0728.1689,0,.3175-.024.4474-.0713.1284-.0481.2387-.1209.3288-.2199.0871-.0976.1584-.2177.2064-.3618.0458-.1418.0683-.3107.0683-.5029v-2.6241c0-.018.0067-.0345.0158-.0473.0098-.0127.027-.0218.0428-.03.0218-.0075.0548-.015.0863-.021.042-.0053.0848-.009.1389-.009.0563,0,.1006.0038.1358.009.0361.006.0676.0135.0848.021.0255.0082.042.0173.048.03.0105.0128.0165.0293.0165.0473v2.6218ZM90.5658,36.6652c-.006.03-.0158.0555-.0255.0743-.0105.021-.0233.0353-.0368.0428-.012.0098-.0285.015-.051.015h-2.5325c-.0585,0-.1044-.018-.1381-.0548-.0405-.0338-.0563-.0901-.0563-.1674v-.1231c0-.0293.0038-.0556.0068-.0811.0038-.024.009-.0495.0233-.0781.009-.027.0263-.0578.0443-.0908.0195-.0361.0458-.0766.0743-.1224l1.9801-3.0977h-1.9568c-.0233,0-.042-.006-.0593-.0142-.012-.0105-.0255-.021-.0345-.0398-.0127-.0195-.0195-.0421-.0218-.0736-.0075-.0293-.0105-.0661-.0105-.1036,0-.045.003-.0818.0105-.1149.0022-.0307.009-.0555.0218-.075.009-.0188.0225-.033.0345-.042.0173-.0105.036-.0128.0593-.0128h2.3899c.0585,0,.1043.0158.1396.0488.033.036.0481.0893.0481.1584v.1298c0,.0345,0,.0683-.0038.0946-.0015.0285-.0113.0563-.0248.0833-.0105.0293-.0263.0616-.0458.0931-.0158.033-.045.0721-.0706.1171l-1.9711,3.0849h2.0934c.039,0,.0713.018.0878.0548.0195.0398.0323.1021.0323.1861,0,.0436-.0038.0788-.0068.1081ZM96.2943,35.9386c-.036.1156-.0818.2162-.1426.307-.0638.0916-.1358.1719-.2229.2402-.0908.0661-.1861.1253-.2972.1712-.1066.0473-.2267.081-.349.1035-.1261.0256-.268.0368-.4301.0368h-1.1229c-.0495,0-.0983-.018-.1464-.051-.042-.0375-.0645-.0953-.0645-.1824v-3.8258c0-.0871.0225-.1471.0645-.1832.0481-.033.0968-.0488.1464-.0488h.975c.2589,0,.4691.024.629.0706.1614.0481.3047.1178.4106.2117.1103.0931.1914.2087.2454.3446.0556.1343.0878.2882.0878.4571,0,.1013-.0158.1974-.039.2912-.0225.0938-.0608.1794-.1096.2575-.0413.0773-.1058.1479-.1772.2102-.0743.063-.1531.1126-.2499.1538.1201.0195.2297.0608.3325.1201.1013.0578.1884.1313.2657.2229.0743.0916.1389.1974.1809.319.0421.1224.0638.2552.0638.4008,0,.1351-.015.2597-.0503.3731ZM98.4816,36.7087c0,.0188-.003.0338-.0128.0473-.0105.015-.024.024-.0458.0338-.0225.0075-.051.0128-.0833.0173-.0427.006-.0848.0105-.1396.0105s-.1043-.0045-.1366-.0105c-.0405-.0045-.0668-.0098-.093-.0173-.0218-.0098-.039-.0187-.0451-.0338-.0127-.0135-.0127-.0285-.0127-.0473v-4.1178c0-.018,0-.0345.0127-.0473.0143-.0127.0293-.0218.0481-.03.0263-.0075.0563-.015.0901-.021.0398-.0053.0848-.009.1366-.009.0548,0,.0968.0038.1396.009.0323.006.0608.0135.0833.021.0218.0082.0353.0173.0458.03.0098.0128.0128.0293.0128.0473v4.1178ZM98.4688,31.9807c-.0525.0465-.1403.0698-.2649.0698-.1261,0-.2072-.0233-.2552-.0668-.0458-.0458-.0675-.1306-.0675-.253,0-.1201.0218-.2057.0675-.2514.0481-.0503.1344-.0736.2612-.0736.1298,0,.2064.0233.2589.0698.0481.048.0706.1321.0706.2477,0,.1269-.0225.2109-.0706.2575ZM102.5415,36.6584c-.0022.0293-.012.0563-.0218.0773-.0098.0202-.0225.0353-.0353.0458-.0173.0105-.0323.0158-.0548.0158h-1.8938c-.0518,0-.1036-.018-.1419-.051-.0488-.0375-.0713-.0953-.0713-.1824v-3.9729c0-.018.0067-.0345.0127-.0473.0098-.0127.0225-.0218.0458-.03.0255-.0075.051-.015.0931-.021.033-.0053.0818-.009.1321-.009.0556,0,.1006.0038.1366.009.0383.006.0706.0135.0863.021.0263.0082.039.0173.0518.03.006.0128.0105.0293.0105.0473v3.7125h1.538c.0225,0,.0375.0052.0548.0127.0127.0105.0255.024.0353.0443.0098.018.0195.0435.0218.0758.0038.0285.0105.0668.0105.111,0,.045-.0067.0811-.0105.1111ZM104.445,36.7087c0,.0188-.0022.0338-.0128.0473-.0067.015-.0263.024-.048.0338-.0203.0075-.0488.0128-.0848.0173-.042.006-.0841.0105-.1381.0105-.0556,0-.0968-.0045-.1366-.0105-.0353-.0045-.0676-.0098-.0901-.0173-.0188-.0098-.0368-.0187-.0458-.0338-.006-.0135-.0158-.0285-.0158-.0473v-4.1178c0-.018.0098-.0345.0158-.0473.0135-.0127.0301-.0218.0525-.03.0255-.0075.0518-.015.0871-.021.039-.0053.0841-.009.1329-.009.054,0,.0961.0038.1381.009.0361.006.0645.0135.0848.021.0218.0082.0413.0173.048.03.0105.0128.0128.0293.0128.0473v4.1178ZM104.4285,31.9807c-.0443.0465-.1351.0698-.2582.0698-.1261,0-.2132-.0233-.2582-.0668-.045-.0458-.0721-.1306-.0721-.253,0-.1201.027-.2057.0758-.2514.0473-.0503.1329-.0736.2612-.0736.1223,0,.2072.0233.2552.0698.0481.048.0713.1321.0713.2477,0,.1269-.0233.2109-.0751.2575ZM108.4713,36.1503c-.0818.1712-.2072.3205-.3821.4421-.1741.1231-.3903.2049-.656.244l.0908.2049c.0481.1028.0736.1824.1006.2484.0247.0645.0315.1261.0315.1839,0,.0826-.012.1576-.0458.2259-.0315.0645-.0795.1223-.1313.1689-.0615.0435-.1298.0773-.2041.1021-.0841.0248-.1704.0361-.265.0361-.0773,0-.1516-.0045-.2229-.012-.0675-.0105-.1291-.021-.1801-.0345-.0481-.0098-.0878-.021-.1006-.0293-.0195-.0082-.0323-.0202-.039-.0345-.0068-.0127-.0128-.0278-.0158-.0473-.006-.021-.0098-.0443-.0098-.0818,0-.0668.0098-.1133.0225-.1358.0135-.0241.0383-.0361.0713-.0361h.4136c.0676,0,.1261-.0135.1644-.0435.0421-.0285.0616-.0728.0616-.1344,0-.0308-.0068-.0653-.0225-.1073-.0165-.0435-.0285-.0878-.048-.1373l-.1456-.319c-.1006-.009-.1974-.0225-.2844-.0428-.0946-.0165-.1847-.0435-.2778-.0811-.0946-.0345-.1718-.0713-.2364-.1058-.0683-.0367-.1096-.069-.1321-.0938-.0255-.0285-.045-.063-.0585-.1058-.009-.0398-.0195-.093-.0195-.1621,0-.048.0038-.0886.0105-.1209.0038-.0323.009-.0593.0158-.0766.0098-.021.0195-.036.0361-.042.012-.006.0285-.012.0473-.012.0293,0,.075.018.1291.0548.0555.0398.1299.0788.2147.1238.0901.045.1967.0848.322.1246.1261.0398.2724.057.4338.057.1223,0,.2387-.0173.3415-.0495.0968-.0316.1914-.0796.262-.1396.0781-.0601.1321-.1358.1719-.2252.0353-.0878.0638-.1892.0638-.3025,0-.1193-.0323-.2237-.0871-.3107-.0548-.0848-.1253-.1591-.2192-.2282-.0946-.0653-.1914-.1231-.31-.1771-.1171-.0556-.2335-.1111-.3558-.1674-.1186-.0563-.2395-.1178-.352-.1861-.1201-.069-.2199-.1509-.3138-.2417-.0901-.0915-.1644-.2041-.2162-.3272-.0578-.1253-.0848-.274-.0848-.4503,0-.1787.0293-.3393.0968-.4781.0653-.1404.1524-.2582.2724-.3535.1126-.0953.2507-.1689.4166-.2177.1524-.051.3295-.0751.5142-.0751.0938,0,.1929.0105.2897.0241.0938.0187.1847.0413.2725.0683.0833.0278.1614.0593.2221.0915.0676.0345.1126.0638.1359.0841.0195.021.036.0345.039.0503.009.0113.0127.0278.0195.0458.003.0172.003.0413.003.0668.0068.027.0068.0623.0068.1043,0,.0398,0,.0743-.0068.1066,0,.0293-.003.0578-.0098.0781-.0105.021-.0158.0353-.0323.045-.0098.0105-.0233.015-.0428.015-.0225,0-.0578-.0158-.1126-.0473-.048-.0308-.1126-.0645-.1861-.1036-.0796-.0398-.1689-.0728-.2695-.1073-.1058-.0308-.2192-.048-.3483-.048-.1156,0-.2237.0172-.3137.048-.0878.0345-.1584.0758-.2162.1306-.0585.0518-.1006.1126-.1306.1884-.027.0728-.0443.1501-.0443.2335,0,.1178.0323.2199.0841.3062.0555.0856.1321.1644.2229.2282.0908.0676.1936.1299.3107.1832.1201.0563.2387.1111.361.1674.1201.054.2387.1171.3558.1846.1193.0683.2229.1486.3138.2402.0961.0916.1704.2004.2214.3243.0563.1246.0886.2732.0886.4436,0,.1981-.039.3858-.1223.5577ZM110.6773,36.7087c0,.0187-.0038.0338-.0165.0473-.006.015-.0218.024-.045.0338-.0218.0075-.0488.0128-.0841.0173-.0383.006-.0811.0105-.1359.0105-.0578,0-.1028-.0045-.1418-.0105-.033-.0045-.0683-.0098-.0871-.0173-.0233-.0098-.039-.0187-.0488-.0338-.0067-.0135-.0127-.0285-.0127-.0473v-4.1178c0-.0188.006-.0345.0158-.0473.0105-.0128.0255-.0218.0495-.03.0248-.0075.0541-.015.0901-.021.0345-.0053.0803-.009.1351-.009s.0976.0038.1359.009c.0353.006.0623.0135.0841.021.0233.0082.039.0172.045.03.0127.0127.0165.0285.0165.0473v4.1178ZM110.6608,31.9807c-.0488.0465-.1359.0698-.2612.0698-.1261,0-.2109-.0233-.256-.0676-.045-.045-.0698-.1298-.0698-.2522,0-.1201.0247-.2057.0728-.2515.0458-.0503.1321-.0735.262-.0735.1231,0,.2072.0233.2522.0698.0488.0481.0781.1321.0781.2477,0,.1269-.0293.2109-.0781.2575ZM117.1842,36.7087c0,.0187-.0067.0338-.0135.0473-.009.015-.0263.024-.0488.0338-.0195.0075-.051.0128-.0795.0173-.0353.006-.0818.0105-.1396.0105-.048,0-.0908-.0045-.1291-.0105-.0353-.0045-.0653-.0098-.0841-.0173-.0225-.0098-.036-.0187-.0458-.0338-.009-.0135-.0128-.0285-.0128-.0473v-3.7357h-.0098l-1.5312,3.7544c-.003.0143-.0128.0285-.0255.0398-.0098.0082-.0293.021-.0518.0278-.0195.0075-.0488.012-.0803.0158-.036.0045-.0773.0067-.1171.0067-.045,0-.0833-.0022-.1193-.0067-.0323-.0053-.0585-.012-.0841-.0188-.0233-.0082-.0353-.0172-.051-.0293-.0098-.009-.0195-.0233-.0225-.0353l-1.4652-3.7544v3.7357c0,.0187-.0075.0338-.012.0473-.009.015-.0285.024-.0481.0338-.0232.0075-.0518.0128-.0908.0173-.0323.006-.0773.0105-.1329.0105-.0548,0-.0991-.0045-.1321-.0105-.039-.0045-.0608-.0098-.0878-.0173-.0158-.0098-.0315-.0187-.042-.0338-.0098-.0135-.0098-.0285-.0098-.0473v-3.9451c0-.0946.0202-.1606.0721-.1989.048-.0405.1036-.0585.1644-.0585h.3438c.0735,0,.1344.0045.1861.018.0555.012.1006.0323.1389.0623.039.03.0713.0645.0976.1081.0285.0458.051.0998.0743.1584l1.2407,3.1067h.0195l1.288-3.0984c.0263-.0645.0563-.1208.081-.1689.0353-.045.0623-.0833.0976-.1096.0353-.0278.0743-.0488.1118-.0608.0421-.012.0908-.0158.1456-.0158h.3625c.0315,0,.0653.0022.0968.0127.03.0113.0518.0248.0743.0458.0233.0218.0353.0488.0518.0803.0128.0338.0195.0721.0195.1186v3.9451ZM122.7453,36.1503c-.0818.1712-.2086.3205-.3858.4421-.1681.1231-.3911.2049-.653.244l.0878.2049c.0518.1028.0841.1824.1028.2484.0225.0645.0301.1261.0301.1839,0,.0826-.0135.1576-.0458.2259-.03.0645-.0743.1223-.1291.1689-.0608.0435-.1291.0773-.2101.1021-.0773.0248-.1652.0361-.2612.0361-.0818,0-.1524-.0045-.2237-.012-.0676-.0105-.1284-.021-.1801-.0345-.0488-.0098-.0841-.021-.0984-.0293-.0187-.0082-.0315-.0202-.0375-.0345-.0105-.0127-.0127-.0278-.0233-.0473-.003-.021-.003-.0443-.003-.0818,0-.0668.006-.1133.0225-.1358.0098-.0241.0353-.0361.0743-.0361h.4076c.0743,0,.1291-.0135.1681-.0435.042-.0285.06-.0728.06-.1344,0-.0308-.0052-.0653-.021-.1073-.0165-.0435-.0323-.0878-.0496-.1373l-.1486-.319c-.0998-.009-.1936-.0225-.2844-.0428-.0901-.0165-.1779-.0435-.274-.0811-.0931-.0345-.1749-.0713-.2357-.1058-.0653-.0367-.1096-.069-.1358-.0938-.0263-.0285-.0428-.063-.0585-.1058-.009-.0398-.0158-.093-.0158-.1621,0-.048.003-.0886.009-.1209.003-.0323.0068-.0593.0173-.0766.009-.021.0218-.036.0353-.042.0128-.006.0285-.012.0481-.012.03,0,.0713.018.1261.0548.0548.0398.1329.0788.2162.1238.0901.045.1981.0848.3205.1246.1291.0398.2709.057.4353.057.1261,0,.2372-.0173.343-.0495.0968-.0316.1876-.0796.2612-.1396.0751-.0601.1329-.1358.1712-.2252.0421-.0878.0585-.1892.0585-.3025,0-.1193-.0255-.2237-.0833-.3107-.0563-.0848-.1261-.1591-.2177-.2282-.0931-.0653-.1899-.1231-.31-.1771-.1156-.0556-.2319-.1111-.3558-.1674-.1223-.0563-.2417-.1178-.355-.1861-.1156-.069-.2154-.1509-.3107-.2417-.0863-.0915-.1606-.2041-.2184-.3272-.0578-.1253-.081-.274-.081-.4503,0-.1787.03-.3393.0975-.4781.0638-.1404.1539-.2582.2672-.3535.1201-.0953.2552-.1689.4143-.2177.1606-.051.3348-.0751.5239-.0751.0886,0,.1861.0105.283.0241.0968.0187.1914.0413.2717.0683.0841.0278.1644.0593.2297.0915.0653.0345.1096.0638.1291.0841.0225.021.0353.0345.0413.0503.0105.0113.0135.0278.0172.0458.006.0172.006.0413.012.0668v.1043c0,.0398,0,.0743-.006.1066,0,.0293-.006.0578-.0098.0781-.0098.021-.0195.0353-.0323.045-.0098.0105-.0225.015-.0383.015-.0263,0-.0623-.0158-.1171-.0473-.0473-.0308-.1164-.0645-.1876-.1036-.0743-.0398-.1674-.0728-.271-.1073-.1036-.0308-.2169-.048-.3453-.048-.1193,0-.2229.0172-.3145.048-.087.0345-.1576.0758-.2154.1306-.0578.0518-.1006.1126-.1298.1884-.0285.0728-.045.1501-.045.2335,0,.1178.0323.2199.0878.3062.051.0856.1291.1644.2154.2282.0938.0676.1981.1299.316.1832.1148.0563.2364.1111.3603.1674.1223.054.2379.1171.3558.1846.1156.0683.2222.1486.316.2402.0901.0916.1644.2004.2192.3243.0578.1246.0848.2732.0848.4436,0,.1981-.039.3858-.1186.5577ZM124.9506,36.7087c0,.0187-.003.0338-.0128.0473-.0098.015-.0255.024-.0488.0338-.0225.0075-.0488.0128-.0908.0173-.0323.006-.0773.0105-.1351.0105-.0518,0-.0975-.0045-.1328-.0105-.0383-.0045-.0713-.0098-.0931-.0173-.0202-.0098-.0353-.0187-.0458-.0338-.0098-.0135-.0098-.0285-.0098-.0473v-4.1178c0-.0188,0-.0345.0098-.0473.0135-.0128.0323-.0218.0556-.03.0225-.0075.0518-.015.0863-.021.036-.0053.0781-.009.1298-.009.0578,0,.1028.0038.1351.009.042.006.0683.0135.0908.021.0233.0082.039.0172.0488.03.0098.0127.0128.0285.0128.0473v4.1178ZM124.934,31.9807c-.0518.0465-.1418.0698-.2612.0698-.1261,0-.2101-.0233-.2582-.0676-.042-.045-.0683-.1298-.0683-.2522,0-.1201.0263-.2057.0706-.2515.0525-.0503.1358-.0735.262-.0735.1193,0,.2101.0233.2552.0698.0481.0481.0706.1321.0706.2477,0,.1269-.0247.2109-.0706.2575ZM129.6418,36.756c-.0038.015-.0233.024-.0428.0338-.0211.009-.0541.0158-.0938.021-.0412.0045-.0901.0067-.1576.0067-.0586,0-.1036-.0022-.1427-.0067-.0345-.0053-.0646-.0135-.087-.021-.0195-.0105-.0376-.0247-.051-.0435-.0136-.018-.0233-.0398-.033-.0668l-.3942-1.0096c-.045-.1156-.0938-.2214-.1456-.3175-.048-.0976-.1066-.1787-.1734-.25-.0691-.069-.1486-.1216-.2462-.1614-.0901-.0383-.1997-.0585-.3295-.0585h-.3835v1.8262c0,.0187-.0105.0338-.0165.0473-.0106.015-.0233.024-.0497.0338-.0158.0075-.048.0128-.0825.0173-.0361.006-.0781.0105-.1404.0105-.0548,0-.0968-.0045-.1321-.0105-.0413-.0045-.0706-.0098-.0931-.0173-.0233-.0098-.0353-.0187-.0458-.0338-.0068-.0135-.0127-.0285-.0127-.0473v-3.9707c0-.087.0233-.1471.0675-.1831.048-.033.0938-.0488.1486-.0488h.912c.1066,0,.1966,0,.2709.0075.0668.0052.1329.0105.1907.0172.1673.0301.3123.0721.4391.1359.1261.063.2357.1411.3205.2364.087.0938.1508.2027.1937.3243.045.1269.0645.2597.0645.4098,0,.1419-.0165.2695-.0555.3836-.0413.1148-.0968.2154-.1704.301-.072.0901-.1583.1658-.262.2304-.1005.0638-.2176.1156-.3393.1599.0706.0315.1329.0698.1907.1193.0578.0465.1133.1058.1614.1704.048.0668.0968.1426.1418.2274.0421.0863.0879.1861.136.2942l.379.9435c.0315.0803.0541.1366.0639.1689.009.0316.009.0571.009.0728,0,.0187,0,.0338-.009.0473ZM133.9674,36.75c-.0098.0173-.0255.0255-.0458.036-.0278.009-.0518.0165-.0901.021-.0383.006-.0908.0105-.1486.0105-.0736,0-.1389-.0045-.1869-.0105-.0488-.0067-.081-.0188-.1096-.036-.0225-.0173-.045-.0376-.0585-.0623l-1.5792-2.1452v2.1452c0,.0165-.0037.033-.0127.045-.0105.0165-.0263.0263-.0495.036-.0195.0075-.0511.0128-.0871.0173-.039.006-.081.0105-.1381.0105-.0525,0-.0968-.0045-.1366-.0105-.0353-.0045-.0645-.0098-.087-.0173-.0188-.0098-.0383-.0195-.0488-.036-.006-.012-.0128-.0285-.0128-.045v-4.1178c0-.0188.0068-.0345.0128-.0473.0105-.0128.03-.0218.0488-.03.0225-.0075.0518-.015.087-.021.0398-.0053.0841-.009.1366-.009.0571,0,.0991.0038.1381.009.036.006.0676.0135.0871.021.0232.0082.039.0172.0495.03.009.0127.0127.0285.0127.0473v1.9065l1.5207-1.9065c.0105-.0195.0263-.036.0458-.0488.0158-.0142.0353-.0248.0645-.0338.0225-.006.0578-.0135.0901-.0188.0353-.006.0848-.006.1396-.006.0571,0,.1059.0038.1381.009.039.006.0653.0135.0841.021.0255.0105.0428.0202.0488.0345.0067.0128.0067.0285.0067.0428,0,.0285-.0067.057-.0172.0848-.0181.0301-.0405.0676-.0833.1209l-1.4216,1.7008,1.5289,2.0379c.0375.057.0638.0946.0736.1171.0067.0218.0098.0375.0098.0518,0,.0181-.003.0338-.0098.0458ZM137.7842,36.6652c0,.0301-.0105.0556-.0233.0743-.0098.021-.0233.0353-.036.0428-.0135.0098-.0293.015-.0488.015h-2.0604c-.0496,0-.0976-.018-.1426-.051-.0458-.0375-.0683-.0953-.0683-.1824v-3.8258c0-.087.0225-.1471.0683-.1831.045-.033.093-.0488.1426-.0488h2.0378c.0165,0,.0353.0022.0458.0127.012.009.0315.0233.0353.0421.009.0195.0187.042.0263.075,0,.0308.006.0661.006.1104,0,.0405-.006.075-.006.1043-.0075.0308-.0173.0541-.0263.0743-.0038.0173-.0233.0323-.0353.0413-.0105.0082-.0293.012-.0458.012h-1.6805v1.3473h1.4411c.0195,0,.0323.0045.0495.015.0158.009.0248.0225.0353.0405.009.0188.0195.0435.0218.0728.0038.0308.0068.0683.0068.1096,0,.0398-.003.0766-.0068.1044-.0022.0293-.0127.0518-.0218.0675-.0105.0188-.0195.0308-.0353.0405-.0173.006-.03.0098-.0495.0098h-1.4411v1.5357h1.7031c.0195,0,.0353.0052.0488.015.0127.009.0263.021.036.0398.0128.0202.0233.0427.0233.0743.0015.0307.0075.0653.0075.1096,0,.0405-.006.0758-.0075.105ZM142.1061,32.8604c-.0067.03-.0127.0541-.0225.0736-.0128.0195-.0255.0323-.0398.042-.012.0075-.0285.0128-.0443.0128h-1.2122v3.7199c0,.0187-.003.0338-.009.0473-.0067.015-.0233.024-.0481.0338-.0232.0075-.0488.0128-.0886.0173-.0353.006-.0796.0105-.1351.0105-.0541,0-.1006-.0045-.1329-.0105-.0413-.0045-.0736-.0098-.0968-.0173-.0195-.0098-.0353-.0187-.042-.0338-.0105-.0135-.0128-.0285-.0128-.0473v-3.7199h-1.2114c-.0165,0-.0315-.0053-.0488-.0128-.0128-.0098-.0255-.0225-.0353-.042-.0068-.0195-.0128-.0436-.0195-.0736-.006-.0315-.009-.0683-.009-.1096,0-.0421.003-.0796.009-.1126.0067-.033.0127-.0578.0195-.0773.0098-.0188.0225-.033.0353-.0421.0173-.0105.0323-.0127.0488-.0127h2.9889c.0158,0,.0323.0022.0443.0127.0143.009.027.0233.0398.0421.0098.0195.0158.0443.0225.0773.003.033.0068.0706.0068.1126,0,.0413-.0038.0781-.0068.1096ZM143.9983,36.7087c0,.0187-.006.0338-.012.0473-.009.015-.0225.024-.0458.0338-.0225.0075-.051.0128-.0908.0173-.0315.006-.0833.0105-.1358.0105-.051,0-.0991-.0045-.1313-.0105-.0421-.0045-.0721-.0098-.0916-.0173-.0218-.0098-.0375-.0187-.0473-.0338-.0098-.0135-.0135-.0285-.0135-.0473v-4.1178c0-.0188.0038-.0345.0135-.0473.0127-.0128.0285-.0218.0503-.03.0233-.0075.0556-.015.0908-.021.033-.0053.081-.009.1291-.009.0525,0,.1043.0038.1358.009.0398.006.0683.0135.0908.021.0233.0082.0368.0172.0458.03.006.0127.012.0285.012.0473v4.1178ZM143.9863,31.9807c-.0518.0465-.1396.0698-.262.0698-.1253,0-.2101-.0233-.2552-.0676-.0488-.045-.0706-.1298-.0706-.2522,0-.1201.0218-.2057.0706-.2515.048-.0503.1313-.0735.2582-.0735.1223,0,.2132.0233.2589.0698.0481.0481.0676.1321.0676.2477,0,.1269-.0233.2109-.0676.2575Z" style="fill:#fff;"></path><path d="M68.5097,34.2986c.0976-.0375.1652-.0901.2267-.1524.0601-.0661.1066-.1426.1314-.2297.0285-.0886.039-.1772.039-.2695,0-.1036-.0105-.2012-.0421-.2837-.0218-.0826-.0736-.1524-.1321-.2132-.0653-.06-.1449-.1036-.2455-.1343-.1006-.0315-.2289-.0481-.3911-.0481h-.5907v1.3909h.6462c.1471,0,.271-.0181.358-.0601Z" style="fill:#fff;"></path><path d="M131.8916,25.3146h-.2815v.7138h.2424c.1906,0,.3242-.033.4015-.0991.0773-.066.1156-.1509.1156-.2544,0-.1006-.033-.1854-.0999-.256-.0667-.0698-.1929-.1043-.3782-.1043Z" style="fill:#fff;"></path><path d="M60.4035,15.3717c.2402-.0923.4354-.2229.5945-.3851.1584-.1652.271-.358.349-.5809.0743-.2169.1163-.4496.1163-.6951,0-.274-.042-.5164-.1261-.7318-.0803-.2199-.2102-.3971-.3813-.5412-.1614-.1426-.3753-.2544-.6328-.3318-.2552-.0766-.5915-.1149-1.0178-.1149h-1.3991v3.5211h1.5448c.3963,0,.7168-.045.9525-.1404Z" style="fill:#fff;"></path><path d="M131.1115,13.806c-.0744-.3663-.1651-.674-.2778-.9247-.1066-.2507-.2357-.4511-.3888-.602-.1538-.1501-.3288-.2575-.5255-.3213-.1966-.0608-.4105-.093-.6529-.093-.4091,0-.7491.1006-1.0202.2972-.2686.1997-.4818.5006-.6395.8992-.1553.3971-.2687.8947-.3272,1.4892-.0669.593-.1006,1.2858-.1006,2.0761,0,.966.042,1.7654.1164,2.3951.0555.4766.138.8812.2522,1.2115h.0004c.0315.1081.0706.2079.1096.2987.1719.376.3821.6373.6373.7874.2582.1501.5682.2267.933.2267.2717,0,.5104-.045.7243-.1321.2057-.0856.3933-.2207.5487-.3911.1613-.1772.2905-.3963.3947-.6605.015-.0428.0315-.087.0451-.1306h.0008c.086-.2347.1536-.5005.2119-.7941.0646-.3483.1096-.7453.1329-1.1859.0293-.4406.0376-.9262.0376-1.4576,0-.644-.0128-1.2092-.051-1.7023-.0353-.4961-.0901-.9202-.1614-1.2858Z" style="fill:#fff;"></path><path d="M61.5467,18.0505c-.2034-.1636-.4578-.295-.7716-.3851-.3197-.0916-.7273-.1366-1.231-.1366h-1.6378v2.7044h-.0004v1.1544h1.9936c.3843,0,.7108-.039.972-.1216.265-.0773.4872-.1974.6786-.3543.1974-.1569.3468-.3528.4563-.5869.009-.0285.0218-.0585.036-.0878l.0004-.0038c.0795-.2102.1186-.4458.1186-.7108,0-.316-.0495-.5982-.1524-.8444-.1066-.25-.262-.4586-.4623-.6275Z" style="fill:#fff;"></path><path d="M141.9978,13.806c-.0744-.3663-.1651-.674-.2778-.9247-.1066-.2507-.2357-.4511-.3888-.602-.1538-.1501-.3288-.2575-.5255-.3213-.1966-.0608-.4105-.093-.6529-.093-.4091,0-.7491.1006-1.0202.2972-.2686.1997-.4818.5006-.6395.8992-.1553.3971-.2687.8947-.3272,1.4892-.0669.593-.1006,1.2858-.1006,2.0761,0,.966.042,1.7654.1164,2.3951.0555.4766.138.8812.2522,1.2115h.0004c.0315.1081.0706.2079.1096.2987.1719.376.3821.6373.6373.7874.2582.1501.5682.2267.933.2267.2717,0,.5104-.045.7243-.1321.2057-.0856.3933-.2207.5487-.3911.1613-.1772.2905-.3963.3947-.6605.015-.0428.0315-.087.0451-.1306h.0008c.086-.2347.1536-.5005.2119-.7941.0646-.3483.1096-.7453.1329-1.1859.0293-.4406.0376-.9262.0376-1.4576,0-.644-.0128-1.2092-.051-1.7023-.0353-.4961-.0901-.9202-.1614-1.2858Z" style="fill:#fff;"></path><path d="M147.4578,5.0917H39.8928c6.9828,5.9162,11.2056,14.8579,11.0758,23.9596h99.0315V7.6685c0-1.4171-1.1431-2.5768-2.5422-2.5768ZM64.9589,20.2378h-.0007c-.0293.1755-.0737.3414-.1242.4984-.1366.3933-.3205.7416-.554,1.0433-.2342.2995-.5134.5577-.8391.7731-.3227.2177-.6853.3948-1.0726.5351-.394.1404-.8099.2432-1.2572.3093-.4429.0683-.9375.0983-1.4832.0983h-3.6051c-.2364,0-.4263-.0668-.5817-.2019-.1614-.1366-.2417-.3588-.2417-.668v-2.3921h.0004v-9.4387c0-.3092.0795-.5292.2417-.6665.1547-.1358.3453-.2034.581-.2034h3.4084c.8272,0,1.5342.0698,2.1092.2109.5802.1404,1.0673.3498,1.4607.6343.3978.2822.6943.641.9119,1.0726.2034.4346.313.9465.313,1.5335,0,.3288-.0458.6373-.1298.9285-.0841.2875-.2057.5539-.3678.7904-.1621.2379-.3588.4466-.5945.6283-.2289.1846-.5014.3303-.8009.4428.3851.0698.7423.1921,1.0658.37.3265.1727.611.3933.8504.6748.2417.274.4323.596.5735.9698.1403.3685.2086.7828.2086,1.2452,0,.286-.0263.5562-.072.8121ZM69.7251,20.2333h-.0004v2.9055c0,.0706-.0165.1321-.0623.1862-.0413.0488-.1156.0976-.2094.1291-.1066.0338-.2402.0608-.4076.0773-.1711.0188-.3805.0293-.6388.0293-.2597,0-.4751-.0105-.6402-.0293-.1681-.0165-.3003-.0435-.4008-.0773-.1058-.0315-.1772-.0803-.2192-.1291-.0421-.0541-.0623-.1156-.0623-.1862v-2.9055h-.0004v-6.4273c0-.0721.021-.1329.0623-.1839.042-.0533.1133-.1006.2199-.1366.0998-.0383.2327-.0668.4008-.0886.1652-.021.3806-.0316.6395-.0316.2582,0,.4684.0105.6388.0316.1681.0218.301.0503.4076.0886.0938.036.1681.0833.2101.1366.045.051.0623.1118.0623.1839v6.4273ZM69.6013,11.7178c-.2162.2057-.62.304-1.204.304-.5982,0-.9953-.0953-1.2025-.2935-.2109-.1967-.31-.5457-.31-1.0591,0-.5292.1096-.8992.322-1.1071.2094-.2064.6147-.3107,1.2084-.3107.5885,0,.9893.0998,1.1964.301.2087.1997.3167.5554.3167,1.0636,0,.5322-.1081.8999-.3272,1.1019ZM75.0036,23.1388c0,.0706-.0195.1321-.0615.1862-.0458.0488-.1133.0976-.2132.1291-.1073.0338-.2395.0608-.4083.0773-.1666.0188-.3738.0293-.6388.0293-.2582,0-.4714-.0105-.6365-.0293-.1681-.0165-.304-.0435-.4069-.0773-.0968-.0315-.1749-.0803-.2139-.1291-.0413-.0541-.0638-.1156-.0638-.1862v-2.9055h-.0004v-10.8858c0-.0713.0225-.1313.0645-.1899.039-.0578.1171-.1044.2132-.1381.1036-.0405.2387-.0683.4068-.0901.1659-.0202.3791-.0308.6373-.0308.265,0,.4714.0105.6388.0308.1681.0218.301.0495.4076.0901.1006.0338.1681.0803.2132.1381.042.0585.0615.1186.0615.1899v10.8858h.0004v2.9055ZM80.2818,23.1388c0,.0706-.0218.1321-.0608.1862-.045.0488-.1156.0976-.2155.1291-.1013.0338-.2372.0608-.4053.0773-.1704.0188-.3813.0293-.6425.0293-.2552,0-.4714-.0105-.6373-.0293-.1674-.0165-.3032-.0435-.4038-.0773-.1028-.0315-.1734-.0803-.2124-.1291-.045-.0541-.0645-.1156-.0645-.1862v-2.9055h-.0004v-6.4273c0-.0721.0195-.1329.0653-.1839.039-.0533.1096-.1006.2124-.1366.1006-.0383.2357-.0668.4038-.0886.1651-.021.3813-.0316.6373-.0316.2612,0,.4714.0105.6425.0316.1674.0218.3032.0503.4046.0886.0998.036.1712.0833.2154.1366.039.051.0608.1118.0608.1839v6.4273h.0004v2.9055ZM80.156,11.7178c-.2161.2057-.6207.304-1.2084.304-.5945,0-.9915-.0953-1.1987-.2935-.2064-.1967-.313-.5457-.313-1.0591,0-.5292.1066-.8992.3257-1.1071.2079-.2064.611-.3107,1.2085-.3107.5862,0,.9893.0998,1.1919.301.2169.1997.3205.5554.3205,1.0636,0,.5322-.1066.8999-.3265,1.1019ZM89.2018,21.8966c-.1997.4083-.4901.7543-.8624,1.0343-.3806.2785-.8144.4841-1.2993.6088l.292.6477c.1261.2762.2192.5126.2777.716.0615.2019.0908.3956.0908.5877,0,.319-.0623.5967-.1824.8279-.1186.2319-.277.4189-.4781.566-.2019.1456-.4443.2552-.716.331-.2717.0713-.566.1081-.8827.1081-.2995,0-.5839-.021-.8467-.0616-.2672-.042-.4834-.0878-.656-.1351-.1704-.051-.2927-.0931-.367-.1238-.0713-.0383-.1269-.0841-.1546-.1419-.0338-.0541-.0556-.1238-.0758-.2139-.009-.0856-.0158-.2087-.0158-.3626,0-.2792.0263-.4729.0781-.5802.0548-.1118.1486-.1644.2905-.1644h1.2107c.2034,0,.3633-.0428.4594-.1291.1036-.0878.1516-.2079.1516-.3618,0-.0856-.0187-.1794-.051-.2852-.036-.1043-.0781-.2132-.1261-.3227l-.3273-.7221c-.4353-.0368-.8234-.1021-1.1559-.1892-.3333-.0946-.6042-.1861-.8136-.2845-.2102-.1013-.355-.1869-.4369-.2657-.0781-.0743-.1418-.1929-.1839-.3498-.039-.1576-.0615-.3903-.0615-.6988,0-.1997.0067-.364.0225-.4856.0128-.1246.0361-.2192.0616-.2958.0263-.0713.0623-.1216.1073-.1456.0413-.0248.0923-.0361.1569-.0361.075,0,.1921.0428.34.1329.1486.0871.3355.1832.5622.286.2199.1028.4841.2057.7814.2942.2972.0916.6343.1351,1.0081.1351.2432,0,.4488-.024.6402-.0706.1802-.051.3393-.1201.4781-.2101s.2387-.2057.31-.3475c.0668-.1411.1073-.301.1073-.4811,0-.1809-.0487-.3393-.1456-.4744h.0004c-.0158-.0233-.033-.0435-.0495-.0661-.1291-.1486-.3003-.2815-.5209-.3933-.2086-.1126-.4443-.2184-.7221-.3167-.2657-.0961-.5434-.2064-.8242-.325-.2815-.1186-.5562-.2552-.8301-.4076-.265-.1539-.5112-.346-.7206-.5652-.2139-.2267-.3873-.4939-.5172-.8099-.1269-.3145-.1914-.6891-.1914-1.1312,0-.4481.0841-.8587.259-1.2317.1779-.3753.4294-.6943.7596-.963.3227-.2657.7273-.4683,1.1949-.6162.4781-.1471,1.005-.2214,1.592-.2214.2958,0,.5795.0218.8542.0623.2777.0421.5292.0946.7483.1592.2267.0615.4143.1298.5697.2034.1516.0713.2612.1373.3332.1869.0616.0533.1066.1073.1381.1584.0293.0533.051.1186.0653.1899.0128.0758.0218.1644.0315.2709.0135.1126.0203.2424.0203.4046,0,.1892-.0068.343-.0203.4624-.0098.1163-.0255.2147-.051.283-.0225.0713-.0585.1171-.0976.1418-.042.027-.0938.0383-.1486.0383-.0638,0-.1576-.0383-.2905-.1111-.1359-.0728-.301-.1524-.4977-.2364-.2034-.0841-.4331-.1621-.6951-.2379-.2582-.0698-.5652-.1066-.8977-.1066-.2387,0-.4391.021-.617.0713-.1749.0481-.3167.1193-.4264.2109-.1163.0893-.2004.1959-.2552.3198-.0548.1201-.0833.2552-.0833.3948,0,.2132.0638.394.2004.5426.1313.1464.3025.2755.5224.3888.2199.1118.4586.2177.7401.3145.2747.0998.5584.2064.8399.3198.2845.1156.5622.2507.8369.4038.2709.1546.5224.3423.7401.5675.2124.2214.3911.4901.5224.8024.1028.2447.1689.5254.1914.8422h.0004c.009.0833.0127.1734.0127.262,0,.5277-.1036.9945-.3047,1.4014ZM94.1272,23.1388c0,.0706-.018.1321-.0563.1862-.0443.0488-.1186.0976-.2199.1291-.1028.0338-.2319.0608-.4031.0773-.1689.0188-.379.0293-.6402.0293-.2544,0-.4736-.0105-.6365-.0293-.1681-.0165-.3062-.0435-.4068-.0773-.1036-.0315-.1771-.0803-.2132-.1291-.042-.0541-.0638-.1156-.0638-.1862v-2.9055h-.0004v-6.4273c0-.0721.0225-.1329.0638-.1839.0368-.0533.1103-.1006.2139-.1366.0998-.0383.2387-.0668.4068-.0886.1621-.021.3813-.0316.6358-.0316.262,0,.4721.0105.641.0316.1704.0218.2995.0503.4023.0886.1013.036.1756.0833.2207.1366.0376.051.0556.1118.0556.1839v6.4273h.0004v2.9055ZM94,11.7178c-.2132.2057-.617.304-1.2017.304-.5975,0-.9945-.0953-1.2024-.2935-.2057-.1967-.3092-.5457-.3092-1.0591,0-.5292.1066-.8992.3227-1.1071.2101-.2064.6102-.3107,1.2084-.3107.5847,0,.9885.0998,1.1957.301.2101.1997.316.5554.316,1.0636,0,.5322-.1058.8999-.3295,1.1019ZM111.6494,20.2333h-.0004v2.9055c0,.0706-.0225.1321-.0645.1862-.0383.0488-.1096.0976-.2087.1291-.0976.0338-.2304.0608-.4015.0773-.1644.0188-.3806.0293-.6357.0293-.2687,0-.4849-.0105-.65-.0293-.1681-.0165-.304-.0435-.4038-.0773-.1035-.0315-.1711-.0803-.2139-.1291-.0375-.0541-.057-.1156-.057-.1862v-2.9055h-.0004v-2.6406c0-.3137-.0263-.6005-.0871-.8624-.0578-.2582-.1486-.4804-.2747-.6665-.1201-.1816-.271-.3258-.4594-.4278-.1869-.1028-.4069-.1524-.668-.1524-.3138,0-.6305.1224-.9562.3678-.3167.2447-.6688.5997-1.0478,1.0681v3.3138h.0004v2.9055c0,.0706-.0188.1321-.0608.1862-.0421.0488-.1141.0976-.2147.1291-.1058.0338-.2372.0608-.4061.0773-.1644.0188-.3738.0293-.626.0293-.259,0-.4751-.0105-.6403-.0293-.1674-.0165-.307-.0435-.4031-.0773-.1043-.0315-.1786-.0803-.2132-.1291-.045-.0541-.0653-.1156-.0653-.1862v-2.9055h-.0004v-2.6406c0-.3137-.0323-.6005-.0938-.8624-.0548-.2582-.1411-.4804-.2657-.6665-.1186-.1816-.2709-.3258-.4616-.4278-.1891-.1028-.406-.1524-.6575-.1524-.3243,0-.6477.1224-.9698.3678-.3167.2447-.6658.5997-1.0343,1.0681v3.3138h-.0004v2.9055c0,.0706-.0218.1321-.0608.1862-.0458.0488-.1163.0976-.2161.1291-.1044.0338-.2364.0608-.4068.0773-.1681.0188-.3753.0293-.641.0293-.2567,0-.4677-.0105-.6358-.0293-.1674-.0165-.3032-.0435-.4075-.0773-.0998-.0315-.1741-.0803-.2124-.1291-.042-.0541-.0653-.1156-.0653-.1862v-2.9055h-.0004v-6.4506c0-.0661.021-.1313.0555-.1809.0383-.0533.0968-.099.1884-.1329.0968-.036.2087-.0615.3543-.0795.1381-.0181.3167-.0241.5366-.0241.2229,0,.4098.006.5585.0241.1456.018.2589.0435.34.0795.0803.0338.1351.0796.1674.1329.0383.0496.0585.1149.0585.1809v1.0816c.5164-.5577,1.0336-.981,1.544-1.2587.5179-.2792,1.0568-.4196,1.6131-.4196.3835,0,.7288.0398,1.0366.1223.31.0788.5847.1929.8271.343.2357.1501.4451.334.62.5404.1772.2102.3235.4436.4391.7056.2777-.3017.5562-.5622.8234-.7784.2687-.2184.5412-.3926.7949-.5284.2649-.1366.5277-.2372.7926-.3063.2612-.0668.5292-.0983.8047-.0983.6192,0,1.1432.1043,1.5665.3152.4286.2094.7754.4939,1.0373.8549.2642.3595.4518.7799.5652,1.2647.1066.4826.1644.9916.1644,1.532v3.0804ZM122.7011,20.2378h-.0008c-.0645.2917-.151.5643-.2668.8197-.2589.5772-.611,1.0658-1.0756,1.4584-.4683.3926-1.0246.698-1.6836.9067-.6493.2117-1.3758.3152-2.1775.3152-.4166,0-.8144-.0263-1.1919-.0803-.3768-.051-.7168-.1178-1.0178-.1952-.2972-.0833-.5494-.1621-.7363-.2447-.1936-.0788-.3205-.1464-.3813-.1982-.0548-.0518-.1044-.111-.1359-.1749-.0195-.0608-.0481-.1344-.0645-.2252-.0127-.0856-.0285-.1967-.0315-.331-.0105-.1321-.0135-.2889-.0135-.4714,0-.1921.0067-.361.0195-.4976.0158-.1351.0353-.2462.0706-.3273.0293-.0878.0653-.1464.1104-.1801.042-.0368.0901-.0548.1456-.0548.0706,0,.1741.0443.319.1231.1456.0803.3355.1674.5667.268.2357.0968.5194.1847.8587.2657.3333.0826.7334.1224,1.2025.1224.4053,0,.7716-.0458,1.1078-.1261.3333-.0818.614-.2192.8429-.4053.2357-.1869.4075-.4189.5389-.6996.0068-.0218.0173-.045.0293-.0683l-.0004-.0038c.1044-.2612.1524-.5742.1524-.9337,0-.3363-.0458-.6335-.1524-.8924-.1058-.2665-.2672-.4879-.4909-.6665-.2259-.1824-.5164-.3205-.8759-.4114-.3505-.0901-.7866-.1366-1.2978-.1366-.4038,0-.7731.0195-1.1086.0645-.3325.0405-.6395.0601-.9398.0601-.1967,0-.3423-.0495-.4331-.1516-.0863-.0976-.1283-.2867-.1283-.5607v-5.8944c0-.277.0533-.4834.1606-.6027.1103-.1224.2844-.1832.5209-.1832h6.4288c.0645,0,.1193.0218.1772.0638.0548.0398.1028.1081.1419.1974.0367.0923.0653.2117.0833.3633.0203.1509.0278.3325.0278.5389,0,.4196-.039.7228-.111.912-.0736.1906-.1809.2837-.319.2837h-4.8263v2.907c.2477-.0293.4939-.0473.7288-.0548.2432-.006.4946-.0098.7603-.0098.7333,0,1.3894.0856,1.9605.2575.5652.1734,1.0463.4226,1.4314.7559.3911.3325.6891.7438.891,1.2392.1982.4894.301,1.0621.301,1.7136,0,.4053-.0353.7866-.1171,1.1454ZM133.0415,26.4037c-.1944.1816-.4909.2732-.8902.2732h-.5411v1.1874h-.993v-3.2005h1.6438c.3581,0,.626.0848.8047.2552.1787.1704.2672.4128.2672.7273,0,.3227-.0968.5757-.2912.7573ZM133.8414,19.5945c-.0451.2214-.0968.4361-.1516.6433h-.0012c-.1748.6023-.4068,1.1331-.7002,1.5898-.3941.6162-.9075,1.0891-1.5448,1.4186-.6296.325-1.4081.4917-2.3253.4917-.9239,0-1.6963-.1584-2.3036-.4789-.6072-.3175-1.0913-.7746-1.4479-1.3728-.2768-.4676-.4884-1.0161-.637-1.6434h-.0004c-.0003-.0011-.0005-.0024-.0007-.0036-.0002-.0007-.0005-.0014-.0006-.0021h.0002c-.0421-.1705-.0782-.3592-.1109-.5419-.1456-.8639-.2124-1.8405-.2124-2.9318,0-1.0793.0863-2.0566.2672-2.9341.1779-.8767.4654-1.6191.8564-2.2375.3948-.614.9112-1.0891,1.5439-1.4179.6306-.328,1.4029-.4886,2.3141-.4886.9239,0,1.6986.1576,2.3096.4759.614.3175,1.0989.7776,1.4509,1.3751.3588.5974.608,1.3285.7469,2.1902.138.8624.2085,1.8405.2085,2.9341,0,1.0831-.0832,2.0596-.2611,2.9341ZM136.6688,27.8651h-2.5324v-3.2013h.9892v2.4124h1.5432v.7889ZM140.3583,26.5703c0,.1899-.0293.3678-.0886.536-.0585.1681-.1509.3152-.277.4413-.1253.1253-.2582.2139-.3964.2642-.1913.0713-.4226.1073-.692.1073-.1554,0-.3251-.0112-.5097-.0323-.1839-.0218-.3378-.0653-.4616-.1306-.1238-.0645-.2365-.1569-.3393-.2755-.1028-.1193-.1726-.2424-.2109-.3693-.0607-.2034-.0915-.3835-.0915-.5412v-1.9065h.9871v1.9523c0,.1749.048.3107.1448.4091.0968.0983.2313.1471.4031.1471.1703,0,.304-.048.4-.1449.0976-.0968.1456-.2334.1456-.4113v-1.9523h.9863v1.9065ZM143.8609,27.391c-.1141.1726-.2725.3047-.4759.394-.2041.0893-.4609.1344-.7708.1344-.5442,0-.9217-.1051-1.1311-.3145-.2095-.2102-.328-.4759-.3558-.7994l.9405-.0593c.021.1531.0623.2695.1253.3498.1013.1298.2468.1944.436.1944.1411,0,.25-.033.3265-.0991.0766-.0668.1149-.1433.1149-.2304,0-.0833-.0368-.1576-.1096-.2229-.0728-.066-.2417-.1276-.506-.1854-.4345-.0976-.7431-.2275-.9277-.3888-.1868-.1614-.2799-.3678-.2799-.6177,0-.1644.0473-.3198.1433-.4661.0946-.1464.2388-.2612.4301-.3452.1907-.0833.4534-.1254.7867-.1254.409,0,.7205.0758.9359.2282.2139.1516.3422.3941.3828.7258l-.9323.0548c-.0247-.1441-.0765-.2492-.1561-.3145-.0795-.0653-.1891-.0984-.3288-.0984-.1148,0-.2011.0248-.2597.0728-.0585.0495-.087.1081-.087.1786,0,.0503.024.0968.072.1373.0465.0421.1569.0811.3318.1179.4324.093.7415.1876.9284.2822.1876.0961.3235.2139.4084.355.0856.1411.1284.2995.1284.4736,0,.2057-.0571.3948-.1704.5682ZM144.7276,19.5945c-.0451.2214-.0968.4361-.1516.6433h-.0012c-.1748.6023-.4068,1.1331-.7002,1.5898-.3941.6162-.9075,1.0891-1.5448,1.4186-.6296.325-1.4081.4917-2.3253.4917-.9239,0-1.6963-.1584-2.3036-.4789-.6072-.3175-1.0913-.7746-1.4479-1.3728-.2768-.4676-.4885-1.0161-.6371-1.6434h-.0004c-.0002-.0011-.0004-.0024-.0007-.0036-.0002-.0007-.0004-.0014-.0005-.0021h.0002c-.0421-.1705-.0782-.3592-.1109-.5419-.1457-.8639-.2125-1.8405-.2125-2.9318,0-1.0793.0863-2.0566.2673-2.9341.1778-.8767.4653-1.6191.8563-2.2375.3949-.614.9113-1.0891,1.544-1.4179.6306-.328,1.4029-.4886,2.3141-.4886.9239,0,1.6986.1576,2.3096.4759.614.3175,1.0989.7776,1.4509,1.3751.3588.5974.608,1.3285.7469,2.1902.138.8624.2085,1.8405.2085,2.9341,0,1.0831-.0832,2.0596-.2611,2.9341Z" style="fill:#fff;"></path></g></svg>