<svg xmlns="http://www.w3.org/2000/svg" id="uuid-18b2b1fa-c82a-4a2f-a806-12a641ab2b83" viewBox="0 0 232.87 45.9"><g id="uuid-2a8842f6-8f62-4228-9c25-a1217e12478d"><path d="M26.49,22.6c0,7.05-5.19,12.86-12.26,12.86-2.99,0-5.74-1.04-7.78-3.04v2.47H0V.26H6.45V12.78c2.04-1.99,4.79-3.04,7.78-3.04,7.07,0,12.26,5.81,12.26,12.86m-6.55,0c0-4.01-3.08-7.09-7.09-7.09-2.85,0-5.29,1.57-6.4,3.91v6.36c1.12,2.35,3.56,3.91,6.4,3.91,4.01,0,7.09-3.08,7.09-7.09" style="fill:#00bcfa;"></path><path d="M34.58,0c2.18,0,3.87,1.64,3.87,3.77s-1.68,3.77-3.87,3.77-3.87-1.64-3.87-3.77,1.68-3.77,3.87-3.77" style="fill:#00bcfa;"></path><rect x="31.31" y="10.32" width="6.52" height="24.57" style="fill:#00bcfa;"></rect><path d="M50.8,19.5v15.39h-6.52V10.32h6.52v3.01c1.56-2.09,3.75-3.58,6.57-3.58,.83,0,1.66,.21,2.23,.52l-.45,5.72c-.83-.29-1.78-.48-2.61-.48-2.37,0-4.44,1.57-5.74,3.98" style="fill:#00bcfa;"></path><polygon points="65.83 45.9 70.15 34.89 61.14 10.32 67.92 10.32 73.38 26.64 78.93 10.32 85.71 10.32 72.64 45.9 65.83 45.9" style="fill:#ffb600;"></polygon><path d="M100.87,9.75c7.83,0,13.64,5.67,13.64,12.86s-5.81,12.86-13.64,12.86-13.64-5.67-13.64-12.86,5.83-12.86,13.64-12.86m0,19.95c4.03,0,7.12-3.08,7.12-7.09s-3.08-7.09-7.12-7.09-7.09,3.11-7.09,7.09,3.08,7.09,7.09,7.09" style="fill:#ffb600;"></path><rect x="119.31" y=".26" width="6.52" height="34.63" style="fill:#ffb600;"></rect><path d="M148.54,10.32h6.52v24.57h-6.52v-2.7c-1.64,1.95-4.22,3.27-6.9,3.27-5.76,0-9.82-4.06-9.82-10.01V10.32h6.52v14.49c0,2.73,1.87,4.89,4.89,4.89,2.11,0,4.22-1.66,5.31-3.39V10.32Z" style="fill:#ffb600;"></path><polygon points="183.23 10.32 174.46 34.89 167.43 34.89 158.66 10.32 165.44 10.32 170.94 27.04 176.45 10.32 183.23 10.32" style="fill:#52cc6e;"></polygon><path d="M204.79,12.78v-2.47h6.45v24.57h-6.45v-2.47c-2.04,1.99-4.79,3.04-7.78,3.04-7.07,0-12.26-5.81-12.26-12.86s5.19-12.86,12.26-12.86c2.99,0,5.74,1.04,7.78,3.04m0,13v-6.36c-1.12-2.35-3.56-3.91-6.4-3.91-4.01,0-7.09,3.08-7.09,7.09s3.08,7.09,7.09,7.09c2.85,0,5.29-1.56,6.4-3.91" style="fill:#52cc6e;"></path><path d="M224.07,19.5v15.39h-6.52V10.32h6.52v3.01c1.56-2.09,3.75-3.58,6.57-3.58,.83,0,1.66,.21,2.23,.52l-.45,5.72c-.83-.29-1.78-.48-2.61-.48-2.37,0-4.44,1.57-5.74,3.98" style="fill:#52cc6e;"></path></g></svg>