<svg xmlns="http://www.w3.org/2000/svg" id="uuid-1e53fb25-1ed2-41de-b8e4-a9dafddfdac7" viewBox="0 0 207.77 37.73"><g id="uuid-e0070ec7-52d2-4a64-b2f4-8e94e16c3686"><g><path d="M8.5,21.68c0,1.93,.84,2.81,3.08,2.81,.6,0,1.38-.04,1.91-.1v4.48c-.72,.16-1.77,.27-2.79,.27-5.01,0-7.57-2.4-7.57-7.14V13.14H0v-4.66H3.14V3.1l5.36-.47v5.85h4.76v4.66h-4.76v8.54Z" style="fill:#00bcfa;"></path><path d="M22.46,28.69h-5.36V.21h5.36V10.71c1.35-1.6,3.47-2.69,5.67-2.69,4.74,0,8.07,3.33,8.07,8.23v12.44h-5.36v-11.92c0-2.24-1.54-4.02-4.02-4.02-1.74,0-3.47,1.37-4.37,2.79v13.14Z" style="fill:#00bcfa;"></path><path d="M50.94,24.88c2.18,0,4.17-.98,5.73-2.52l3.22,3.12c-2.22,2.42-5.34,3.67-8.93,3.67-6.71,0-11.29-4.66-11.29-10.57s4.72-10.57,10.98-10.57,10.59,4.58,10.59,10.22c0,.62-.1,1.4-.23,1.95h-15.91c.47,2.81,2.81,4.7,5.85,4.7Zm-5.71-8.52h10.49c-.58-2.4-2.5-4.08-5.11-4.08s-4.66,1.62-5.38,4.08Z" style="fill:#00bcfa;"></path><path d="M70.45,16.03v12.66h-5.36V8.48h5.36v2.48c1.29-1.72,3.08-2.94,5.4-2.94,.68,0,1.37,.18,1.83,.43l-.37,4.7c-.68-.23-1.46-.39-2.15-.39-1.95,0-3.65,1.29-4.72,3.28Z" style="fill:#00bcfa;"></path><path d="M90.49,24.88c2.18,0,4.17-.98,5.73-2.52l3.22,3.12c-2.22,2.42-5.34,3.67-8.93,3.67-6.71,0-11.29-4.66-11.29-10.57s4.72-10.57,10.98-10.57,10.59,4.58,10.59,10.22c0,.62-.1,1.4-.23,1.95h-15.91c.47,2.81,2.81,4.7,5.85,4.7Zm-5.71-8.52h10.49c-.58-2.4-2.5-4.08-5.11-4.08s-4.66,1.62-5.38,4.08Z" style="fill:#00bcfa;"></path><path d="M107.43,0c1.79,0,3.18,1.35,3.18,3.1s-1.38,3.1-3.18,3.1-3.18-1.35-3.18-3.1,1.38-3.1,3.18-3.1Zm-2.69,8.48h5.36V28.69h-5.36V8.48Z" style="fill:#ffb600;"></path><path d="M116.71,22.46c1.25,1.42,3.1,2.4,5.13,2.4,1.85,0,2.96-.78,2.96-2.01s-.86-1.95-3.47-2.48c-4.39-.9-6.57-3.12-6.57-6.47s2.91-5.89,7.29-5.89c2.81,0,5.38,1.15,7.18,2.75l-2.57,3.35c-1.31-1.07-2.59-1.81-4.13-1.81s-2.52,.64-2.52,1.68,.96,1.95,3.22,2.42c4.68,.96,6.83,3.1,6.83,6.51s-2.98,6.24-7.8,6.24c-3.37,0-6.4-1.27-8.23-3.35l2.69-3.33Z" style="fill:#ffb600;"></path><path d="M149.11,8.48l3.47,13.51,3.53-13.51h5.48l-6.12,20.2h-5.54l-3.51-13.14-3.51,13.14h-5.54l-6.12-20.2h5.48l3.53,13.51,3.47-13.51h5.38Z" style="fill:#52cc6e;"></path><path d="M179.31,10.51v-2.03h5.3V28.69h-5.3v-2.03c-1.68,1.64-3.94,2.5-6.4,2.5-5.81,0-10.08-4.78-10.08-10.57s4.27-10.57,10.08-10.57c2.46,0,4.72,.86,6.4,2.5Zm0,10.69v-5.23c-.92-1.93-2.93-3.22-5.27-3.22-3.3,0-5.83,2.54-5.83,5.83s2.54,5.83,5.83,5.83c2.34,0,4.35-1.29,5.27-3.22Z" style="fill:#52cc6e;"></path><path d="M191.43,37.73l3.55-9.05-7.41-20.2h5.58l4.49,13.42,4.56-13.42h5.58l-10.75,29.25h-5.6Z" style="fill:#52cc6e;"></path></g></g></svg>