<svg xmlns="http://www.w3.org/2000/svg" id="uuid-6ee020e9-f151-4523-95f6-ff3a9034d057" viewBox="0 0 289.33 85.62"><g id="uuid-49d47d98-330e-4577-9063-5c65292e0c67"><g style="opacity:.75;"><path d="M112.61,78.64v2.81h-1.25v-18.65h1.25v8.53c1.13-1.71,2.78-3.22,5.36-3.22,3.14,0,6.33,2.53,6.33,6.77v.05c0,4.25-3.2,6.82-6.33,6.82-2.61,0-4.29-1.48-5.36-3.12h0ZM122.96,74.99v-.05c0-3.43-2.38-5.62-5.11-5.62s-5.31,2.27-5.31,5.59v.05c0,3.35,2.61,5.59,5.31,5.59s5.11-2.07,5.11-5.56Z" style="fill:#fff; stroke-width:0px;"></path><path d="M137.76,68.43h1.38l-5.64,13.49c-1.15,2.73-2.47,3.71-4.34,3.71-1,0-1.71-.18-2.58-.56l.43-1.1c.69.33,1.25.48,2.22.48,1.36,0,2.24-.79,3.22-3.06l-6.26-12.95h1.45l5.41,11.65,4.7-11.65h0Z" style="fill:#fff; stroke-width:0px;"></path><path d="M150.17,63.57h8.02c2.04,0,3.65.56,4.68,1.58.79.79,1.2,1.76,1.2,2.97v.05c0,2.15-1.22,3.29-2.55,3.99,2.1.71,3.55,1.92,3.55,4.34v.05c0,3.2-2.63,4.9-6.61,4.9h-8.28v-17.88h0ZM160.93,68.62c0-1.41-1.13-2.27-3.14-2.27h-4.52v4.76h4.29c2.02,0,3.37-.79,3.37-2.43v-.05h0ZM158.24,73.75h-4.98v4.9h5.21c2.15,0,3.45-.85,3.45-2.45v-.05c0-1.51-1.2-2.4-3.68-2.4Z" style="fill:#fff; stroke-width:0px;"></path><path d="M168.26,67.97h3.09v3.04c.85-2.02,2.4-3.4,4.77-3.29v3.27h-.18c-2.71,0-4.6,1.76-4.6,5.33v5.13h-3.09v-13.49h0Z" style="fill:#fff; stroke-width:0px;"></path><path d="M177.61,74.78v-.05c0-3.86,3.06-7.05,7.2-7.05s7.18,3.14,7.18,7v.05c0,3.83-3.06,7.03-7.23,7.03s-7.15-3.14-7.15-6.97h0ZM188.9,74.78v-.05c0-2.38-1.71-4.34-4.14-4.34s-4.06,1.94-4.06,4.29v.05c0,2.35,1.71,4.31,4.11,4.31s4.09-1.94,4.09-4.26Z" style="fill:#fff; stroke-width:0px;"></path><path d="M194.24,77.57v-.05c0-2.92,2.27-4.34,5.57-4.34,1.51,0,2.58.23,3.63.56v-.33c0-1.92-1.17-2.94-3.35-2.94-1.51,0-2.63.33-3.86.85l-.82-2.43c1.48-.66,2.94-1.1,5.08-1.1,2.02,0,3.52.54,4.47,1.51,1,.97,1.45,2.4,1.45,4.17v8h-3.01v-1.68c-.92,1.1-2.33,1.96-4.39,1.96-2.53,0-4.77-1.45-4.77-4.17v-.02ZM203.49,76.6v-.92c-.79-.31-1.84-.54-3.06-.54-1.99,0-3.17.85-3.17,2.24v.05c0,1.3,1.15,2.04,2.63,2.04,2.04,0,3.6-1.17,3.6-2.89v.02Z" style="fill:#fff; stroke-width:0px;"></path><path d="M209.43,74.73v-.05c0-4.47,3.04-7,6.26-7,2.22,0,3.63,1.1,4.6,2.38v-7.26h3.09v18.65h-3.09v-2.24c-.99,1.41-2.4,2.53-4.6,2.53-3.17,0-6.26-2.53-6.26-7h0ZM220.33,74.73v-.05c0-2.61-1.84-4.31-3.91-4.31s-3.88,1.64-3.88,4.31v.05c0,2.61,1.79,4.31,3.88,4.31s3.91-1.73,3.91-4.31Z" style="fill:#fff; stroke-width:0px;"></path><path d="M226.52,74.78v-.05c0-3.83,2.97-7.05,7.03-7.05,2.53,0,4.11.94,5.39,2.33l-1.94,2.07c-.94-1-1.94-1.68-3.48-1.68-2.24,0-3.91,1.94-3.91,4.29v.05c0,2.4,1.66,4.31,4.03,4.31,1.45,0,2.53-.66,3.5-1.66l1.87,1.84c-1.33,1.48-2.89,2.53-5.52,2.53-4.01,0-6.97-3.14-6.97-6.97v-.02Z" style="fill:#fff; stroke-width:0px;"></path><path d="M240.71,74.78v-.05c0-3.86,3.06-7.05,7.2-7.05s7.18,3.14,7.18,7v.05c0,3.83-3.06,7.03-7.23,7.03s-7.15-3.14-7.15-6.97h0ZM252.01,74.78v-.05c0-2.38-1.71-4.34-4.14-4.34s-4.06,1.94-4.06,4.29v.05c0,2.35,1.71,4.31,4.11,4.31s4.09-1.94,4.09-4.26Z" style="fill:#fff; stroke-width:0px;"></path><path d="M258.24,67.97h3.09v2.04c.87-1.2,2.04-2.33,4.11-2.33,1.94,0,3.32.94,4.03,2.38,1.07-1.43,2.5-2.38,4.54-2.38,2.94,0,4.73,1.87,4.73,5.16v8.61h-3.09v-7.66c0-2.15-.99-3.29-2.73-3.29s-2.89,1.17-2.89,3.35v7.61h-3.09v-7.69c0-2.1-1.02-3.27-2.73-3.27s-2.89,1.28-2.89,3.35v7.61h-3.09v-13.49h0Z" style="fill:#fff; stroke-width:0px;"></path></g><g id="uuid-f35cb650-1b7e-4aec-ba29-39515b1180d7"><path d="M124.3,40.85l-12.67-35.27c-.16-.49-.4-1.14-.4-1.69,0-1.53,1.29-2.98,3.15-2.98,1.62,0,2.67,1.06,3.15,2.58l10.49,30.39,10.57-30.48c.48-1.44,1.45-2.49,3.06-2.49h.33c1.69,0,2.75,1.06,3.23,2.49l10.48,30.48,10.67-30.56c.4-1.29,1.29-2.42,2.98-2.42s3.06,1.37,3.06,2.91c0,.56-.24,1.21-.4,1.7l-12.76,35.35c-.65,1.85-1.94,2.81-3.39,2.81h-.25c-1.61,0-2.82-.96-3.4-2.81l-10.4-29.98-10.49,29.98c-.56,1.85-1.78,2.81-3.39,2.81h-.16c-1.53,0-2.82-.96-3.47-2.81" style="fill:#fff; stroke-width:0px;"></path><path d="M216.64,3.97c0-1.7,1.37-3.16,3.06-3.16,1.78,0,3.16,1.37,3.16,3.16v7.16c3.07-6.95,9.88-10.23,14.39-10.23,1.86,0,3.08,1.38,3.08,3.15s-1.14,2.91-2.75,3.16c-8.09.97-14.72,7.03-14.72,19.09v14.17c0,1.69-1.29,3.15-3.07,3.15s-3.15-1.38-3.15-3.15V3.97" style="fill:#fff; stroke-width:0px;"></path><path d="M260.31,43.99c-11.25,0-20.44-8.72-20.44-21.53v-.16c0-11.91,8.32-21.52,19.65-21.52,12.11,0,19,9.99,19,20.97,0,1.68-1.36,2.88-2.85,2.88h-29.62c.86,8.96,7.11,14,14.41,14,5.07,0,8.79-1.99,11.8-4.8.47-.39,1.03-.71,1.74-.71,1.49,0,2.7,1.2,2.7,2.65,0,.71-.31,1.43-.96,1.99-3.88,3.75-8.47,6.24-15.44,6.24M272.42,20.06c-.64-7.52-4.92-14.07-13.07-14.07-7.13,0-12.52,6-13.3,14.07h26.38Z" style="fill:#fff; stroke-width:0px;"></path><path d="M172.51,31.05v-.16c0-8.78,7.25-13.46,17.81-13.46,5.31,0,9.1.73,12.82,1.77v-1.45c0-7.5-4.61-11.37-12.42-11.37-4.2,0-6.63.54-9.7,1.91-.4.16-.81.24-1.13.24-1.45,0-2.75-1.21-2.75-2.66,0-1.29.57-2.08,1.7-2.59,4.1-1.78,7.19-2.37,12.51-2.37,5.88,0,10.4,1.52,13.46,4.59,2.82,2.82,4.27,6.85,4.27,12.17v23c0,1.77-1.29,3.06-2.99,3.06s-2.97-1.29-2.97-2.91v-3.98c-2.91,3.79-7.74,7.18-15.07,7.18-7.74,0-15.57-4.44-15.57-12.98M203.21,27.82v-4.02c-3.06-.89-7.18-1.78-12.26-1.78-7.81,0-12.17,3.4-12.17,8.63v.16c0,5.24,4.83,8.3,10.47,8.3,7.65,0,13.94-4.68,13.94-11.28" style="fill:#fff; stroke-width:0px;"></path><path d="M11.37,3.5C10.01.52,6.64-.85,3.49.57.34,1.96-.82,5.46.6,8.46l13.23,28.75c2.08,4.51,4.27,6.87,8.39,6.87,4.39,0,6.32-2.58,8.39-6.87,0,0,11.54-25.13,11.65-25.38.13-.27.49-1.08,1.67-1.08.99,0,1.83.8,1.83,1.86v24.58c0,3.78,2.1,6.89,6.14,6.89s6.22-3.11,6.22-6.89v-20.1c0-3.88,2.78-6.39,6.57-6.39s6.31,2.6,6.31,6.39v20.1c0,3.78,2.11,6.89,6.14,6.89s6.23-3.11,6.23-6.89v-20.1c0-3.88,2.77-6.39,6.56-6.39s6.31,2.6,6.31,6.39v20.1c0,3.78,2.1,6.89,6.14,6.89s6.23-3.11,6.23-6.89V14.31c0-8.41-6.76-14.31-14.89-14.31s-13.22,5.63-13.22,5.63C77.76,2.13,74.04,0,67.72,0c-6.66,0-12.49,5.62-12.49,5.62C52.52,2.13,47.92,0,44.11,0c-5.9,0-10.59,2.59-13.44,9.14l-8.45,19.91L11.37,3.5" style="fill:#fff; stroke-width:0px;"></path><path d="M279.02,6v-.04c0-2.81,2.28-5.18,5.15-5.18s5.16,2.34,5.16,5.15v.03c0,2.82-2.27,5.19-5.16,5.19s-5.15-2.33-5.15-5.15M288.34,5.96h0c0-2.32-1.78-4.23-4.17-4.23s-4.18,1.93-4.18,4.23v.03c0,2.31,1.79,4.2,4.18,4.2s4.17-1.93,4.17-4.24" style="fill:#fff; stroke-width:0px;"></path><path d="M282.21,3.93c0-.31.24-.56.55-.56h1.72c.65,0,1.15.18,1.45.52.29.27.44.67.44,1.14v.02c0,.79-.4,1.27-1,1.52l.76.92c.11.13.17.25.17.41,0,.3-.25.51-.52.51-.24,0-.4-.13-.54-.28l-1.07-1.36h-.88v1.09c0,.31-.24.55-.55.55s-.55-.24-.55-.55v-3.94ZM284.42,5.8c.54,0,.84-.27.84-.7v-.02c0-.46-.32-.71-.85-.71h-1.1v1.43h1.11Z" style="fill:#fff; stroke-width:0px;"></path></g></g></svg>